fira-sans_hair-italic.sfdir
StartChar: exclam
Encoding: 33 33 2126
Width: 237
Flags: MW
HStem: -7 34<81 89.5> 661 20G<170 184 184 184>
VStem: 68 34<6 14>
LayerCount: 2
Back
Fore
SplineSet
103 197 m 1
 170 681 l 1
 184 681 l 1
 117 197 l 1
 103 197 l 1
86 27 m 0
 96 27 102 20 102 11 c 0
 102 1 95 -7 84 -7 c 0
 75 -7 68 0 68 9 c 0
 68 19 76 27 86 27 c 0
EndSplineSet
EndChar

StartChar: quotedbl
Encoding: 34 34 993
Width: 323
Flags: MW
HStem: 660.85 20G
VStem: 113.57 182.57
LayerCount: 2
Fore
SplineSet
144.71 680.85 m 1
 159.57 680.85 l 1
 125 443 l 1
 113.57 443 l 1
 144.71 680.85 l 1
281.28 680.85 m 1
 296.141 680.85 l 1
 261.57 443 l 1
 250.141 443 l 1
 281.28 680.85 l 1
EndSplineSet
EndChar

StartChar: percent
Encoding: 37 37 1113
Width: 754
Flags: MW
HStem: -9.41 12.29 -6 21G<107.57 107.57> 287.03 12.27 363.01 12.28 659.44 12.28 666.14 20G
VStem: 99.71 14.43 350.57 14 409.42 14.43 660.28 14
LayerCount: 2
Fore
SplineSet
675.43 686.14 m 1x77c0
 119 -12.8604 l 1
 107.57 -6 l 1
 664 693 l 1
 675.43 686.14 l 1x77c0
252.71 671.72 m 0xbbc0
 323.14 671.72 364.57 626.719 364.57 550.579 c 0
 364.57 477.289 326.57 363.009 211.57 363.009 c 0
 140.57 363.009 99.71 410.289 99.71 485.859 c 0
 99.71 559.149 137.71 671.72 252.71 671.72 c 0xbbc0
253.141 659.438 m 0
 144.141 659.438 114.141 549.008 114.141 484.578 c 0
 114.141 419.438 145.851 375.288 211.57 375.288 c 0
 319.141 375.288 350.57 487.288 350.57 551.438 c 0
 350.57 617.719 318.141 659.438 253.141 659.438 c 0
562.421 299.298 m 0
 632.851 299.298 674.281 254.308 674.281 178.157 c 0
 674.281 104.877 636.281 -9.41309 521.281 -9.41309 c 0
 450.281 -9.41309 409.421 37.877 409.421 113.447 c 0
 409.421 186.728 447.421 299.298 562.421 299.298 c 0
562.852 287.018 m 0
 453.852 287.018 423.852 176.598 423.852 112.168 c 0
 423.852 47.0176 455.562 2.87793 521.281 2.87793 c 0
 628.852 2.87793 660.281 114.878 660.281 179.018 c 0
 660.281 245.308 627.852 287.018 562.852 287.018 c 0
EndSplineSet
Substitution2: "'onum' Oldstyle Figures lookup 22 subtable" percent.osf
Substitution2: "'tnum' Tabular Numbers lookup 21 subtable" percent.tf
AlternateSubs2: "'aalt' Access All Alternates lookup 1 subtable" percent.tf percent.osf
EndChar

StartChar: ampersand
Encoding: 38 38 1221
Width: 731
Flags: MW
HStem: -9.42999 13.13 -4.42999 21G 678.7 12.71
VStem: 101.28 14.44 192.43 14 477.29 14.43
LayerCount: 2
Fore
SplineSet
353.85 691.43 m 0xbc
 433.42 691.43 491.722 640.271 491.722 569.981 c 0
 491.722 487.842 448.151 439.981 295.432 360.981 c 1
 507.722 130.132 l 1
 555.571 198.412 580.722 263.842 606.432 335.271 c 1
 619.151 330.562 l 1
 592.001 255.701 564.571 187.852 516.001 120.991 c 1
 624.001 3.4209 l 1
 611.291 -4.42871 l 1x7c
 507.291 110.571 l 1
 447.141 36.5713 376.001 -9.42871 270.851 -9.42871 c 0
 169.141 -9.42871 101.28 60.1416 101.28 147.571 c 0
 101.28 227.001 136.28 296.281 274.28 364.001 c 1
 218.71 424.851 192.43 475.57 192.43 530.28 c 0
 192.43 614.71 250 691.43 353.85 691.43 c 0xbc
353.861 678.701 m 0
 247.151 678.701 206.433 596.991 206.433 530.271 c 0
 206.433 482.562 226.152 435.411 286.582 369.701 c 1
 440.722 448.271 477.292 494.981 477.292 569.981 c 0
 477.292 635.411 423.012 678.701 353.861 678.701 c 0
283.152 355.271 m 1
 146.152 287.981 115.722 217.282 115.722 147.132 c 0
 115.722 68.8516 175.722 3.70117 270.872 3.70117 c 0
 370.872 3.70117 438.722 46.1309 498.582 119.701 c 1
 283.152 355.271 l 1
EndSplineSet
EndChar

StartChar: quotesingle
Encoding: 39 39 994
Width: 186
Flags: MW
HStem: 660.85 20G
VStem: 113.57 46
LayerCount: 2
Fore
SplineSet
144.71 680.85 m 1
 159.57 680.85 l 1
 125 443 l 1
 113.57 443 l 1
 144.71 680.85 l 1
EndSplineSet
EndChar

StartChar: parenleft
Encoding: 40 40 1009
Width: 327
Flags: MW
HStem: -127.15 955.15
VStem: 77.82 13.89
LayerCount: 2
Fore
SplineSet
331.85 821.42 m 1
 224.85 690.42 131.141 573.561 100.141 349.131 c 0
 68.9902 125.561 129.28 8.71094 200.28 -122.289 c 1
 189.71 -127.149 l 1
 115.56 6.14062 54.5596 122.57 86.5596 350.851 c 0
 117.989 578.28 211.989 694.71 323.14 828 c 1
 331.85 821.42 l 1
EndSplineSet
Substitution2: "'case' Case-Sensitive Forms lookup 25 subtable" parenleft.case
Substitution2: "'dnom' Denominators lookup 14 subtable" parenleft.dnom
Substitution2: "'numr' Numerators lookup 13 subtable" parenleft.numr
Substitution2: "'sups' Superscript lookup 12 subtable" parenleftsuperior
Substitution2: "'subs' Subscript lookup 11 subtable" uni208D
AlternateSubs2: "'aalt' Access All Alternates lookup 1 subtable" uni208D parenleftsuperior parenleft.numr parenleft.dnom parenleft.case
EndChar
StartChar: parenright
Encoding: 41 41 2151
Width: 326
Flags: MW
HStem: -128 955<29 162>
VStem: 259.45 14.25
LayerCount: 2
Back
Fore
SplineSet
162 827 m 1
 236 694 297 577 265 349 c 0
 233 122 139 5 29 -128 c 1
 19 -121 l 1
 126 10 220 126 251 351 c 0
 282 574 223 691 152 822 c 1
 162 827 l 1
EndSplineSet
Substitution2: "'case' Case-Sensitive Forms lookup 29 subtable" parenright.case
Substitution2: "'dnom' Denominators lookup 17 subtable" parenright.dnom
Substitution2: "'numr' Numerators lookup 16 subtable" parenright.numr
Substitution2: "'sups' Superscript lookup 15 subtable" uni207E
Substitution2: "'subs' Subscript lookup 14 subtable" uni208E
AlternateSubs2: "'aalt' Access All Alternates lookup 1 subtable" uni208E uni207E parenright.numr parenright.dnom parenright.case
EndChar
StartChar: asterisk
Encoding: 42 42 2118
Width: 430
Flags: MW
HStem: 540 20G<248 248 267 267> 550 20G<253 253 265 265> 710 20G<274 288 288 288>
VStem: 102 323<608 608>
LayerCount: 2
Back
Fore
SplineSet
425 608 m 1x70
 267 560 l 1
 343 432 l 1
 331 423 l 1
 257 553 l 1
 146 423 l 1
 135 432 l 1
 248 560 l 1
 102 608 l 1
 107 620 l 1xb0
 253 570 l 1
 274 730 l 1
 288 730 l 1
 265 570 l 1
 423 621 l 1
 425 608 l 1x70
EndSplineSet
EndChar

StartChar: plus
Encoding: 43 43 1115
Width: 482
Flags: MW
HStem: 324 13.57
VStem: 89.85 323.15
LayerCount: 2
Fore
SplineSet
260 337.57 m 1
 413 337.57 l 1
 410.71 324 l 1
 257.71 324 l 1
 235.71 168.85 l 1
 221.28 168.85 l 1
 243.28 324 l 1
 89.8506 324 l 1
 92.1406 337.57 l 1
 245.57 337.57 l 1
 267 492.71 l 1
 281.43 492.71 l 1
 260 337.57 l 1
EndSplineSet
Substitution2: "'onum' Oldstyle Figures lookup 22 subtable" plus.osf
Substitution2: "'tnum' Tabular Numbers lookup 21 subtable" plus.tf
Substitution2: "'dnom' Denominators lookup 14 subtable" plus.dnom
Substitution2: "'numr' Numerators lookup 13 subtable" plus.numr
Substitution2: "'sups' Superscript lookup 12 subtable" plussuperior
Substitution2: "'subs' Subscript lookup 11 subtable" uni208A
AlternateSubs2: "'aalt' Access All Alternates lookup 1 subtable" uni208A plussuperior plus.numr plus.dnom plus.tf plus.osf
EndChar
StartChar: comma
Encoding: 44 44 2123
Width: 146
Flags: MW
HStem: -5 21G<29 29>
VStem: 19 34<7.5 14>
LayerCount: 2
Back
Fore
SplineSet
37 27 m 0
 47 27 53 20 53 11 c 0
 53 4 50 -2 44 -13 c 2
 -12 -122 l 1
 -23 -122 l 1
 29 -5 l 1
 23 -3 19 3 19 9 c 0
 19 19 27 27 37 27 c 0
EndSplineSet
EndChar
StartChar: hyphen
Encoding: 45 45 2168
Width: 400
Flags: MW
HStem: 306 13<87 327 89 326>
VStem: 87 240<306 319>
LayerCount: 2
Back
Fore
SplineSet
87 306 m 1
 89 319 l 1
 327 319 l 1
 326 306 l 1
 87 306 l 1
EndSplineSet
Substitution2: "'case' Case-Sensitive Forms lookup 29 subtable" hyphen.case
Substitution2: "'aalt' Access All Alternates lookup 0 subtable" hyphen.case
EndChar
StartChar: period
Encoding: 46 46 2129
Width: 146
Flags: MW
HStem: -7 34<32 40.5>
VStem: 19 34<6 14>
LayerCount: 2
Back
Fore
SplineSet
37 27 m 0
 47 27 53 20 53 11 c 0
 53 1 46 -7 35 -7 c 0
 26 -7 19 0 19 9 c 0
 19 19 27 27 37 27 c 0
EndSplineSet
EndChar
StartChar: slash
Encoding: 47 47 2135
Width: 520
Flags: MW
HStem: -94 890<101 445>
VStem: 88 369
LayerCount: 2
Back
Fore
SplineSet
445 796 m 1
 457 793 l 1
 101 -94 l 1
 88 -90 l 1
 445 796 l 1
EndSplineSet
Substitution2: "'frac' Diagonal Fractions lookup 18 subtable" fraction
Substitution2: "'aalt' Access All Alternates lookup 0 subtable" fraction
EndChar
StartChar: zero
Encoding: 48 48 2017
Width: 539
Flags: MW
HStem: -9 13<186.5 293 186.5 331> 659 13<267 372.5>
VStem: 79 14<141 227 141 295> 466 15<436 521>
LayerCount: 2
Back
Fore
SplineSet
326 672 m 0
 429 672 481 597 481 450 c 0
 481 282 429 -9 233 -9 c 0
 131 -9 79 65 79 211 c 0
 79 379 130 672 326 672 c 0
326 659 m 0
 208 659 131 542 102 335 c 0
 96 285 93 245 93 209 c 0
 93 73 140 4 233 4 c 0
 353 4 428 122 457 327 c 0
 464 377 466 420 466 452 c 0
 466 590 419 659 326 659 c 0
EndSplineSet
Substitution2: "'zero' Slashed Zero lookup 32 subtable" zero.zero
Substitution2: "'onum' Oldstyle Figures lookup 26 subtable" zero.osf
Substitution2: "'tnum' Tabular Numbers lookup 25 subtable" zero.tf
Substitution2: "'frac' Diagonal Fractions lookup 19 subtable" zero.numr
Substitution2: "'dnom' Denominators lookup 17 subtable" zero.dnom
Substitution2: "'numr' Numerators lookup 16 subtable" zero.numr
Substitution2: "'sups' Superscript lookup 15 subtable" uni2070
Substitution2: "'subs' Subscript lookup 14 subtable" uni2080
AlternateSubs2: "'aalt' Access All Alternates lookup 1 subtable" uni2080 uni2070 zero.numr zero.dnom zero.tf zero.osf zero.zero
EndChar

StartChar: one
Encoding: 49 49 880
Width: 390
Flags: MW
HStem: 0 21G<217.57 217.57> 643.86 16.99
VStem: 95.28 214.72
LayerCount: 2
Fore
SplineSet
217.57 0 m 1
 203.57 -0.000976562 l 1
 293.86 643.859 l 1
 101.431 530.709 l 1
 95.2803 542.569 l 1
 298.57 660.85 l 1
 310 660.85 l 1
 217.57 0 l 1
EndSplineSet
Substitution2: "'onum' Oldstyle Figures lookup 22 subtable" one.osf
Substitution2: "'tnum' Tabular Numbers lookup 21 subtable" one.tf
Substitution2: "'frac' Diagonal Fractions lookup 16 subtable" one.numr
Substitution2: "'dnom' Denominators lookup 14 subtable" one.dnom
Substitution2: "'numr' Numerators lookup 13 subtable" one.numr
Substitution2: "'sups' Superscript lookup 12 subtable" onesuperior
Substitution2: "'subs' Subscript lookup 11 subtable" oneinferior
AlternateSubs2: "'aalt' Access All Alternates lookup 1 subtable" oneinferior onesuperior one.numr one.dnom one.tf one.osf
EndChar
StartChar: two
Encoding: 50 50 2019
Width: 464
Flags: MW
HStem: 0 14<14 14 33 362 12 14> 659 13<239 317.5>
VStem: 412 14<471 566>
LayerCount: 2
Back
Fore
SplineSet
276 672 m 0
 370 672 426 611 426 527 c 0
 426 408 368 339 33 14 c 1
 367 14 l 1
 362 0 l 1
 12 0 l 1
 14 14 l 1
 361 350 412 415 412 527 c 0
 412 605 360 659 275 659 c 0
 203 659 153 628 102 578 c 1
 92 587 l 1
 148 643 202 672 276 672 c 0
EndSplineSet
Substitution2: "'onum' Oldstyle Figures lookup 26 subtable" two.osf
Substitution2: "'tnum' Tabular Numbers lookup 25 subtable" two.tf
Substitution2: "'frac' Diagonal Fractions lookup 19 subtable" two.numr
Substitution2: "'dnom' Denominators lookup 17 subtable" two.dnom
Substitution2: "'numr' Numerators lookup 16 subtable" two.numr
Substitution2: "'sups' Superscript lookup 15 subtable" uni00B2
Substitution2: "'subs' Subscript lookup 14 subtable" uni2082
AlternateSubs2: "'aalt' Access All Alternates lookup 1 subtable" uni2082 uni00B2 two.numr two.dnom two.tf two.osf
EndChar

StartChar: three
Encoding: 51 51 882
Width: 472
Flags: MW
HStem: -9.42999 13.14 346 12.71 659.43 12.28
VStem: 375.71 14.43 404.14 14.43
LayerCount: 2
Fore
SplineSet
273 671.71 m 0
 366 671.71 418.568 616.999 418.568 537.279 c 0xf8
 418.568 458.14 367.568 363.14 253.849 352.989 c 1
 333.568 349.14 390.139 301.279 390.139 204.279 c 0
 390.139 119.279 331.849 -9.43066 173.278 -9.43066 c 0
 95.2783 -9.43066 46.1387 16.709 4.13867 72.8594 c 1
 15.1387 80.709 l 1
 56.709 24.1387 102.709 3.70898 172.849 3.70898 c 0
 326.709 3.70898 375.709 129.139 375.709 205.139 c 0xf0
 375.709 301.139 317.279 345.999 224.56 345.999 c 2
 187.989 345.999 l 1
 191.419 358.709 l 1
 225.849 358.709 l 2
 348.139 358.709 404.139 456.999 404.139 537.709 c 0
 404.139 611.279 355.419 659.43 272.569 659.43 c 0
 214.279 659.43 161.14 639 105.279 590.28 c 1
 96.8496 599.851 l 1
 151.85 648.57 208 671.71 273 671.71 c 0
EndSplineSet
Substitution2: "'onum' Oldstyle Figures lookup 22 subtable" three.osf
Substitution2: "'tnum' Tabular Numbers lookup 21 subtable" three.tf
Substitution2: "'frac' Diagonal Fractions lookup 16 subtable" three.numr
Substitution2: "'dnom' Denominators lookup 14 subtable" three.dnom
Substitution2: "'numr' Numerators lookup 13 subtable" three.numr
Substitution2: "'sups' Superscript lookup 12 subtable" threesuperior
Substitution2: "'subs' Subscript lookup 11 subtable" threeinferior
AlternateSubs2: "'aalt' Access All Alternates lookup 1 subtable" threeinferior threesuperior three.numr three.dnom three.tf three.osf
EndChar
StartChar: four
Encoding: 52 52 2021
Width: 499
Flags: MW
HStem: 0 21G<315 329 315 315> 190 14<61 342 358 449 61 356>
VStem: 43 408<190 204>
LayerCount: 2
Back
Fore
SplineSet
451 204 m 1
 449 190 l 1
 356 190 l 1
 329 0 l 1
 315 0 l 1
 342 190 l 1
 43 190 l 1
 45 203 l 1
 317 672 l 1
 329 666 l 1
 61 204 l 1
 344 204 l 1
 376 418 l 1
 388 418 l 1
 358 204 l 1
 451 204 l 1
EndSplineSet
Substitution2: "'onum' Oldstyle Figures lookup 26 subtable" four.osf
Substitution2: "'tnum' Tabular Numbers lookup 25 subtable" four.tf
Substitution2: "'frac' Diagonal Fractions lookup 19 subtable" four.numr
Substitution2: "'dnom' Denominators lookup 17 subtable" four.dnom
Substitution2: "'numr' Numerators lookup 16 subtable" four.numr
Substitution2: "'sups' Superscript lookup 15 subtable" uni2074
Substitution2: "'subs' Subscript lookup 14 subtable" uni2084
AlternateSubs2: "'aalt' Access All Alternates lookup 1 subtable" uni2084 uni2074 four.numr four.dnom four.tf four.osf
EndChar

StartChar: five
Encoding: 53 53 884
Width: 472
Flags: MW
HStem: -9.42999 13.14 356.14 14 399.71 12.72 647.71 13.15
VStem: 390.14 14.42
LayerCount: 2
Fore
SplineSet
439.71 647.71 m 1
 157.57 647.711 l 1
 118.28 370.141 l 1
 153.851 394.28 194.57 412.431 250.42 412.431 c 0
 348.99 412.431 404.561 350.431 404.561 251.431 c 0
 404.561 148.711 348.711 -9.42871 178.281 -9.42871 c 0
 106.711 -9.42871 54.1406 18.4209 18.1406 64.7109 c 1
 29.1406 72.9912 l 1
 62.2803 28.9912 111.57 3.71094 178.71 3.71094 c 0
 341 3.71094 390.14 158.281 390.14 251.421 c 0
 390.14 344.571 338.14 399.711 250 399.711 c 0xb8
 194.71 399.711 158.28 384.431 114.851 356.141 c 1
 103.001 356.141 l 1xf8
 144.851 660.86 l 1
 443.57 660.86 l 1
 439.71 647.71 l 1
EndSplineSet
Substitution2: "'onum' Oldstyle Figures lookup 22 subtable" five.osf
Substitution2: "'tnum' Tabular Numbers lookup 21 subtable" five.tf
Substitution2: "'frac' Diagonal Fractions lookup 16 subtable" five.numr
Substitution2: "'dnom' Denominators lookup 14 subtable" five.dnom
Substitution2: "'numr' Numerators lookup 13 subtable" five.numr
Substitution2: "'sups' Superscript lookup 12 subtable" fivesuperior
Substitution2: "'subs' Subscript lookup 11 subtable" fiveinferior
AlternateSubs2: "'aalt' Access All Alternates lookup 1 subtable" fiveinferior fivesuperior five.numr five.dnom five.tf five.osf
EndChar
StartChar: six
Encoding: 54 54 2023
Width: 508
Flags: MW
HStem: -9 13<181.5 309.5 181.5 313> 412 13<257 338.5> 659 13<288 376>
VStem: 74 14<143 213.5 143 216> 430 14<220.5 316>
LayerCount: 2
Back
Fore
SplineSet
356 659 m 0
 220 659 127 504 96 302 c 1
 145 371 213 425 299 425 c 0
 386 425 444 373 444 268 c 0
 444 162 392 -9 234 -9 c 0
 118 -9 74 81 74 202 c 0
 74 230 76 259 80 289 c 0
 113 517 213 672 357 672 c 0
 401 672 432 657 458 635 c 1
 449 625 l 1
 425 646 396 659 356 659 c 0
299 412 m 0
 215 412 147 355 93 280 c 1
 90 252 88 226 88 201 c 0
 88 85 129 4 234 4 c 0
 385 4 430 174 430 267 c 0
 430 365 378 412 299 412 c 0
EndSplineSet
Substitution2: "'onum' Oldstyle Figures lookup 26 subtable" six.osf
Substitution2: "'tnum' Tabular Numbers lookup 25 subtable" six.tf
Substitution2: "'frac' Diagonal Fractions lookup 19 subtable" six.numr
Substitution2: "'dnom' Denominators lookup 17 subtable" six.dnom
Substitution2: "'numr' Numerators lookup 16 subtable" six.numr
Substitution2: "'sups' Superscript lookup 15 subtable" uni2076
Substitution2: "'subs' Subscript lookup 14 subtable" uni2086
AlternateSubs2: "'aalt' Access All Alternates lookup 1 subtable" uni2086 uni2076 six.numr six.dnom six.tf six.osf
EndChar

StartChar: seven
Encoding: 55 55 886
Width: 433
Flags: MW
HStem: -5.42999 21G -0.580002 21G 647.71 13.14
VStem: 58.57 385
LayerCount: 2
Fore
SplineSet
442.28 649 m 1x70
 72.1406 -5.42969 l 1xb0
 58.5703 -0.580078 l 1
 425.71 647.71 l 1
 95.4297 647.71 l 1
 96.71 660.85 l 1
 443.57 660.85 l 1
 442.28 649 l 1x70
EndSplineSet
Substitution2: "'onum' Oldstyle Figures lookup 22 subtable" seven.osf
Substitution2: "'tnum' Tabular Numbers lookup 21 subtable" seven.tf
Substitution2: "'frac' Diagonal Fractions lookup 16 subtable" seven.numr
Substitution2: "'dnom' Denominators lookup 14 subtable" seven.dnom
Substitution2: "'numr' Numerators lookup 13 subtable" seven.numr
Substitution2: "'sups' Superscript lookup 12 subtable" sevensuperior
Substitution2: "'subs' Subscript lookup 11 subtable" seveninferior
AlternateSubs2: "'aalt' Access All Alternates lookup 1 subtable" seveninferior sevensuperior seven.numr seven.dnom seven.tf seven.osf
EndChar

StartChar: eight
Encoding: 56 56 887
Width: 525
Flags: MW
HStem: -9.42999 13.57 659 12.71
VStem: 51.28 14.44 129.71 14.01 433.58 14.42 453.72 14.42
LayerCount: 2
Fore
SplineSet
315.59 342.3 m 1
 406.84 303.18 448 263.087 448 187.277 c 0xf8
 448 86.4277 369.72 -9.43262 226.569 -9.43262 c 0
 115.43 -9.43262 51.2793 51.8574 51.2793 142.138 c 0
 51.2793 224.258 91.6992 309.038 236.039 363.269 c 1
 161.309 395.608 129.709 435.438 129.709 501.858 c 0
 129.709 603.429 223.279 671.709 319.43 671.709 c 0
 401.29 671.709 468.14 625.279 468.14 537.14 c 0xf4
 468.14 458.3 433.92 399.649 315.59 342.3 c 1
143.72 500.997 m 0
 143.72 435.847 175.579 400.567 255.149 367.567 c 2
 303.01 347.827 l 1
 420.59 404.268 453.72 462.947 453.72 537.567 c 0xf4
 453.72 616.997 395.58 658.997 319.43 658.997 c 0
 229 658.997 143.72 595.997 143.72 500.997 c 0
227.009 4.1377 m 0
 345.159 4.1377 433.578 77.1377 433.578 188.138 c 0
 433.578 267.138 385.288 301.138 288.438 341.138 c 2
 250.589 356.998 l 1
 96.209 298.848 65.7188 218.458 65.7188 141.278 c 0
 65.7188 56.708 126.289 4.1377 227.009 4.1377 c 0
EndSplineSet
Substitution2: "'onum' Oldstyle Figures lookup 22 subtable" eight.osf
Substitution2: "'tnum' Tabular Numbers lookup 21 subtable" eight.tf
Substitution2: "'frac' Diagonal Fractions lookup 16 subtable" eight.numr
Substitution2: "'dnom' Denominators lookup 14 subtable" eight.dnom
Substitution2: "'numr' Numerators lookup 13 subtable" eight.numr
Substitution2: "'sups' Superscript lookup 12 subtable" eightsuperior
Substitution2: "'subs' Subscript lookup 11 subtable" eightinferior
AlternateSubs2: "'aalt' Access All Alternates lookup 1 subtable" eightinferior eightsuperior eight.numr eight.dnom eight.tf eight.osf
EndChar
StartChar: nine
Encoding: 57 57 2026
Width: 505
Flags: MW
HStem: -2 21G<84 84> 258 13<195.5 274> 659 13<230 353.5>
VStem: 88 14<376 471.5 376 476> 443 15<467.5 537>
LayerCount: 2
Back
Fore
SplineSet
304 672 m 0
 412 672 458 600 458 482 c 0
 458 289 391 73 88 -14 c 1
 84 -2 l 1
 261 52 399 155 436 372 c 1
 382 297 313 258 235 258 c 0
 148 258 88 321 88 425 c 0
 88 527 149 672 304 672 c 0
236 271 m 0
 316 271 383 313 438 393 c 1
 442 425 443 454 443 481 c 0
 443 593 403 659 304 659 c 0
 156 659 102 519 102 424 c 0
 102 328 155 271 236 271 c 0
EndSplineSet
Substitution2: "'onum' Oldstyle Figures lookup 26 subtable" nine.osf
Substitution2: "'tnum' Tabular Numbers lookup 25 subtable" nine.tf
Substitution2: "'frac' Diagonal Fractions lookup 19 subtable" nine.numr
Substitution2: "'dnom' Denominators lookup 17 subtable" nine.dnom
Substitution2: "'numr' Numerators lookup 16 subtable" nine.numr
Substitution2: "'sups' Superscript lookup 15 subtable" uni2079
Substitution2: "'subs' Subscript lookup 14 subtable" uni2089
AlternateSubs2: "'aalt' Access All Alternates lookup 1 subtable" uni2089 uni2079 nine.numr nine.dnom nine.tf nine.osf
EndChar

StartChar: colon
Encoding: 58 58 984
Width: 146
Flags: MW
HStem: -6.57001 33.28 413.86 33.28
VStem: 19.42 33.72 78.57 33.71
LayerCount: 2
Fore
SplineSet
96.2803 447.14 m 0
 106.28 447.14 112.28 440.291 112.28 431.141 c 0
 112.28 421.141 105 413.86 94.5703 413.86 c 0
 85 413.86 78.5703 420.71 78.5703 429.43 c 0
 78.5703 439.859 86.2803 447.14 96.2803 447.14 c 0
37.1406 26.7109 m 0xf0
 47.1406 26.7109 53.1406 19.8623 53.1406 10.7119 c 0
 53.1406 0.711914 45.8506 -6.56836 35.4209 -6.56836 c 0
 25.8506 -6.56836 19.4209 0.28125 19.4209 9.00098 c 0
 19.4209 19.4307 27.1406 26.7109 37.1406 26.7109 c 0xf0
EndSplineSet
EndChar

StartChar: semicolon
Encoding: 59 59 995
Width: 146
Flags: MW
HStem: -5.28 21G 413.86 33.28
VStem: 19.42 33.71 78.57 33.71
LayerCount: 2
Fore
SplineSet
96.2803 447.14 m 0
 106.28 447.14 112.28 440.291 112.28 431.141 c 0
 112.28 421.141 105 413.86 94.5703 413.86 c 0
 85 413.86 78.5703 420.71 78.5703 429.43 c 0
 78.5703 439.859 86.2803 447.14 96.2803 447.14 c 0
37.1406 26.7109 m 0xf0
 47.1406 26.7109 53.1318 19.8594 53.1318 10.709 c 0
 53.1318 3.85938 49.9922 -2.43066 44.1318 -13.2803 c 2
 -11.8682 -121.851 l 1
 -23.4385 -121.851 l 1
 29.2812 -5.28027 l 1
 22.7109 -3 19.4209 2.57031 19.4209 9.43066 c 0
 19.4209 19.001 27.1406 26.7109 37.1406 26.7109 c 0xf0
EndSplineSet
EndChar
StartChar: less
Encoding: 60 60 2261
Width: 494
GlyphClass: 2
Flags: MW
HStem: 165 332<392 439>
VStem: 93.5 15.5
LayerCount: 2
Back
Fore
SplineSet
439 497 m 1
 443 485 l 1
 109 333 l 1
 399 177 l 1
 392 165 l 1
 93 328 l 1
 94 338 l 1
 439 497 l 1
EndSplineSet
Substitution2: "'onum' Oldstyle Figures lookup 26 subtable" less.osf
Substitution2: "'tnum' Tabular Numbers lookup 25 subtable" less.tf
AlternateSubs2: "'aalt' Access All Alternates lookup 1 subtable" less.tf less.osf
EndChar

StartChar: equal
Encoding: 61 61 1095
Width: 483
Flags: MW
HStem: 246.86 13.57 401.14 13.57
VStem: 78.85 345.57
LayerCount: 2
Fore
SplineSet
103.57 414.71 m 1
 424.421 414.71 l 1
 422.141 401.14 l 1
 101.28 401.14 l 1
 103.57 414.71 l 1
81.1406 260.43 m 1
 401.991 260.43 l 1
 399.711 246.859 l 1
 78.8506 246.859 l 1
 81.1406 260.43 l 1
EndSplineSet
Substitution2: "'onum' Oldstyle Figures lookup 22 subtable" equal.osf
Substitution2: "'tnum' Tabular Numbers lookup 21 subtable" equal.tf
Substitution2: "'dnom' Denominators lookup 14 subtable" equal.dnom
Substitution2: "'numr' Numerators lookup 13 subtable" equal.numr
Substitution2: "'sups' Superscript lookup 12 subtable" equalsuperior
AlternateSubs2: "'aalt' Access All Alternates lookup 1 subtable" equalsuperior equal.numr equal.dnom equal.tf equal.osf
EndChar

StartChar: greater
Encoding: 62 62 1098
Width: 495
Flags: MW
HStem: 165.14 331.71
VStem: 406.42 15.93
LayerCount: 2
Fore
SplineSet
423 338.28 m 1
 421.711 327.71 l 1
 76.001 165.14 l 1
 71.5713 177.43 l 1
 406.421 333 l 1
 115.141 484.57 l 1
 122.57 496.851 l 1
 423 338.28 l 1
EndSplineSet
Substitution2: "'onum' Oldstyle Figures lookup 22 subtable" greater.osf
Substitution2: "'tnum' Tabular Numbers lookup 21 subtable" greater.tf
AlternateSubs2: "'aalt' Access All Alternates lookup 1 subtable" greater.tf greater.osf
EndChar
StartChar: question
Encoding: 63 63 2130
Width: 444
Flags: MW
HStem: -8 34<182 191> 678 13<258.5 330>
VStem: 170 33<5 13> 183 14<259.5 269> 408 14<493.5 605.5>
LayerCount: 2
Back
Fore
SplineSet
293 691 m 0xd8
 377 691 422 639 422 578 c 0
 422 402 196 411 197 269 c 0
 197 249 201 231 206 214 c 1
 193 211 l 1
 187 230 183 250 183 269 c 0
 182 419 408 409 408 578 c 0
 408 633 367 678 293 678 c 0
 224 678 177 653 122 601 c 1
 113 609 l 1
 170 664 221 691 293 691 c 0xd8
187 26 m 0xe8
 197 26 203 19 203 10 c 0
 203 0 196 -8 186 -8 c 0
 176 -8 170 -1 170 8 c 0
 170 18 177 26 187 26 c 0xe8
EndSplineSet
EndChar
StartChar: at
Encoding: 64 64 2378
Width: 1020
GlyphClass: 2
Flags: MW
HStem: -195 13<367.5 506.5 367.5 508> 14 13<685.5 789.5 685.5 794> 16 14<421 491> 463 13<473.5 578> 678 13<412 692>
VStem: 95 14<65 278 65 281> 321 15<129 236 129 242> 624 12.44 914 14<289 450>
LayerCount: 2
Back
Fore
SplineSet
581 691 m 0xdf80
 814 691 928 545 928 361 c 0
 928 209 867 14 721 14 c 0xdf80
 644 14 622 86 624 147 c 1
 582 62 526 16 456 16 c 0xbf80
 379 16 321 71 321 181 c 0
 321 303 385 476 555 476 c 0
 606 476 647 459 675 443 c 1
 639 180 l 2
 628 92 650 27 721 27 c 0
 858 27 914 218 914 360 c 0
 914 540 803 678 581 678 c 0
 243 678 109 380 109 176 c 0
 109 -46 262 -182 473 -182 c 0
 540 -182 605 -170 659 -150 c 1
 662 -163 l 1
 608 -182 544 -195 472 -195 c 0
 255 -195 95 -54 95 176 c 0
 95 386 232 691 581 691 c 0xdf80
456 30 m 0xbf80
 528 30 586 85 623 168 c 1
 661 434 l 1
 635 449 601 463 555 463 c 0
 392 463 336 293 336 179 c 0
 336 79 386 30 456 30 c 0xbf80
EndSplineSet
EndChar

StartChar: A
Encoding: 65 65 1
Width: 557
GlyphClass: 2
Flags: MW
HStem: 0 21G<-6.15039 9.56934 -6.15039 -6.15039 474.85 474.85 474.85 489.71> 207 13.57 667.85 13
VStem: -6.14999 495.86
AnchorPoint: "Anchor-11" 0 0 basechar 0
AnchorPoint: "Anchor-10" 198 518 basechar 0
AnchorPoint: "Anchor-9" 337 681 basechar 0
AnchorPoint: "Anchor-8" 500 0 basechar 0
LayerCount: 2
Fore
SplineSet
431.68 207 m 1
 110.609 207 l 1
 9.56934 0 l 1
 -6.15039 -0 l 1
 328.71 680.85 l 1
 345.56 680.85 l 1
 489.71 0 l 1
 474.85 0 l 1
 431.68 207 l 1
428.85 220.57 m 1
 335.569 667.851 l 1
 117.239 220.57 l 1
 428.85 220.57 l 1
EndSplineSet
Substitution2: "Single Substitution lookup 30 subtable" ordfeminine
Substitution2: "'c2sc' Capitals to Small Capitals lookup 23 subtable" a.sc
AlternateSubs2: "'aalt' Access All Alternates lookup 1 subtable" ordfeminine a.sc
Position2: "'cpsp' Capital Spacing lookup 0 subtable" dx=5 dy=0 dh=10 dv=0
EndChar

StartChar: B
Encoding: 66 66 13
Width: 584
GlyphClass: 2
Flags: MW
HStem: 0 13.57 353.43 13.14 667.29 13.57
VStem: 498.14 14.86 508.43 14.43
LayerCount: 2
Fore
SplineSet
363 360.43 m 1xf0
 446.85 354.14 513 307.569 513 213.72 c 0xf0
 513 110.72 455 0 258.28 0 c 2
 89.2803 0 l 1
 184.71 680.86 l 1
 326.86 680.86 l 2
 451.57 680.86 522.86 631.71 522.86 538 c 0xe8
 522.86 448.57 463.71 375.71 363 360.43 c 1xf0
155.3 366.569 m 1
 330.86 366.569 l 2
 428.71 366.569 508.43 437.859 508.43 537.569 c 0xe8
 508.43 623.289 444.279 667.289 328.279 667.289 c 2
 197.43 667.289 l 1
 155.3 366.569 l 1
260.57 13.5693 m 2xf0
 441.71 13.5693 498.141 113.72 498.141 214.149 c 0
 498.141 304.43 431.57 353.43 331.57 353.43 c 2
 153.46 353.43 l 1
 105.86 13.5693 l 1
 260.57 13.5693 l 2xf0
EndSplineSet
Substitution2: "'c2sc' Capitals to Small Capitals lookup 23 subtable" b.sc
Substitution2: "'aalt' Access All Alternates lookup 0 subtable" b.sc
Position2: "'cpsp' Capital Spacing lookup 0 subtable" dx=5 dy=0 dh=10 dv=0
EndChar

StartChar: D
Encoding: 68 68 20
Width: 617
GlyphClass: 2
Flags: MW
HStem: 0 13.57 667.28 13.57
VStem: 540.29 14.42
AnchorPoint: "Anchor-11" 0 0 basechar 0
AnchorPoint: "Anchor-10" 0 0 basechar 0
AnchorPoint: "Anchor-9" 351 681 basechar 0
AnchorPoint: "Anchor-8" 0 0 basechar 0
LayerCount: 2
Fore
SplineSet
299 680.85 m 2
 427.86 680.85 554.71 638 554.71 433 c 0
 554.71 228.28 467.43 0 209.71 0 c 2
 89.2803 -0 l 1
 184.71 680.85 l 1
 299 680.85 l 2
197.43 667.279 m 1
 105.859 13.5693 l 1
 211.43 13.5693 l 2
 458.149 13.5693 540.289 236.569 540.289 433.43 c 0
 540.289 630.43 418.289 667.279 296.859 667.279 c 2
 197.43 667.279 l 1
EndSplineSet
Substitution2: "'c2sc' Capitals to Small Capitals lookup 23 subtable" d.sc
Substitution2: "'aalt' Access All Alternates lookup 0 subtable" d.sc
Position2: "'cpsp' Capital Spacing lookup 0 subtable" dx=5 dy=0 dh=10 dv=0
EndChar

StartChar: F
Encoding: 70 70 34
Width: 471
GlyphClass: 2
Flags: MW
HStem: 0 21G 339 13.14 667.29 13.56
VStem: 89.28 404.86
LayerCount: 2
Fore
SplineSet
490.71 667.28 m 1
 197.43 667.291 l 1
 153 352.141 l 1
 406.71 352.141 l 1
 405 339.001 l 1
 151.28 339.001 l 1
 103.71 0.000976562 l 1
 89.2803 0.000976562 l 1
 184.71 680.851 l 1
 494.14 680.851 l 1
 490.71 667.28 l 1
EndSplineSet
Substitution2: "'c2sc' Capitals to Small Capitals lookup 23 subtable" f.sc
Substitution2: "'aalt' Access All Alternates lookup 0 subtable" f.sc
Position2: "'cpsp' Capital Spacing lookup 0 subtable" dx=5 dy=0 dh=10 dv=0
EndChar

StartChar: H
Encoding: 72 72 40
Width: 657
GlyphClass: 2
Flags: MW
HStem: 0 21G<89.2803 103.71 89.2803 89.2803 480.85 480.85 480.85 495.279> 356.43 13.57 660.85 20G
VStem: 89.28 501.43
AnchorPoint: "Anchor-11" 0 0 basechar 0
AnchorPoint: "Anchor-10" 88 518 basechar 0
AnchorPoint: "Anchor-9" 386 681 basechar 0
AnchorPoint: "Anchor-8" 0 0 basechar 0
LayerCount: 2
Fore
SplineSet
531 356.43 m 1
 153.85 356.43 l 1
 103.71 0 l 1
 89.2803 -0 l 1
 184.71 680.85 l 1
 199.14 680.85 l 1
 155.569 370 l 1
 532.709 370 l 1
 576.279 680.85 l 1
 590.709 680.85 l 1
 495.279 0 l 1
 480.85 -0 l 1
 531 356.43 l 1
EndSplineSet
Substitution2: "'c2sc' Capitals to Small Capitals lookup 23 subtable" h.sc
Substitution2: "'aalt' Access All Alternates lookup 0 subtable" h.sc
Position2: "'cpsp' Capital Spacing lookup 0 subtable" dx=5 dy=0 dh=10 dv=0
EndChar
StartChar: J
Encoding: 74 74 134
Width: 276
GlyphClass: 2
Flags: MW
HStem: 661 20G<201 215 215 215>
VStem: -23 238
AnchorPoint: "Anchor-14" 0 0 basechar 0
AnchorPoint: "Anchor-13" 0 0 basechar 0
AnchorPoint: "Anchor-12" 208 681 basechar 0
AnchorPoint: "Anchor-11" 0 0 basechar 0
AnchorPoint: "Anchor-10" 0 0 basechar 0
LayerCount: 2
Back
Fore
SplineSet
215 681 m 1
 132 86 l 2
 119 -11 92 -52 -19 -97 c 1
 -23 -85 l 1
 78 -43 105 -4 118 88 c 2
 201 681 l 1
 215 681 l 1
EndSplineSet
Substitution2: "'c2sc' Capitals to Small Capitals lookup 27 subtable" j.sc
Substitution2: "'aalt' Access All Alternates lookup 0 subtable" j.sc
Position2: "'cpsp' Capital Spacing lookup 0 subtable" dx=5 dy=0 dh=10 dv=0
EndChar
StartChar: K
Encoding: 75 75 137
Width: 508
GlyphClass: 2
Flags: MW
HStem: 0 21G<445 463 445 445> 661 20G<185 199 199 199 524 542 542 542>
VStem: 89 453
AnchorPoint: "Anchor-14" 0 0 basechar 0
AnchorPoint: "Anchor-13" 0 0 basechar 0
AnchorPoint: "Anchor-12" 346 681 basechar 0
AnchorPoint: "Anchor-11" 0 0 basechar 0
AnchorPoint: "Anchor-10" 254 0 basechar 0
LayerCount: 2
Back
Fore
SplineSet
199 681 m 1
 104 1 l 1
 89 1 l 1
 185 681 l 1
 199 681 l 1
542 681 m 1
 176 366 l 1
 463 0 l 1
 445 0 l 1
 158 366 l 1
 524 681 l 1
 542 681 l 1
EndSplineSet
Substitution2: "'c2sc' Capitals to Small Capitals lookup 27 subtable" k.sc
Substitution2: "'aalt' Access All Alternates lookup 0 subtable" k.sc
Position2: "'cpsp' Capital Spacing lookup 0 subtable" dx=5 dy=0 dh=10 dv=0
EndChar

StartChar: L
Encoding: 76 76 58
Width: 449
GlyphClass: 2
Flags: MW
HStem: 0 14<105.85 389.561> 660.85 20G
VStem: 89.28 305
AnchorPoint: "Anchor-11" 241 0 basechar 0
AnchorPoint: "Anchor-10" 0 0 basechar 0
AnchorPoint: "Anchor-9" 192 681 basechar 0
AnchorPoint: "Anchor-8" 0 0 basechar 0
LayerCount: 2
Fore
SplineSet
105.85 14 m 1
 394.28 14 l 1
 389.561 0 l 1
 89.2803 -0 l 1
 184.71 680.85 l 1
 199.14 680.85 l 1
 105.85 14 l 1
EndSplineSet
Substitution2: "'c2sc' Capitals to Small Capitals lookup 23 subtable" l.sc
Substitution2: "'aalt' Access All Alternates lookup 0 subtable" l.sc
Position2: "'cpsp' Capital Spacing lookup 0 subtable" dx=5 dy=0 dh=10 dv=0
EndChar

StartChar: N
Encoding: 78 78 65
Width: 658
GlyphClass: 2
Flags: MW
HStem: 0 16.86 665.86 15
VStem: 184.71 10.14 486.42 9.72
AnchorPoint: "Anchor-11" 289 0 basechar 0
AnchorPoint: "Anchor-10" 0 0 basechar 0
AnchorPoint: "Anchor-9" 393 681 basechar 0
AnchorPoint: "Anchor-8" 0 0 basechar 0
LayerCount: 2
Fore
SplineSet
496.14 0 m 1
 478.131 0.000976562 l 1
 194.851 665.861 l 1
 191.7 631.571 186.851 593.722 175.561 514.151 c 2
 103.28 0.000976562 l 1
 89.2803 0.000976562 l 1
 184.71 680.861 l 1
 203.14 680.861 l 1
 486.42 16.8613 l 1
 491.14 58.291 498.14 114.721 507.14 177.57 c 2
 577.569 680.86 l 1
 591.569 680.86 l 1
 496.14 0 l 1
EndSplineSet
Substitution2: "'c2sc' Capitals to Small Capitals lookup 23 subtable" n.sc
Substitution2: "'aalt' Access All Alternates lookup 0 subtable" n.sc
Position2: "'cpsp' Capital Spacing lookup 0 subtable" dx=5 dy=0 dh=10 dv=0
EndChar
StartChar: Q
Encoding: 81 81 216
Width: 674
GlyphClass: 2
Flags: MW
HStem: -9 9 -9 13<242.5 307 307 311> 678 13<289 468.5>
VStem: 86 15<173.5 334.5 173.5 338.5> 611 15<349.5 509.5>
LayerCount: 2
Back
Fore
SplineSet
626 428 m 0x78
 626 271 565 34 366 0 c 1xb8
 455 -2 527 -17 578 -67 c 1
 567 -78 l 1
 510 -24 441 -9 311 -9 c 2
 307 -9 l 2
 169 -9 86 86 86 254 c 0
 86 423 166 691 404 691 c 0
 542 691 626 598 626 428 c 0x78
101 254 m 0
 101 93 178 4 307 4 c 0
 545 4 611 267 611 428 c 0
 611 591 534 678 403 678 c 0
 175 678 101 415 101 254 c 0
EndSplineSet
Substitution2: "'c2sc' Capitals to Small Capitals lookup 27 subtable" q.sc
Substitution2: "'aalt' Access All Alternates lookup 0 subtable" q.sc
Position2: "'cpsp' Capital Spacing lookup 0 subtable" dx=5 dy=0 dh=10 dv=0
EndChar

StartChar: R
Encoding: 82 82 86
Width: 568
GlyphClass: 2
Flags: MW
HStem: 0 21G<89.2803 103.71 89.2803 89.2803 466.56 482.85 466.56 466.56> 328 13.57 667.28 13.57
VStem: 512.27 14.86
AnchorPoint: "Anchor-11" 266 0 basechar 0
AnchorPoint: "Anchor-10" 0 0 basechar 0
AnchorPoint: "Anchor-9" 344 681 basechar 0
AnchorPoint: "Anchor-8" 0 0 basechar 0
LayerCount: 2
Fore
SplineSet
527.14 536.43 m 0
 527.14 446.54 477.7 345.19 336.71 329.2 c 1
 482.85 0 l 1
 466.56 0 l 1
 322.279 328 l 1
 149.77 328 l 1
 103.71 0 l 1
 89.2803 -0 l 1
 184.71 680.85 l 1
 328.56 680.85 l 2
 470.989 680.85 527.14 629 527.14 536.43 c 0
307.99 341.57 m 2
 457.99 341.57 512.27 446.711 512.27 536.851 c 0
 512.27 619.851 463.56 667.28 330.27 667.28 c 2
 197.42 667.28 l 1
 151.67 341.57 l 1
 307.99 341.57 l 2
EndSplineSet
Substitution2: "'c2sc' Capitals to Small Capitals lookup 23 subtable" r.sc
Substitution2: "'aalt' Access All Alternates lookup 0 subtable" r.sc
Position2: "'cpsp' Capital Spacing lookup 0 subtable" dx=5 dy=0 dh=10 dv=0
EndChar
StartChar: T
Encoding: 84 84 238
Width: 474
GlyphClass: 2
Flags: MW
HStem: 0 21G<193 208 193 193> 667 14<77 287 75 517 302 514 302 302>
VStem: 75 442<667 681>
AnchorPoint: "Anchor-14" 249 343 basechar 0
AnchorPoint: "Anchor-13" 0 0 basechar 0
AnchorPoint: "Anchor-12" 296 681 basechar 0
AnchorPoint: "Anchor-11" 0 0 basechar 0
AnchorPoint: "Anchor-10" 201 0 basechar 0
LayerCount: 2
Back
Fore
SplineSet
517 681 m 1
 514 667 l 1
 302 667 l 1
 208 0 l 1
 193 0 l 1
 287 667 l 1
 75 667 l 1
 77 681 l 1
 517 681 l 1
EndSplineSet
Substitution2: "'c2sc' Capitals to Small Capitals lookup 27 subtable" t.sc
Substitution2: "'aalt' Access All Alternates lookup 0 subtable" t.sc
Position2: "'cpsp' Capital Spacing lookup 0 subtable" dx=5 dy=0 dh=10 dv=0
EndChar
StartChar: U
Encoding: 85 85 253
Width: 639
GlyphClass: 2
Flags: MW
HStem: -9 13<214.5 352 214.5 355.5> 661 20G<175 190 190 190 567 582 582 582>
VStem: 105.52 14.13
AnchorPoint: "Anchor-14" 0 0 basechar 0
AnchorPoint: "Anchor-13" 592 681 basechar 0
AnchorPoint: "Anchor-12" 379 681 basechar 0
AnchorPoint: "Anchor-11" 365 0 basechar 0
AnchorPoint: "Anchor-10" 283 0 basechar 0
LayerCount: 2
Back
Fore
SplineSet
582 681 m 1
 515 206 l 2
 498 82 428 -9 283 -9 c 0
 135 -9 92 83 109 207 c 2
 175 681 l 1
 190 681 l 1
 123 208 l 2
 107 89 146 4 283 4 c 0
 421 4 485 91 501 209 c 2
 567 681 l 1
 582 681 l 1
EndSplineSet
Substitution2: "'c2sc' Capitals to Small Capitals lookup 27 subtable" u.sc
Substitution2: "'aalt' Access All Alternates lookup 0 subtable" u.sc
Position2: "'cpsp' Capital Spacing lookup 0 subtable" dx=5 dy=0 dh=10 dv=0
EndChar

StartChar: V
Encoding: 86 86 112
Width: 530
GlyphClass: 2
Flags: MW
HStem: 0 13.57 660.85 20G
VStem: 90.29 467.99
LayerCount: 2
Fore
SplineSet
238.43 0 m 1
 220.569 -0 l 1
 90.2891 680.85 l 1
 105.139 680.85 l 1
 230.999 13.5693 l 1
 542.999 680.85 l 1
 558.279 680.85 l 1
 238.43 0 l 1
EndSplineSet
Substitution2: "'c2sc' Capitals to Small Capitals lookup 23 subtable" v.sc
Substitution2: "'aalt' Access All Alternates lookup 0 subtable" v.sc
Position2: "'cpsp' Capital Spacing lookup 0 subtable" dx=5 dy=0 dh=10 dv=0
EndChar

StartChar: W
Encoding: 87 87 113
Width: 785
GlyphClass: 2
Flags: MW
HStem: 0 15.85 666.43 14.42
VStem: 99.71 703.14
AnchorPoint: "Anchor-11" 0 0 basechar 0
AnchorPoint: "Anchor-10" 0 0 basechar 0
AnchorPoint: "Anchor-9" 451 681 basechar 0
AnchorPoint: "Anchor-8" 0 0 basechar 0
LayerCount: 2
Fore
SplineSet
547.85 0 m 1
 531.29 -0 l 1
 449.57 666.43 l 1
 180.431 0 l 1
 163.86 -0 l 1
 99.71 680.85 l 1
 114.57 680.85 l 1
 174.71 16.1396 l 1
 442.14 680.85 l 1
 460 680.85 l 1
 541.28 15.8496 l 1
 788 680.85 l 1
 802.85 680.85 l 1
 547.85 0 l 1
EndSplineSet
Substitution2: "'c2sc' Capitals to Small Capitals lookup 23 subtable" w.sc
Substitution2: "'aalt' Access All Alternates lookup 0 subtable" w.sc
Position2: "'cpsp' Capital Spacing lookup 0 subtable" dx=5 dy=0 dh=10 dv=0
EndChar

StartChar: X
Encoding: 88 88 118
Width: 476
GlyphClass: 2
Flags: MW
HStem: 0 21G 660.86 20G
VStem: -18.58 506.44
LayerCount: 2
Fore
SplineSet
261.56 369.37 m 1
 423.849 0.000976562 l 1
 408.568 0.000976562 l 1
 251.568 358.721 l 1
 -2.86133 0.000976562 l 1
 -18.5811 0.000976562 l 1
 243.569 370.001 l 1
 244.149 370.601 l 1
 103.999 680.86 l 1
 119.709 680.86 l 1
 253.709 380.431 l 1
 471.709 680.86 l 1
 487.859 680.86 l 1
 262.14 370 l 1
 261.56 369.37 l 1
EndSplineSet
Substitution2: "'c2sc' Capitals to Small Capitals lookup 23 subtable" x.sc
Substitution2: "'aalt' Access All Alternates lookup 0 subtable" x.sc
Position2: "'cpsp' Capital Spacing lookup 0 subtable" dx=5 dy=0 dh=10 dv=0
EndChar

StartChar: Y
Encoding: 89 89 119
Width: 488
GlyphClass: 2
Flags: MW
HStem: 0 21G 660.85 20G
VStem: 81.85 442.29
AnchorPoint: "Anchor-11" 0 0 basechar 0
AnchorPoint: "Anchor-10" 24 518 basechar 0
AnchorPoint: "Anchor-9" 302 681 basechar 0
AnchorPoint: "Anchor-8" 0 0 basechar 0
LayerCount: 2
Fore
SplineSet
253.57 271 m 1
 215.711 -0.000976562 l 1
 201.281 -0.000976562 l 1
 238.711 270.569 l 1
 81.8506 680.85 l 1
 97.5703 680.85 l 1
 247 285 l 1
 507.57 680.85 l 1
 524.141 680.85 l 1
 253.57 271 l 1
EndSplineSet
Substitution2: "'c2sc' Capitals to Small Capitals lookup 23 subtable" y.sc
Substitution2: "'aalt' Access All Alternates lookup 0 subtable" y.sc
Position2: "'cpsp' Capital Spacing lookup 0 subtable" dx=5 dy=0 dh=10 dv=0
EndChar

StartChar: Z
Encoding: 90 90 124
Width: 507
GlyphClass: 2
Flags: MW
HStem: 0 14 667.29 13.57
VStem: 6.42 509.58
AnchorPoint: "Anchor-11" 0 0 basechar 0
AnchorPoint: "Anchor-10" 0 0 basechar 0
AnchorPoint: "Anchor-9" 314 681 basechar 0
AnchorPoint: "Anchor-8" 0 0 basechar 0
LayerCount: 2
Fore
SplineSet
514.71 668.14 m 1
 26.5615 13.999 l 1
 407.852 13.999 l 1
 403.991 -0.000976562 l 1
 6.4209 -0.000976562 l 1
 8.14062 13.1387 l 1
 496.28 667.289 l 1
 137.57 667.289 l 1
 139.28 680.859 l 1
 516 680.859 l 1
 514.71 668.14 l 1
EndSplineSet
Substitution2: "'c2sc' Capitals to Small Capitals lookup 23 subtable" z.sc
Substitution2: "'aalt' Access All Alternates lookup 0 subtable" z.sc
Position2: "'cpsp' Capital Spacing lookup 0 subtable" dx=5 dy=0 dh=10 dv=0
EndChar

StartChar: bracketleft
Encoding: 91 91 1007
Width: 311
Flags: MW
HStem: -103.86 11 782.85 11
VStem: 54.29 246.71
LayerCount: 2
Fore
SplineSet
299.14 782.85 m 1
 192 782.85 l 1
 69.4297 -92.8604 l 1
 176.569 -92.8604 l 1
 174.14 -103.86 l 1
 54.29 -103.86 l 1
 181.14 793.85 l 1
 301 793.85 l 1
 299.14 782.85 l 1
EndSplineSet
Substitution2: "'case' Case-Sensitive Forms lookup 25 subtable" bracketleft.case
Substitution2: "'aalt' Access All Alternates lookup 0 subtable" bracketleft.case
EndChar

StartChar: backslash
Encoding: 92 92 981
Width: 520
Flags: MW
HStem: -93.72 889.86
VStem: 212.42 120.72
LayerCount: 2
Fore
SplineSet
333.14 -90.1504 m 1
 319.989 -93.7207 l 1
 212.419 792.569 l 1
 225.569 796.14 l 1
 333.14 -90.1504 l 1
EndSplineSet
EndChar
StartChar: bracketright
Encoding: 93 93 2149
Width: 311
Flags: MW
HStem: -104 11<36 143 36 155 34 143> 783 11<161 266 159 281>
VStem: 34 247
LayerCount: 2
Back
Fore
SplineSet
281 794 m 1
 155 -104 l 1
 34 -104 l 1
 36 -93 l 1
 143 -93 l 1
 266 783 l 1
 159 783 l 1
 161 794 l 1
 281 794 l 1
EndSplineSet
Substitution2: "'case' Case-Sensitive Forms lookup 29 subtable" bracketright.case
Substitution2: "'aalt' Access All Alternates lookup 0 subtable" bracketright.case
EndChar
StartChar: asciicircum
Encoding: 94 94 2389
Width: 526
GlyphClass: 2
Flags: MW
HStem: 803 18<336 336>
VStem: 119 357<527 527>
LayerCount: 2
Back
Fore
SplineSet
345 821 m 1
 476 527 l 1
 459 527 l 1
 336 803 l 1
 137 527 l 1
 119 527 l 1
 334 821 l 1
 345 821 l 1
EndSplineSet
EndChar

StartChar: underscore
Encoding: 95 95 997
Width: 520
Flags: MW
HStem: -94.72 13.15
VStem: -2.72 429
LayerCount: 2
Fore
SplineSet
-1 -81.5703 m 1
 426.28 -81.5703 l 1
 424.57 -94.7207 l 1
 -2.71973 -94.7207 l 1
 -1 -81.5703 l 1
EndSplineSet
EndChar
StartChar: grave
Encoding: 96 96 2524
Width: 239
Flags: MW
HStem: 720 20G<98 98>
VStem: 98 167<666 740>
LayerCount: 2
Back
Fore
SplineSet
106 755 m 1
 265 666 l 1
 259 657 l 1
 98 740 l 1
 106 755 l 1
EndSplineSet
Substitution2: "'case' Case-Sensitive Forms lookup 29 subtable" grave.case
Substitution2: "'smcp' Lowercase to Small Capitals lookup 28 subtable" grave.sc
Substitution2: "'c2sc' Capitals to Small Capitals lookup 27 subtable" grave.sc
AlternateSubs2: "'aalt' Access All Alternates lookup 1 subtable" grave.sc grave.case
EndChar
StartChar: b
Encoding: 98 98 371
Width: 564
GlyphClass: 2
Flags: MW
HStem: -9 13<218 335 218 339.5> 515 13<305 389> 713 20G<202 202>
VStem: 481 14<276.5 397>
AnchorPoint: "Anchor-14" 0 0 basechar 0
AnchorPoint: "Anchor-13" 0 0 basechar 0
AnchorPoint: "Anchor-12" 355 730 basechar 0
AnchorPoint: "Anchor-11" 0 0 basechar 0
AnchorPoint: "Anchor-10" 245 0 basechar 0
LayerCount: 2
Back
Fore
SplineSet
202 733 m 1
 159 430 l 1
 207 487 266 528 344 528 c 0
 443 528 495 461 495 339 c 0
 495 204 432 -9 247 -9 c 0
 187 -9 147 1 89 25 c 1
 188 732 l 1
 202 733 l 1
344 515 m 0
 264 515 211 474 157 412 c 1
 105 34 l 1
 151 14 189 4 247 4 c 0
 423 4 481 213 481 340 c 0
 481 454 434 515 344 515 c 0
EndSplineSet
Substitution2: "'smcp' Lowercase to Small Capitals lookup 28 subtable" b.sc
Substitution2: "'aalt' Access All Alternates lookup 0 subtable" b.sc
EndChar

StartChar: c
Encoding: 99 99 147
Width: 466
GlyphClass: 2
Flags: MW
HStem: -9.42999 13.14 515.57 12.71
VStem: 74 14.42
AnchorPoint: "Anchor-11" 248 -1 basechar 0
AnchorPoint: "Anchor-10" 0 0 basechar 0
AnchorPoint: "Anchor-9" 313 518 basechar 0
AnchorPoint: "Anchor-8" 0 0 basechar 0
LayerCount: 2
Fore
SplineSet
319.43 528.28 m 0
 373.29 528.28 413 511.719 445.71 478.289 c 1
 436.43 469.139 l 1
 406.71 499.999 370 515.569 319.85 515.569 c 0
 177.42 515.569 101.57 378.999 88.4199 231.139 c 0
 74.71 83.709 141.42 3.70898 245.14 3.70898 c 0
 301.569 3.70898 343.999 23.8594 382.569 53.5693 c 1
 389.999 43.5693 l 1
 350.279 11.7197 304.85 -9.43066 246 -9.43066 c 0
 131.43 -9.43066 60.2793 76.1396 73.999 231.14 c 0
 87.709 385.71 167.279 528.28 319.43 528.28 c 0
EndSplineSet
Substitution2: "'smcp' Lowercase to Small Capitals lookup 24 subtable" c.sc
Substitution2: "'aalt' Access All Alternates lookup 0 subtable" c.sc
EndChar

StartChar: d
Encoding: 100 100 153
Width: 573
GlyphClass: 2
Flags: MW
HStem: -9.42999 13.14 -0.00999451 21G 515.56 12.72 713.43 20G
VStem: 75.71 14.43
LayerCount: 2
Fore
SplineSet
519 731.71 m 1xb8
 416.138 -0.00976562 l 1
 404.288 -0.00976562 l 1x78
 421.858 137.42 l 1
 379.139 61.1396 322.229 -9.43066 227.709 -9.43066 c 0
 135.569 -9.43066 75.709 62.709 75.709 186.709 c 0
 75.709 320.999 135.999 528.279 316.709 528.279 c 0
 399.759 528.279 443.579 480.379 463.52 436.199 c 1
 505 733.43 l 1
 519 731.71 l 1xb8
317.138 515.561 m 0
 147.277 515.561 90.1377 316.99 90.1377 187.141 c 0
 90.1377 70.1406 143.857 3.71094 228.138 3.71094 c 0xb8
 321.078 3.71094 376.138 75.7109 425.288 163.561 c 1
 461.138 417.851 l 1
 439.428 468.851 396.848 515.561 317.138 515.561 c 0
EndSplineSet
Substitution2: "'smcp' Lowercase to Small Capitals lookup 24 subtable" d.sc
Substitution2: "'aalt' Access All Alternates lookup 0 subtable" d.sc
EndChar

StartChar: e
Encoding: 101 101 157
Width: 524
GlyphClass: 2
Flags: MW
HStem: -9.42999 13.15 216.05 12.27 515.58 12.7
VStem: 70.71 14.43 454.43 14.42
AnchorPoint: "Anchor-11" 238 0 basechar 0
AnchorPoint: "Anchor-10" 0 0 basechar 0
AnchorPoint: "Anchor-9" 309 518 basechar 0
AnchorPoint: "Anchor-8" 343 8 basechar 0
LayerCount: 2
Fore
SplineSet
468.85 412.28 m 0
 468.85 298.391 341.49 229.508 85.7803 216.048 c 1
 85.3506 208.298 85.1406 200.738 85.1406 193.429 c 0
 85.1406 66.7188 146.141 3.71875 241.99 3.71875 c 0
 305.71 3.71875 348.42 24.2891 399.57 60.999 c 1
 407 50.4287 l 1
 355 11.999 307.43 -9.43066 242 -9.43066 c 0
 135.28 -9.43066 70.71 61.4297 70.71 193 c 0
 70.71 324.57 137.71 528.28 323.28 528.28 c 0
 406.42 528.28 468.85 485.431 468.85 412.28 c 0
323.28 515.577 m 0
 162.66 515.577 97.0518 352.036 86.6514 228.316 c 1
 339.121 242.137 454.431 308.867 454.431 411.857 c 0
 454.431 477.147 400.28 515.577 323.28 515.577 c 0
EndSplineSet
Substitution2: "'smcp' Lowercase to Small Capitals lookup 24 subtable" e.sc
Substitution2: "'aalt' Access All Alternates lookup 0 subtable" e.sc
EndChar

StartChar: f
Encoding: 102 102 167
Width: 304
GlyphClass: 2
Flags: MW
HStem: -193.14 21G 505.57 12.72 723 12.71
VStem: -36.86 457.43
LayerCount: 2
Fore
SplineSet
308.43 723 m 0
 245.72 723 197.86 688.719 187.29 615.858 c 2
 173.63 518.288 l 1
 322 518.288 l 1
 318.57 505.568 l 1
 171.851 505.568 l 1
 101.57 3.56836 l 2
 84.1406 -121.002 47.7109 -154.852 -31.999 -193.142 c 1
 -36.8594 -182.281 l 1
 37.1406 -145.711 71.5703 -112.711 88 4.85938 c 2
 158.05 505.569 l 1
 67.1396 505.569 l 1
 68.8594 518.289 l 1
 159.829 518.289 l 1
 173.719 617.569 l 2
 184.719 694.43 238.289 735.71 309.289 735.71 c 0
 351.569 735.71 386.43 723.14 420.569 699.43 c 1
 413.43 689.43 l 1
 379.859 711.71 349.859 723 308.43 723 c 0
EndSplineSet
Substitution2: "'smcp' Lowercase to Small Capitals lookup 24 subtable" f.sc
Substitution2: "'aalt' Access All Alternates lookup 0 subtable" f.sc
EndChar

StartChar: g
Encoding: 103 103 168
Width: 552
GlyphClass: 2
Flags: MW
HStem: -194.42 12.28 0 13.15 516 12.28
VStem: 71.29 14.43
AnchorPoint: "Anchor-11" 0 0 basechar 0
AnchorPoint: "Anchor-10" 0 0 basechar 0
AnchorPoint: "Anchor-9" 316 518 basechar 0
AnchorPoint: "Anchor-8" 0 0 basechar 0
LayerCount: 2
Fore
SplineSet
331.43 528.28 m 0
 390.859 528.28 431.858 511.001 468.858 487.431 c 1
 396.578 -7.13965 l 2
 375.578 -151.14 300.008 -194.42 209.718 -194.42 c 0
 140.578 -194.42 84.4277 -170.85 47.7178 -148 c 1
 53.8574 -137.43 l 1
 91.0078 -159.859 142.288 -182.14 210.148 -182.14 c 0
 293.429 -182.14 363.289 -141.14 382.569 -8.85938 c 2
 400.999 117.86 l 1
 357.859 41.1406 294.569 0.000976562 227.999 0.000976562 c 0
 128.719 0.000976562 71.7188 81.4307 71.2891 198.001 c 0
 70.8594 335.431 136.859 528.28 331.43 528.28 c 0
331.858 516.001 m 0
 146.858 516.001 85.29 329.722 85.7197 198.432 c 0
 86.1494 88.8613 136.999 13.1514 228.429 13.1514 c 0
 297.858 13.1514 358.578 58.001 404.578 141.861 c 1
 454.858 480.861 l 1
 422.148 502.291 381.288 516.001 331.858 516.001 c 0
EndSplineSet
Substitution2: "'smcp' Lowercase to Small Capitals lookup 24 subtable" g.sc
Substitution2: "'aalt' Access All Alternates lookup 0 subtable" g.sc
EndChar

StartChar: h
Encoding: 104 104 173
Width: 581
GlyphClass: 2
Flags: MW
HStem: -0.00999451 21G 0 21G 515.99 12.29 713.85 20G
VStem: 469.54 14.07
AnchorPoint: "Anchor-11" 250 0 basechar 0
AnchorPoint: "Anchor-10" 0 0 basechar 0
AnchorPoint: "Anchor-9" 339 730 basechar 0
AnchorPoint: "Anchor-8" 0 0 basechar 0
LayerCount: 2
Fore
SplineSet
367.14 528.28 m 0x78
 460.14 528.28 494.57 468.711 480.71 368.431 c 2
 428.71 0.000976562 l 1
 414.71 0.000976562 l 1x78
 466.71 367.571 l 2
 479.71 463.421 449.71 515.991 365.86 515.991 c 0
 279.86 515.991 209.71 450.852 143.43 320.852 c 1
 98.2793 -0.00878906 l 1
 84.2793 -0.00878906 l 1xb8
 187.14 731.711 l 1
 201.14 733.851 l 1
 147.42 349.141 l 1
 209.57 472.141 283.71 528.28 367.14 528.28 c 0x78
EndSplineSet
Substitution2: "'smcp' Lowercase to Small Capitals lookup 24 subtable" h.sc
Substitution2: "'aalt' Access All Alternates lookup 0 subtable" h.sc
EndChar
StartChar: j
Encoding: 106 106 497
Width: 256
GlyphClass: 2
Flags: MW
HStem: -193 21G<-34 -34> 498 20G<158 172 172 172> 688 29<186.5 194.5>
VStem: 176 29<703 703>
AnchorPoint: "Anchor-14" 0 0 basechar 0
AnchorPoint: "Anchor-13" 0 0 basechar 0
AnchorPoint: "Anchor-12" 192 717 basechar 0
AnchorPoint: "Anchor-11" 0 0 basechar 0
AnchorPoint: "Anchor-10" 63 -190 basechar 0
LayerCount: 2
Back
Fore
SplineSet
191 717 m 0
 201 717 205 710 205 702 c 0
 204 694 199 688 190 688 c 0
 180 688 175 695 176 703 c 0
 177 711 182 717 191 717 c 0
172 518 m 1
 99 4 l 2
 82 -121 45 -155 -34 -193 c 1
 -39 -183 l 1
 35 -146 69 -113 86 5 c 2
 158 518 l 1
 172 518 l 1
EndSplineSet
Substitution2: "'smcp' Lowercase to Small Capitals lookup 28 subtable" j.sc
Substitution2: "'aalt' Access All Alternates lookup 0 subtable" j.sc
EndChar

StartChar: k
Encoding: 107 107 191
Width: 507
GlyphClass: 2
Flags: MW
HStem: 0 21G<84.2803 98.2803 84.2803 84.2803 398.57 413.86 398.57 398.57> 516.43 11.85 713.43 20G
VStem: 460.43 14.43
AnchorPoint: "Anchor-11" 234 0 basechar 0
AnchorPoint: "Anchor-10" 0 0 basechar 0
AnchorPoint: "Anchor-9" 0 0 basechar 0
AnchorPoint: "Anchor-8" 0 0 basechar 0
LayerCount: 2
Fore
SplineSet
144.78 331.62 m 1
 206.891 464.15 285.81 528.28 364.72 528.28 c 0
 434 528.28 474.86 488.57 474.86 424 c 0
 474.86 336.28 404.71 278.431 289.71 241.28 c 1
 413.86 0 l 1
 398.57 -0 l 1
 271.721 247.43 l 1
 390.57 284 460.431 338.43 460.431 423.569 c 0
 460.431 478.569 430.431 516.43 363.86 516.43 c 0
 278.87 516.43 202.351 435.439 140.15 299.38 c 1
 98.2803 0 l 1
 84.2803 -0 l 1
 187.141 731.71 l 1
 201.141 733.43 l 1
 144.78 331.62 l 1
EndSplineSet
Substitution2: "'smcp' Lowercase to Small Capitals lookup 24 subtable" k.sc
Substitution2: "'aalt' Access All Alternates lookup 0 subtable" k.sc
EndChar

StartChar: l
Encoding: 108 108 194
Width: 275
GlyphClass: 2
Flags: MW
HStem: -9.42999 12.29 713.43 20G
VStem: 89.14 13.57
AnchorPoint: "Anchor-11" 118 0 basechar 0
AnchorPoint: "Anchor-10" 0 0 basechar 0
AnchorPoint: "Anchor-9" 107 417 basechar 0
AnchorPoint: "Anchor-8" 0 0 basechar 0
LayerCount: 2
Fore
SplineSet
102.71 69.1396 m 2
 97.1396 27.4297 110 2.85938 148.43 2.85938 c 0
 162.43 2.85938 176.569 6.28906 189.569 11.2891 c 1
 192.999 -0.140625 l 1
 179.569 -5.57031 162.859 -9.43066 147.569 -9.43066 c 0
 102.569 -9.43066 81.8594 18.1396 89.1396 70.4297 c 2
 181.71 731.71 l 1
 195.71 733.43 l 1
 102.71 69.1396 l 2
EndSplineSet
Substitution2: "'smcp' Lowercase to Small Capitals lookup 24 subtable" l.sc
Substitution2: "'aalt' Access All Alternates lookup 0 subtable" l.sc
EndChar
StartChar: n
Encoding: 110 110 535
Width: 581
GlyphClass: 2
Flags: MW
HStem: 0 21G<84 98 84 84 415 429 415 415> 498 20G<157 169 169 169> 516 12<326 407.5>
VStem: 469.71 14.1
AnchorPoint: "Anchor-14" 0 0 basechar 0
AnchorPoint: "Anchor-13" 0 0 basechar 0
AnchorPoint: "Anchor-12" 330 518 basechar 0
AnchorPoint: "Anchor-11" 0 0 basechar 0
AnchorPoint: "Anchor-10" 257 0 basechar 0
LayerCount: 2
Back
Fore
SplineSet
369 528 m 0xb0
 457 528 495 469 481 368 c 2
 429 0 l 1
 415 0 l 1
 467 368 l 2
 480 463 447 516 368 516 c 0xb0
 281 516 210 451 143 321 c 1
 98 0 l 1
 84 0 l 1
 157 518 l 1
 169 518 l 1xd0
 147 349 l 1
 210 472 283 528 369 528 c 0xb0
EndSplineSet
Substitution2: "'smcp' Lowercase to Small Capitals lookup 28 subtable" n.sc
Substitution2: "'aalt' Access All Alternates lookup 0 subtable" n.sc
EndChar

StartChar: o
Encoding: 111 111 208
Width: 560
GlyphClass: 2
Flags: MW
HStem: -9.42999 13.14 515.57 12.71
VStem: 70.71 14.43 474.72 14.42
AnchorPoint: "Anchor-11" 0 0 basechar 0
AnchorPoint: "Anchor-10" 0 0 basechar 0
AnchorPoint: "Anchor-9" 317 518 basechar 0
AnchorPoint: "Anchor-8" 0 0 basechar 0
LayerCount: 2
Fore
SplineSet
317.57 528.28 m 0
 425.57 528.28 489.14 456.711 489.14 327.571 c 0
 489.14 197.142 430.29 -9.42871 242.86 -9.42871 c 0
 133.86 -9.42871 70.71 65.4209 70.71 194.141 c 0
 70.71 327.57 132.57 528.28 317.57 528.28 c 0
317.569 515.571 m 0
 141.289 515.571 85.1406 318.851 85.1406 193.711 c 0
 85.1406 72.4209 142.57 3.71094 242.86 3.71094 c 0
 419 3.71094 474.72 201.141 474.72 327.141 c 0
 474.72 448.421 417.72 515.571 317.569 515.571 c 0
EndSplineSet
Substitution2: "Single Substitution lookup 30 subtable" ordmasculine
Substitution2: "'smcp' Lowercase to Small Capitals lookup 24 subtable" o.sc
AlternateSubs2: "'aalt' Access All Alternates lookup 1 subtable" ordmasculine o.sc
EndChar
StartChar: p
Encoding: 112 112 593
Width: 568
GlyphClass: 2
Flags: MW
HStem: -193 21G<57 57> -9 13<218.5 334.5 216.5 339.5> 498 20G<157 169 169 169> 515 13<305 389>
VStem: 480 14<276 396.5>
AnchorPoint: "Anchor-14" 0 0 basechar 0
AnchorPoint: "Anchor-13" 0 0 basechar 0
AnchorPoint: "Anchor-12" 321 518 basechar 0
AnchorPoint: "Anchor-11" 0 0 basechar 0
AnchorPoint: "Anchor-10" 226 -190 basechar 0
LayerCount: 2
Back
Fore
SplineSet
344 528 m 0xd8
 442 528 494 461 494 339 c 0
 494 204 432 -9 247 -9 c 0
 190 -9 143 2 102 21 c 1
 72 -192 l 1
 57 -193 l 1
 157 518 l 1
 169 518 l 1xe8
 159 430 l 1
 208 488 266 528 344 528 c 0xd8
344 515 m 0
 264 515 210 475 157 412 c 1
 104 34 l 1
 141 16 187 4 246 4 c 0
 423 4 480 213 480 339 c 0
 480 454 434 515 344 515 c 0
EndSplineSet
Substitution2: "'smcp' Lowercase to Small Capitals lookup 28 subtable" p.sc
Substitution2: "'aalt' Access All Alternates lookup 0 subtable" p.sc
EndChar

StartChar: q
Encoding: 113 113 222
Width: 554
GlyphClass: 2
Flags: MW
HStem: -193.86 21G -9.42999 13.14 516 12.28
VStem: 70.14 14.43
LayerCount: 2
Fore
SplineSet
331.43 528.28 m 0
 390.859 528.28 431.859 511 468.859 487.43 c 1
 371.859 -191.57 l 1
 358.14 -193.86 l 1
 401.14 106 l 1
 358 31 293.57 -9.42969 227 -9.42969 c 0
 127.71 -9.42969 70.1396 69 70.1396 187.28 c 0
 70.1396 328.57 136.859 528.28 331.43 528.28 c 0
331.859 516 m 0
 146.859 516 84.5693 322.001 84.5693 187.711 c 0
 84.5693 76.4307 135.999 3.71094 227.429 3.71094 c 0
 293.999 3.71094 357.139 45.001 404.289 130.851 c 1
 454.429 480.851 l 1
 421.719 502.28 381.289 516 331.859 516 c 0
EndSplineSet
Substitution2: "'smcp' Lowercase to Small Capitals lookup 24 subtable" q.sc
Substitution2: "'aalt' Access All Alternates lookup 0 subtable" q.sc
EndChar
StartChar: r
Encoding: 114 114 603
Width: 362
GlyphClass: 2
Flags: MW
HStem: 0 21G<84 98 84 84> 498 20G<157 169 169 169> 501 20G<378 378> 516 12<289.5 339>
VStem: 84 294
AnchorPoint: "Anchor-14" 0 0 basechar 0
AnchorPoint: "Anchor-13" 0 0 basechar 0
AnchorPoint: "Anchor-12" 266 518 basechar 0
AnchorPoint: "Anchor-11" 0 0 basechar 0
AnchorPoint: "Anchor-10" 91 0 basechar 0
LayerCount: 2
Back
Fore
SplineSet
331 528 m 0x98
 350 528 366 525 378 521 c 1xa8
 374 509 l 1
 363 513 347 516 331 516 c 0x98
 248 516 195 461 146 334 c 1
 98 0 l 1
 84 0 l 1
 157 518 l 1
 169 518 l 1xc8
 148 366 l 1
 192 479 247 528 331 528 c 0x98
EndSplineSet
Substitution2: "'smcp' Lowercase to Small Capitals lookup 28 subtable" r.sc
Substitution2: "'aalt' Access All Alternates lookup 0 subtable" r.sc
EndChar

StartChar: s
Encoding: 115 115 227
Width: 459
GlyphClass: 2
Flags: MW
HStem: -9.42999 13.14 515.14 13.13
VStem: 92.57 14.43 362.57 14.43
AnchorPoint: "Anchor-11" 193 0 basechar 0
AnchorPoint: "Anchor-10" 0 0 basechar 0
AnchorPoint: "Anchor-9" 268 518 basechar 0
AnchorPoint: "Anchor-8" 0 0 basechar 0
LayerCount: 2
Fore
SplineSet
258.57 528.28 m 0
 321.431 528.28 366.14 510.701 405.14 475.421 c 1
 395.43 465.851 l 1
 358.569 498.99 318.72 515.141 258.569 515.141 c 0
 173.859 515.141 106.999 471.57 106.999 399 c 0
 106.999 346.43 134.569 314.43 236.569 282.14 c 0
 339.72 249.14 377 211.43 377 141 c 0
 377 53.5703 308.57 -9.42969 193.431 -9.42969 c 0
 111.57 -9.42969 63.5703 19 24.29 56.5703 c 1
 33 66.71 l 1
 72.7197 29.1396 116.29 3.70996 192.57 3.70996 c 0
 286.57 3.70996 362.57 49.4297 362.57 140.569 c 0
 362.57 204.43 330.86 237.71 230.431 270.28 c 0
 124.28 304.28 92.5703 340.141 92.5703 398.99 c 0
 92.5703 477.141 166.28 528.28 258.57 528.28 c 0
EndSplineSet
Substitution2: "'smcp' Lowercase to Small Capitals lookup 24 subtable" s.sc
Substitution2: "'aalt' Access All Alternates lookup 0 subtable" s.sc
EndChar

StartChar: t
Encoding: 116 116 234
Width: 323
GlyphClass: 2
Flags: MW
HStem: -9.44 12.72 505.57 12.71
VStem: 91.89 14.02
AnchorPoint: "Anchor-11" 189 0 basechar 0
AnchorPoint: "Anchor-10" 0 0 basechar 0
AnchorPoint: "Anchor-9" 0 0 basechar 0
AnchorPoint: "Anchor-8" 0 0 basechar 0
LayerCount: 2
Fore
SplineSet
108 116 m 2
 97.8496 43.8604 124.569 3.28027 186.85 3.28027 c 0
 224.279 3.28027 254.14 15.2803 282.14 30.8506 c 1
 287.85 19.4209 l 1
 258.71 3.13086 226.56 -9.43945 185.56 -9.43945 c 0
 118.85 -9.43945 82.5596 33.7109 93.9893 115.141 c 2
 148.47 505.57 l 1
 62.1396 505.57 l 1
 63.8496 518.28 l 1
 150.359 518.28 l 1
 171.999 650.57 l 1
 182.999 651.851 l 1
 164.299 518.28 l 1
 308.709 518.28 l 1
 305.279 505.57 l 1
 162.52 505.57 l 1
 108 116 l 2
EndSplineSet
Substitution2: "'smcp' Lowercase to Small Capitals lookup 24 subtable" t.sc
Substitution2: "'aalt' Access All Alternates lookup 0 subtable" t.sc
EndChar
StartChar: u
Encoding: 117 117 657
Width: 575
GlyphClass: 2
Flags: MW
HStem: -9 13<181 263> 0 21G<407 418 407 407> 498 20G<152 166 166 166 477 491 491 491>
VStem: 97.52 14.09
AnchorPoint: "Anchor-14" 0 0 basechar 0
AnchorPoint: "Anchor-13" 501 518 basechar 0
AnchorPoint: "Anchor-12" 321 518 basechar 0
AnchorPoint: "Anchor-11" 428 0 basechar 0
AnchorPoint: "Anchor-10" 250 0 basechar 0
LayerCount: 2
Back
Fore
SplineSet
491 518 m 1xb0
 418 0 l 1
 407 0 l 1x70
 429 165 l 1
 383 57 307 -9 219 -9 c 0
 132 -9 86 46 100 150 c 2
 152 518 l 1
 166 518 l 1
 114 150 l 2
 101 52 142 4 220 4 c 0
 308 4 381 75 431 191 c 1
 477 518 l 1
 491 518 l 1xb0
EndSplineSet
Substitution2: "'smcp' Lowercase to Small Capitals lookup 28 subtable" u.sc
Substitution2: "'aalt' Access All Alternates lookup 0 subtable" u.sc
EndChar
StartChar: v
Encoding: 118 118 686
Width: 442
GlyphClass: 2
Flags: MW
HStem: 0 12<191 191 191 199 180 191> 498 20G<62 77 77 77 437 453 453 453>
VStem: 62 391<518 518>
AnchorPoint: "Anchor-14" 0 0 basechar 0
AnchorPoint: "Anchor-13" 0 0 basechar 0
AnchorPoint: "Anchor-12" 257 518 basechar 0
AnchorPoint: "Anchor-11" 0 0 basechar 0
AnchorPoint: "Anchor-10" 190 0 basechar 0
LayerCount: 2
Back
Fore
SplineSet
453 518 m 1
 199 0 l 1
 180 0 l 1
 62 518 l 1
 77 518 l 1
 191 12 l 1
 437 518 l 1
 453 518 l 1
EndSplineSet
Substitution2: "'smcp' Lowercase to Small Capitals lookup 28 subtable" v.sc
Substitution2: "'aalt' Access All Alternates lookup 0 subtable" v.sc
EndChar

StartChar: w
Encoding: 119 119 251
Width: 677
GlyphClass: 2
Flags: MW
HStem: 0 13.57 503.71 14.57
VStem: 72.14 605.29
AnchorPoint: "Anchor-11" 0 0 basechar 0
AnchorPoint: "Anchor-10" 0 0 basechar 0
AnchorPoint: "Anchor-9" 375 518 basechar 0
AnchorPoint: "Anchor-8" 0 0 basechar 0
LayerCount: 2
Fore
SplineSet
466.57 0 m 1
 448.711 -0 l 1
 373.711 503.71 l 1
 157.711 0 l 1
 138.991 0 l 1
 72.1416 518.28 l 1
 86.1416 518.28 l 1
 150.281 13.5703 l 1
 366.711 518.28 l 1
 384.141 518.28 l 1
 459.141 13.1406 l 1
 663.001 518.28 l 1
 677.431 518.28 l 1
 466.57 0 l 1
EndSplineSet
Substitution2: "'smcp' Lowercase to Small Capitals lookup 24 subtable" w.sc
Substitution2: "'aalt' Access All Alternates lookup 0 subtable" w.sc
EndChar
StartChar: x
Encoding: 120 120 698
Width: 430
GlyphClass: 2
Flags: MW
HStem: 0 21G<-16 0 -16 -16 357 372 357 357> 498 20G<83 99 99 99 403 419 419 419>
VStem: -16 435
AnchorPoint: "Anchor-14" 0 0 basechar 0
AnchorPoint: "Anchor-13" 0 0 basechar 0
AnchorPoint: "Anchor-12" 248 518 basechar 0
AnchorPoint: "Anchor-11" 0 0 basechar 0
AnchorPoint: "Anchor-10" 175 0 basechar 0
LayerCount: 2
Back
Fore
SplineSet
419 518 m 1
 225 278 l 1
 372 0 l 1
 357 0 l 1
 215 269 l 1
 0 0 l 1
 -16 0 l 1
 208 279 l 1
 83 518 l 1
 99 518 l 1
 217 288 l 1
 403 518 l 1
 419 518 l 1
EndSplineSet
Substitution2: "'smcp' Lowercase to Small Capitals lookup 28 subtable" x.sc
Substitution2: "'sups' Superscript lookup 15 subtable" uni02E3
AlternateSubs2: "'aalt' Access All Alternates lookup 1 subtable" uni02E3 x.sc
EndChar

StartChar: y
Encoding: 121 121 257
Width: 440
GlyphClass: 2
Flags: MW
HStem: -192.43 21G 0 10 498.28 20G
VStem: -4.57001 455.28
AnchorPoint: "Anchor-11" 0 0 basechar 0
AnchorPoint: "Anchor-10" 0 0 basechar 0
AnchorPoint: "Anchor-9" 253 518 basechar 0
AnchorPoint: "Anchor-8" 0 0 basechar 0
LayerCount: 2
Fore
SplineSet
199 -1.29004 m 2
 143.57 -114.58 108.149 -161.58 -3.28027 -192.43 c 1
 -4.57031 -181 l 1
 102.72 -150.57 131.72 -106.431 185 0.429688 c 1
 178.29 0 l 1
 62.1396 518.28 l 1
 77 518.28 l 1
 189.71 10 l 1
 435 518.28 l 1
 450.71 518.28 l 1
 199 -1.29004 l 2
EndSplineSet
Substitution2: "'smcp' Lowercase to Small Capitals lookup 24 subtable" y.sc
Substitution2: "'aalt' Access All Alternates lookup 0 subtable" y.sc
EndChar

StartChar: z
Encoding: 122 122 262
Width: 410
GlyphClass: 2
Flags: MW
HStem: 0 13.14 505.14 13.14
VStem: -4 412.57
AnchorPoint: "Anchor-11" 0 0 basechar 0
AnchorPoint: "Anchor-10" 0 0 basechar 0
AnchorPoint: "Anchor-9" 251 518 basechar 0
AnchorPoint: "Anchor-8" 0 0 basechar 0
LayerCount: 2
Fore
SplineSet
406.85 506.43 m 1
 16.999 13.1396 l 1
 328.569 13.1396 l 1
 325.569 0 l 1
 -4.00098 -0 l 1
 -1.86133 11.8496 l 1
 388.429 505.14 l 1
 95.999 505.14 l 1
 97.709 518.279 l 1
 408.569 518.279 l 1
 406.85 506.43 l 1
EndSplineSet
Substitution2: "'smcp' Lowercase to Small Capitals lookup 24 subtable" z.sc
Substitution2: "'aalt' Access All Alternates lookup 0 subtable" z.sc
EndChar
StartChar: braceleft
Encoding: 123 123 2146
Width: 327
Flags: MW
HStem: -116 11<160 186> 342 7 349 7 803 11<289 316>
VStem: 81 16 108 12<-16 -15> 148 12<262 268>
LayerCount: 2
Back
Fore
SplineSet
316 814 m 1xb4
 316 803 l 1
 262 803 232 775 223 712 c 2
 184 435 l 2xb6
 176 378 147 353 97 349 c 1
 144 345 168 320 160 262 c 2xde
 120 -15 l 2
 112 -78 133 -105 187 -105 c 1
 186 -116 l 1
 132 -116 98 -87 108 -16 c 2xb4
 148 268 l 2
 155 321 126 342 80 342 c 1xde
 82 356 l 1
 127 356 163 378 171 430 c 2xbc
 211 715 l 2
 221 786 260 814 316 814 c 1xb4
EndSplineSet
Substitution2: "'case' Case-Sensitive Forms lookup 29 subtable" braceleft.case
Substitution2: "'aalt' Access All Alternates lookup 0 subtable" braceleft.case
EndChar

StartChar: bar
Encoding: 124 124 1218
Width: 416
Flags: MW
HStem: -97.86 898.72
VStem: 151.43 139.43
LayerCount: 2
Fore
SplineSet
165.43 -97.8604 m 1
 151.43 -97.8604 l 1
 276.859 800.859 l 1
 290.859 800.859 l 1
 165.43 -97.8604 l 1
EndSplineSet
EndChar
StartChar: braceright
Encoding: 125 125 2147
Width: 327
Flags: MW
HStem: -116 11<37 63.5 37 64> 342 7 349 7 803 11<166 192.5>
VStem: 193 12<430 436> 232 13<713 714> 255 17
LayerCount: 2
Back
Fore
SplineSet
36 -116 m 1xd4
 37 -105 l 1
 90 -105 120 -77 129 -14 c 2
 168 263 l 2xdc
 176 320 205 345 255 349 c 1
 208 353 184 378 193 436 c 2xbe
 232 713 l 2
 240 776 219 803 166 803 c 1
 166 814 l 1
 221 814 254 785 245 714 c 2xd4
 205 430 l 2
 197 377 226 356 273 356 c 1xbe
 271 342 l 1
 225 342 189 320 181 268 c 2xd6
 142 -17 l 2
 132 -88 92 -116 36 -116 c 1xd4
EndSplineSet
Substitution2: "'case' Case-Sensitive Forms lookup 29 subtable" braceright.case
Substitution2: "'aalt' Access All Alternates lookup 0 subtable" braceright.case
EndChar
StartChar: asciitilde
Encoding: 126 126 2247
Width: 456
GlyphClass: 2
Flags: MW
HStem: 284 14<283 322.5 283 324.5> 339 14<151 191.5>
VStem: 83 307<303 335>
LayerCount: 2
Back
Fore
SplineSet
306 284 m 0
 256 284 215 339 168 339 c 0
 134 339 113 320 92 296 c 1
 83 303 l 1
 105 331 131 353 168 353 c 0
 221 353 260 298 306 298 c 0
 339 298 360 317 381 341 c 1
 390 335 l 1
 368 307 343 284 306 284 c 0
EndSplineSet
Substitution2: "'onum' Oldstyle Figures lookup 26 subtable" asciitilde.osf
Substitution2: "'tnum' Tabular Numbers lookup 25 subtable" asciitilde.tf
AlternateSubs2: "'aalt' Access All Alternates lookup 1 subtable" asciitilde.tf asciitilde.osf
EndChar

StartChar: exclamdown
Encoding: 161 161 988
Width: 236
Flags: MW
HStem: -190.15 21G 413.28 33.29
VStem: 127 33.71
LayerCount: 2
Fore
SplineSet
144.71 446.57 m 0
 154.71 446.57 160.71 439.71 160.71 430.57 c 0
 160.71 420.57 153.43 413.28 143 413.28 c 0
 133.43 413.28 127 420.141 127 428.851 c 0
 127 439.28 134.71 446.57 144.71 446.57 c 0
63.2803 -190.149 m 1
 49.71 -190.149 l 1
 112.71 252.711 l 1
 126.28 252.711 l 1
 63.2803 -190.149 l 1
EndSplineSet
Substitution2: "'case' Case-Sensitive Forms lookup 25 subtable" exclamdown.case
Substitution2: "'aalt' Access All Alternates lookup 0 subtable" exclamdown.case
EndChar

StartChar: sterling
Encoding: 163 163 1067
Width: 498
Flags: MW
HStem: 0 13.57 347.57 13.14 658.57 13.14
VStem: 29.28 456.14
LayerCount: 2
Fore
SplineSet
354.57 671.71 m 0
 415.57 671.71 455.419 648.85 485.419 606.85 c 1
 474.849 599 l 1
 447.559 637.43 412.129 658.569 354.559 658.569 c 0
 261.849 658.569 207.988 591.43 195.418 504.71 c 2
 175.328 360.71 l 1
 388.568 360.71 l 1
 386.849 347.57 l 1
 173.658 347.57 l 1
 143.139 128.71 l 2
 133.709 62.2803 106.989 35.8506 53.1396 13.5703 c 1
 395.14 13.5703 l 1
 391.279 0 l 1
 29.2793 -0 l 1
 30.5693 13.1396 l 1
 91.1396 38 120.14 64.2803 129.14 128.71 c 2
 159.8 347.57 l 1
 99.1396 347.57 l 1
 100.85 360.71 l 1
 161.479 360.71 l 1
 181.85 506 l 2
 194.85 598.43 253 671.71 354.57 671.71 c 0
EndSplineSet
Substitution2: "'onum' Oldstyle Figures lookup 22 subtable" sterling.osf
Substitution2: "'tnum' Tabular Numbers lookup 21 subtable" sterling.tf
AlternateSubs2: "'aalt' Access All Alternates lookup 1 subtable" sterling.tf sterling.osf
EndChar

StartChar: yen
Encoding: 165 165 1068
Width: 479
Flags: MW
HStem: 0 21G 174.57 13.57 311.42 13.15
VStem: 78.85 433.15
LayerCount: 2
Fore
SplineSet
262.46 324.57 m 1
 388.85 324.57 l 1
 387.13 311.42 l 1
 254.67 311.42 l 1
 237.439 188.14 l 1
 369.42 188.14 l 1
 367.7 174.569 l 1
 235.54 174.569 l 1
 211.13 -0.000976562 l 1
 196.7 -0.000976562 l 1
 221.08 174.569 l 1
 90.7002 174.569 l 1
 92.4199 188.14 l 1
 222.97 188.14 l 1
 240.189 311.42 l 1
 110.14 311.42 l 1
 111.85 324.57 l 1
 236.29 324.57 l 1
 78.8496 660.851 l 1
 96 660.851 l 1
 249 326.141 l 1
 495.28 660.851 l 1
 512 660.851 l 1
 262.46 324.57 l 1
EndSplineSet
Substitution2: "'onum' Oldstyle Figures lookup 22 subtable" yen.osf
Substitution2: "'tnum' Tabular Numbers lookup 21 subtable" yen.tf
AlternateSubs2: "'aalt' Access All Alternates lookup 1 subtable" yen.tf yen.osf
EndChar
StartChar: brokenbar
Encoding: 166 166 2377
Width: 416
GlyphClass: 2
Flags: MW
HStem: -98 899<152 291 152 291>
VStem: 152 139
LayerCount: 2
Back
Fore
SplineSet
291 801 m 1
 241 443 l 1
 227 443 l 1
 277 801 l 1
 291 801 l 1
215 262 m 1
 166 -98 l 1
 152 -98 l 1
 201 262 l 1
 215 262 l 1
EndSplineSet
EndChar

StartChar: dieresis
Encoding: 168 168 1257
Width: 248
Flags: MW
HStem: 675.14 28.29
VStem: 90.43 28.72 249.3 28.71
AnchorPoint: "Anchor-12" 176 621 basemark 0
LayerCount: 2
Fore
SplineSet
105.43 703.43 m 0
 115 703.43 120.009 696.569 119.148 688.43 c 0
 118.299 681.14 112.869 675.14 104.149 675.14 c 0
 95.0098 675.14 89.5801 682 90.4297 690.14 c 0
 91.29 697.43 97.1396 703.43 105.43 703.43 c 0
264.719 703.43 m 0
 273.869 703.43 278.868 696.569 278.008 688.43 c 0
 277.158 681.14 271.729 675.14 263.438 675.14 c 0
 253.868 675.14 248.438 682 249.299 690.14 c 0
 250.148 697.43 256.009 703.43 264.719 703.43 c 0
EndSplineSet
Substitution2: "'case' Case-Sensitive Forms lookup 25 subtable" dieresis.case
Substitution2: "'smcp' Lowercase to Small Capitals lookup 24 subtable" dieresis.sc
Substitution2: "'c2sc' Capitals to Small Capitals lookup 23 subtable" dieresis.sc
AlternateSubs2: "'aalt' Access All Alternates lookup 1 subtable" dieresis.sc dieresis.case
EndChar
StartChar: ordfeminine
Encoding: 170 170 1056
Width: 500
GlyphClass: 2
Flags: MW
HStem: 0 14<54 377 56 374> 277 13<191 252.5> 502 13<292 293 293 386> 668 13<284.5 338>
VStem: 112 14<351.5 413.5 351.5 420.5> 367 10.58 396 14<587.5 615>
LayerCount: 2
Back
Fore
SplineSet
303 681 m 0
 379 681 410 649 410 592 c 0
 410 583 409 573 408 563 c 2xfe
 381 368 l 2
 376 329 371 300 408 287 c 1
 404 277 l 1
 366 288 364 316 367 354 c 1xfc
 330 304 284 277 221 277 c 0
 151 277 112 319 112 377 c 0
 112 464 185 515 292 515 c 2
 388 515 l 1
 394 563 l 2
 395 573 396 581 396 590 c 0
 396 640 373 668 303 668 c 0
 266 668 228 659 184 644 c 1
 181 656 l 1
 225 672 264 681 303 681 c 0
386 502 m 1
 293 502 l 2
 181 502 126 450 126 377 c 0
 126 326 161 290 221 290 c 0
 288 290 333 322 368 374 c 1
 386 502 l 1
54 0 m 1xfc
 56 14 l 1
 377 14 l 1
 374 0 l 1
 54 0 l 1xfc
EndSplineSet
EndChar
StartChar: guillemotleft
Encoding: 171 171 2177
Width: 528
Flags: MW
HStem: 77 423<301 358 316 358>
VStem: 181 202
LayerCount: 2
Back
Fore
SplineSet
383 493 m 1
 213 288 l 1
 326 84 l 1
 316 77 l 1
 289 123 l 1
 311 84 l 1
 301 77 l 1
 181 283 l 1
 182 293 l 1
 358 500 l 1
 368 493 l 1
 367 492 l 1
 374 500 l 1
 383 493 l 1
EndSplineSet
Substitution2: "'case' Case-Sensitive Forms lookup 29 subtable" guillemotleft.case
Substitution2: "'aalt' Access All Alternates lookup 0 subtable" guillemotleft.case
EndChar
StartChar: logicalnot
Encoding: 172 172 2263
Width: 493
GlyphClass: 2
Flags: MW
HStem: 314 13<91 405 89 422>
VStem: 89 333<314 327>
LayerCount: 2
Back
Fore
SplineSet
422 327 m 1
 404 205 l 1
 389 205 l 1
 405 314 l 1
 89 314 l 1
 91 327 l 1
 422 327 l 1
EndSplineSet
Substitution2: "'onum' Oldstyle Figures lookup 26 subtable" logicalnot.osf
Substitution2: "'tnum' Tabular Numbers lookup 25 subtable" logicalnot.tf
AlternateSubs2: "'aalt' Access All Alternates lookup 1 subtable" logicalnot.tf logicalnot.osf
EndChar

StartChar: softhyphen
Encoding: 173 173 1028
Width: 400
Flags: MW
HStem: 305.85 13.15
VStem: 87.43 239.86
LayerCount: 2
Fore
SplineSet
89.1396 319 m 1
 327.289 319 l 1
 325.569 305.85 l 1
 87.4297 305.85 l 1
 89.1396 319 l 1
EndSplineSet
Substitution2: "'case' Case-Sensitive Forms lookup 25 subtable" softhyphen.case
Substitution2: "'aalt' Access All Alternates lookup 0 subtable" softhyphen.case
EndChar

StartChar: registered
Encoding: 174 174 1224
Width: 636
Flags: MW
HStem: 284.56 12.29 490.28 12.29 625.43 12.71 703.99 12.29
VStem: 101.43 13.13 246.99 14 388.99 14 521.13 13.15
LayerCount: 2
Fore
SplineSet
317.85 716.28 m 0
 444.71 716.28 534.28 624.14 534.28 502.71 c 0
 534.28 382.99 450.42 284.561 317.85 284.561 c 0
 191 284.561 101.43 376.711 101.43 498.141 c 0
 101.43 617.851 185.279 716.28 317.85 716.28 c 0
317.85 296.85 m 0
 442.699 296.85 521.129 389.71 521.129 502.71 c 0
 521.129 616.56 438.279 703.989 317.85 703.989 c 0
 192.989 703.989 114.56 611.14 114.56 498.14 c 0
 114.56 384.279 198.71 296.85 317.85 296.85 c 0
402.989 562.569 m 0
 402.989 518.859 375.368 497.629 339.229 491.459 c 1
 413.278 369.709 l 1
 396.278 369.709 l 1
 324.929 490.279 l 1
 260.988 490.279 l 1
 260.988 370.279 l 1
 246.988 370.279 l 1
 246.988 638.14 l 1
 305.559 638.14 l 2
 368.419 638.14 402.989 613.85 402.989 562.569 c 0
321.848 502.569 m 2
 360.418 502.569 388.987 520.289 388.987 562.569 c 0
 388.987 607.569 358.987 625.43 307.707 625.43 c 2
 260.987 625.43 l 1
 260.987 502.569 l 1
 321.848 502.569 l 2
EndSplineSet
EndChar

StartChar: macron
Encoding: 175 175 1261
Width: 260
Flags: MW
HStem: 686.43 13.57
VStem: 89.57 202.43
LayerCount: 2
Fore
SplineSet
89.5703 686.43 m 1
 91.7109 700 l 1
 292.001 700 l 1
 289.851 686.43 l 1
 89.5703 686.43 l 1
EndSplineSet
Substitution2: "'case' Case-Sensitive Forms lookup 25 subtable" macron.case
Substitution2: "'smcp' Lowercase to Small Capitals lookup 24 subtable" macron.sc
Substitution2: "'c2sc' Capitals to Small Capitals lookup 23 subtable" macron.sc
AlternateSubs2: "'aalt' Access All Alternates lookup 1 subtable" macron.sc macron.case
EndChar
StartChar: degree
Encoding: 176 176 2385
Width: 520
GlyphClass: 2
Flags: MW
HStem: 415 13<209.5 280 209.5 282> 678 13<245 315.5>
VStem: 378 14<553 553>
LayerCount: 2
Back
Fore
SplineSet
243 415 m 0
 170 415 118 470 130 554 c 0
 141 634 207 691 279 691 c 0
 359 691 404 634 392 552 c 0
 382 470 321 415 243 415 c 0
243 428 m 0
 317 428 369 480 378 553 c 0
 388 626 352 678 279 678 c 0
 211 678 154 625 144 553 c 0
 134 479 176 428 243 428 c 0
EndSplineSet
Substitution2: "'onum' Oldstyle Figures lookup 26 subtable" degree.osf
Substitution2: "'tnum' Tabular Numbers lookup 25 subtable" degree.tf
AlternateSubs2: "'aalt' Access All Alternates lookup 1 subtable" degree.tf degree.osf
EndChar

StartChar: plusminus
Encoding: 177 177 1117
Width: 484
Flags: MW
HStem: 0 13.57 324 13.57
VStem: 44.71 369.43
LayerCount: 2
Fore
SplineSet
261.14 337.57 m 1
 414.14 337.57 l 1
 411.85 324 l 1
 258.85 324 l 1
 236.85 168.85 l 1
 222.42 168.85 l 1
 244.42 324 l 1
 90.9902 324 l 1
 93.2803 337.57 l 1
 246.71 337.57 l 1
 268.14 492.71 l 1
 282.569 492.71 l 1
 261.14 337.57 l 1
47 13.5703 m 1
 367.851 13.5703 l 1
 365.57 0 l 1
 44.71 0 l 1
 47 13.5703 l 1
EndSplineSet
Substitution2: "'onum' Oldstyle Figures lookup 22 subtable" plusminus.osf
Substitution2: "'tnum' Tabular Numbers lookup 21 subtable" plusminus.tf
AlternateSubs2: "'aalt' Access All Alternates lookup 1 subtable" plusminus.tf plusminus.osf
EndChar

StartChar: twosuperior
Encoding: 178 178 972
Width: 400
Flags: MW
HStem: 320.15 12.93 661.29 20G<106 106> 723.43 12.71
VStem: 307.71 14.42
LayerCount: 2
Fore
SplineSet
228.28 736.14 m 0
 297.851 736.14 330.131 688.15 322.131 629.58 c 0
 310.131 544.58 258.98 501.43 77.1309 332.859 c 1
 291.271 333.289 l 1
 286.99 320.149 l 1
 57.4199 320.149 l 1
 58.7002 333.289 l 1
 249.851 510.289 296.561 551.149 307.711 630.43 c 0
 315.281 683.72 287.421 723.43 227.851 723.43 c 0
 181.57 723.43 147.141 704 116.57 673 c 1
 106 681.29 l 1
 143.43 718.29 180.71 736.14 228.28 736.14 c 0
EndSplineSet
EndChar
StartChar: uni00B2
Encoding: 178 178 2110
Width: 400
Flags: MW
HStem: 320 13<58 58 77 287 57 58> 661 20G<106 106> 723 13<204 257>
VStem: 307 15<630 630>
LayerCount: 2
Back
Fore
SplineSet
228 736 m 0
 297 736 330 688 322 629 c 0
 310 544 259 501 77 333 c 1
 291 333 l 1
 287 320 l 1
 57 320 l 1
 58 333 l 1
 249 510 296 551 307 630 c 0
 315 684 287 723 227 723 c 0
 181 723 147 704 116 673 c 1
 106 681 l 1
 143 718 180 736 228 736 c 0
EndSplineSet
EndChar

StartChar: threesuperior
Encoding: 179 179 973
Width: 400
Flags: MW
HStem: 313.71 12.72 532.14 12.29 673 20G<114.43 114.43> 724.71 12.71
VStem: 295.72 13.57 312.58 14
LayerCount: 2
Fore
SplineSet
231.14 737.43 m 0
 298.279 737.43 334.578 695.57 326.578 636.42 c 0xf4
 318.008 576.14 272.718 544.42 223.008 539.14 c 1
 278.008 536.569 319.288 502.419 309.288 431.989 c 0
 299.858 362.14 243.009 313.71 167.289 313.71 c 0
 116.859 313.71 84.1494 330.85 57.2891 366 c 1
 67.4395 372.57 l 1
 94.2891 338.28 124.289 326.431 166.859 326.431 c 0
 241.72 326.431 287.72 375.001 295.72 433.281 c 0
 304.72 500.711 267.149 532.141 200.149 532.141 c 2xf8
 175.579 532.141 l 1
 179.009 544.431 l 1
 200.438 544.431 l 2
 249.009 544.431 303.579 572.86 312.579 637.71 c 0
 320.149 690.28 289.149 724.71 231.149 724.71 c 0
 191.579 724.71 158.579 713 121.859 683.28 c 1
 114.43 693 l 1
 151.29 723.14 185.29 737.43 231.14 737.43 c 0
EndSplineSet
EndChar
StartChar: uni00B3
Encoding: 179 179 2111
Width: 400
Flags: MW
HStem: 314 12<145 203.5 145 205> 532 12<179 200 179 200 175 200> 673 20G<114 114> 725 12<211 260>
VStem: 295 14<433 433> 312 14
LayerCount: 2
Back
Fore
SplineSet
231 737 m 0
 298 737 334 695 326 636 c 0xf4
 318 576 272 544 223 539 c 1
 278 536 319 502 309 432 c 0
 299 362 243 314 167 314 c 0
 116 314 84 331 57 366 c 1
 67 372 l 1
 94 338 124 326 166 326 c 0
 241 326 287 375 295 433 c 0
 304 501 267 532 200 532 c 2xf8
 175 532 l 1
 179 544 l 1
 200 544 l 2
 249 544 303 573 312 638 c 0
 320 690 289 725 231 725 c 0
 191 725 158 713 121 683 c 1
 114 693 l 1
 151 723 185 737 231 737 c 0
EndSplineSet
EndChar

StartChar: acute
Encoding: 180 180 1252
Width: 240
Flags: MW
HStem: 657.28 97.72
VStem: 87.42 188.86
LayerCount: 2
Fore
SplineSet
276.28 740.14 m 1
 90.8496 657.279 l 1
 87.4199 667.43 l 1
 271.42 755 l 1
 276.28 740.14 l 1
EndSplineSet
Substitution2: "'case' Case-Sensitive Forms lookup 25 subtable" acute.case
Substitution2: "'smcp' Lowercase to Small Capitals lookup 24 subtable" acute.sc
Substitution2: "'c2sc' Capitals to Small Capitals lookup 23 subtable" acute.sc
Substitution2: "'locl' Localized Forms in Latin lookup 7 subtable" acute.loclPLK
AlternateSubs2: "'aalt' Access All Alternates lookup 1 subtable" acute.loclPLK acute.sc acute.case
EndChar

StartChar: paragraph
Encoding: 182 182 1222
Width: 685
Flags: MW
HStem: -193.87 21G -193.86 21G 668 13.43
VStem: 152.06 414.51
LayerCount: 2
Fore
SplineSet
566.57 681.43 m 1x70
 444.141 -191.299 l 1
 429.711 -193.869 l 1xb0
 550.851 668.281 l 1
 406.28 667.711 l 1
 285.57 -191.289 l 1
 271.141 -193.859 l 1
 342.001 308.62 l 1
 183.711 311.12 140.771 397.03 154.431 495.57 c 0
 170.86 613.42 263.57 680.42 395.431 680.42 c 1
 394.94 676.51 l 1
 395.851 680.43 l 1
 566.57 681.43 l 1x70
EndSplineSet
EndChar

StartChar: periodcentered
Encoding: 183 183 982
Width: 146
Flags: MW
HStem: 310.86 33.28
VStem: 64.14 33.71
LayerCount: 2
Fore
SplineSet
81.8496 344.14 m 0
 91.8496 344.14 97.8496 337.291 97.8496 328.141 c 0
 97.8496 318.141 90.5693 310.86 80.1396 310.86 c 0
 70.5693 310.86 64.1396 317.71 64.1396 326.43 c 0
 64.1396 336.859 71.8496 344.14 81.8496 344.14 c 0
EndSplineSet
EndChar
StartChar: cedilla
Encoding: 184 184 2520
Width: 203
Flags: MW
HStem: -208 13<18 54.5 18 57> -88 10
VStem: 103 15<-139 -121>
LayerCount: 2
Back
Fore
SplineSet
49 3 m 1
 34 -78 l 1
 89 -80 118 -97 118 -138 c 0
 118 -178 83 -208 31 -208 c 0
 0 -208 -18 -201 -33 -191 c 1
 -27 -180 l 1
 -13 -189 5 -195 31 -195 c 0
 78 -195 102 -169 103 -139 c 0
 103 -103 78 -89 20 -88 c 1
 38 3 l 1
 49 3 l 1
EndSplineSet
Substitution2: "'case' Case-Sensitive Forms lookup 29 subtable" cedilla.case
Substitution2: "'smcp' Lowercase to Small Capitals lookup 28 subtable" cedilla.sc
Substitution2: "'c2sc' Capitals to Small Capitals lookup 27 subtable" cedilla.sc
AlternateSubs2: "'aalt' Access All Alternates lookup 1 subtable" cedilla.sc cedilla.case
EndChar

StartChar: onesuperior
Encoding: 185 185 971
Width: 400
Flags: MW
HStem: 713.86 16.14
VStem: 139.14 143.86
LayerCount: 2
Fore
SplineSet
225.57 320.14 m 1
 212 320.14 l 1
 267.29 713.859 l 1
 145.29 646.14 l 1
 139.14 656.71 l 1
 272 730 l 1
 283 730 l 1
 225.57 320.14 l 1
EndSplineSet
EndChar
StartChar: uni00B9
Encoding: 185 185 2109
Width: 400
Flags: MW
HStem: 714 16<268 283>
VStem: 140 143<657 730>
LayerCount: 2
Back
Fore
SplineSet
283 730 m 1
 226 320 l 1
 212 320 l 1
 268 714 l 1
 146 646 l 1
 140 657 l 1
 272 730 l 1
 283 730 l 1
EndSplineSet
EndChar
StartChar: ordmasculine
Encoding: 186 186 1057
Width: 500
GlyphClass: 2
Flags: MW
HStem: 0 14<53 377 56 374> 277 13<212 322.5 212 326> 668 13<239 348>
VStem: 112 14<387 480 387 483.5> 434 14<483 573>
LayerCount: 2
Back
Fore
SplineSet
308 681 m 0
 396 681 448 626 448 527 c 0
 448 428 400 277 252 277 c 0
 163 277 112 334 112 433 c 0
 112 534 162 681 308 681 c 0
308 668 m 0
 170 668 126 527 126 433 c 0
 126 341 172 290 252 290 c 0
 393 290 434 438 434 528 c 0
 434 618 388 668 308 668 c 0
53 0 m 1
 56 14 l 1
 377 14 l 1
 374 0 l 1
 53 0 l 1
EndSplineSet
EndChar

StartChar: guillemotright
Encoding: 187 187 1037
Width: 520
Flags: MW
HStem: 77.41 422.16
VStem: 238.85 16.15 413.56 16.15
LayerCount: 2
Fore
SplineSet
255.43 292.85 m 1
 254.57 283.13 l 1
 77.8506 77.4199 l 1
 68.5703 83.5596 l 1
 238.851 287.989 l 1
 126.57 493.419 l 1
 136.71 499.569 l 1
 255.43 292.85 l 1
430.141 292.84 m 1
 429.281 283.12 l 1
 252.562 77.4102 l 1
 243.281 83.5498 l 1
 413.562 287.979 l 1
 301.281 493.409 l 1
 311.421 499.56 l 1
 430.141 292.84 l 1
EndSplineSet
Substitution2: "'case' Case-Sensitive Forms lookup 25 subtable" guillemotright.case
Substitution2: "'aalt' Access All Alternates lookup 0 subtable" guillemotright.case
EndChar

StartChar: onequarter
Encoding: 188 188 928
Width: 884
Flags: MW
HStem: 0 128.57 115.86 12.71 664.71 16.14 713 20G<717.57 717.57> 718.14 20G
VStem: 530.93 15.5
LayerCount: 2
Fore
SplineSet
717.57 733 m 1x74
 199.42 -66.1504 l 1
 188.42 -61 l 1
 706.57 738.14 l 1
 717.57 733 l 1x74
187.85 271 m 1
 243.14 664.709 l 1
 121.14 596.999 l 1
 115 607.569 l 1
 247.85 680.85 l 1
 258.85 680.85 l 1
 201.42 271 l 1
 187.85 271 l 1
797 115.859 m 1
 737.011 115.859 l 1x6c
 720.721 -0.000976562 l 1
 707.15 -0.000976562 l 1xac
 723.7 115.859 l 1
 530.29 115.859 l 1
 531.58 127.43 l 1
 706.58 417.279 l 1
 718 412.43 l 1
 546.43 128.569 l 1
 725.54 128.569 l 1
 745.29 258.999 l 1
 757.14 258.999 l 1
 738.8 128.569 l 1
 798.71 128.569 l 1
 797 115.859 l 1
EndSplineSet
EndChar
StartChar: onehalf
Encoding: 189 189 2063
Width: 884
Flags: MW
HStem: 0 13<534 534 553 763 533 534> 403 13<680 733> 665 16<243 258> 713 20G<718 718> 718 20G<707 707>
VStem: 783 15<310 310>
LayerCount: 2
Back
Fore
SplineSet
707 738 m 1xec
 718 733 l 1xf4
 199 -66 l 1
 188 -61 l 1
 707 738 l 1xec
258 681 m 1
 201 271 l 1
 187 271 l 1
 243 665 l 1
 121 597 l 1
 115 608 l 1
 247 681 l 1
 258 681 l 1
704 416 m 0
 773 416 806 368 798 309 c 0
 786 224 735 181 553 13 c 1
 767 13 l 1
 763 0 l 1
 533 0 l 1
 534 13 l 1
 725 190 772 231 783 310 c 0
 791 364 763 403 703 403 c 0
 657 403 623 384 592 353 c 1
 582 361 l 1
 619 398 656 416 704 416 c 0
EndSplineSet
EndChar

StartChar: threequarters
Encoding: 190 190 929
Width: 884
Flags: MW
HStem: 0 128.57 115.85 12.71 264.56 12.72 483 12.28 675.57 12.71 713 20G<717.57 717.57> 718.14 20G
VStem: 288.72 13.56 305.58 13.99 530.94 15.5
LayerCount: 2
Fore
SplineSet
717.57 733 m 1x7d
 199.42 -66.1504 l 1
 188.42 -61 l 1
 706.57 738.14 l 1
 717.57 733 l 1x7d
302.28 382.85 m 0
 292.851 312.989 236.01 264.56 160.29 264.56 c 0
 109.86 264.56 77.1504 281.71 50.29 316.85 c 1
 60.4404 323.42 l 1
 87.29 289.14 117.29 277.279 159.86 277.279 c 0
 234.721 277.279 280.721 325.85 288.721 384.14 c 0
 297.721 451.569 260.15 482.999 193.15 482.999 c 2x7b
 168.58 482.999 l 1
 172.01 495.279 l 1
 193.439 495.279 l 2
 242.01 495.279 296.58 523.709 305.58 588.569 c 0
 313.15 641.14 282.15 675.569 224.15 675.569 c 0
 184.58 675.569 151.58 663.85 114.86 634.14 c 1
 107.431 643.85 l 1
 144.291 674 178.291 688.28 224.141 688.28 c 0
 291.28 688.28 327.57 646.431 319.57 587.28 c 0x7a80
 311 527 265.71 495.28 216 490 c 1
 271 487.43 312.28 453.279 302.28 382.85 c 0
797.009 115.85 m 1x7ac0
 737.02 115.85 l 1x7a80
 720.729 -0.0107422 l 1
 707.159 -0.0107422 l 1xba80
 723.709 115.85 l 1
 530.299 115.85 l 1
 531.589 127.42 l 1
 706.589 417.27 l 1
 718.009 412.42 l 1
 546.438 128.56 l 1
 725.549 128.56 l 1
 745.299 258.989 l 1
 757.148 258.989 l 1
 738.809 128.56 l 1
 798.719 128.56 l 1
 797.009 115.85 l 1x7ac0
EndSplineSet
EndChar

StartChar: questiondown
Encoding: 191 191 992
Width: 444
Flags: MW
HStem: -196.14 12.71 469 33.28
VStem: 17.14 14.43 235.85 33.72 241.99 14
LayerCount: 2
Fore
SplineSet
251.85 469 m 0xf0
 241.85 469 235.85 475.849 235.85 484.999 c 0
 235.85 494.999 243.14 502.279 253.569 502.279 c 0
 263.14 502.279 269.569 495.43 269.569 486.71 c 0
 269.569 476.28 261.85 469 251.85 469 c 0xf0
145.71 -196.141 m 0
 61.9902 -196.141 17.1406 -143.859 17.1406 -83.2891 c 0
 17.1406 93.1406 243.141 83.8604 241.99 225.57 c 0
 241.99 245.86 237.99 264.141 233.28 280.57 c 1
 245.99 283.57 l 1
 251.99 264.57 255.99 244.57 255.99 225.57 c 0xa8
 257.141 76 31.5703 85.29 31.5703 -82.8604 c 0
 31.5703 -137.86 72 -183.431 145.71 -183.431 c 0
 215.14 -183.431 261.71 -158.001 316.71 -106.001 c 1
 326.43 -114.711 l 1
 269.279 -169.711 217.85 -196.141 145.71 -196.141 c 0
EndSplineSet
Substitution2: "'case' Case-Sensitive Forms lookup 25 subtable" questiondown.case
Substitution2: "'aalt' Access All Alternates lookup 0 subtable" questiondown.case
EndChar

StartChar: Agrave
Encoding: 192 192 6
Width: 557
GlyphClass: 2
Flags: MW
HStem: 0 21G 207 13.57 667.86 13
VStem: -6.14 495.85
AnchorPoint: "Anchor-11" 0 0 basechar 0
AnchorPoint: "Anchor-10" 198 518 basechar 0
AnchorPoint: "Anchor-9" 337 681 basechar 0
AnchorPoint: "Anchor-8" 500 0 basechar 0
LayerCount: 2
Fore
SplineSet
434.71 766.71 m 1
 270.859 838.721 l 1
 280.43 853.57 l 1
 440.43 776.86 l 1
 434.71 766.71 l 1
431.689 207.001 m 1
 110.619 207.001 l 1
 9.56934 0.000976562 l 1
 -6.14062 0.000976562 l 1
 328.709 680.861 l 1
 345.569 680.861 l 1
 489.709 0.000976562 l 1
 474.859 0.000976562 l 1
 431.689 207.001 l 1
428.859 220.571 m 1
 335.579 667.861 l 1
 117.239 220.571 l 1
 428.859 220.571 l 1
EndSplineSet
Substitution2: "'c2sc' Capitals to Small Capitals lookup 23 subtable" agrave.sc
Substitution2: "'aalt' Access All Alternates lookup 0 subtable" agrave.sc
Position2: "'cpsp' Capital Spacing lookup 0 subtable" dx=5 dy=0 dh=10 dv=0
EndChar

StartChar: Aacute
Encoding: 193 193 2
Width: 557
GlyphClass: 2
Flags: MW
HStem: 0 21G 207 13.57 667.85 13
VStem: -6.14999 495.86
AnchorPoint: "Anchor-11" 0 0 basechar 0
AnchorPoint: "Anchor-10" 198 518 basechar 0
AnchorPoint: "Anchor-9" 337 681 basechar 0
AnchorPoint: "Anchor-8" 500 0 basechar 0
LayerCount: 2
Fore
SplineSet
265.43 766.71 m 1
 262.28 776.851 l 1
 443.71 853.57 l 1
 449 838.71 l 1
 265.43 766.71 l 1
431.681 207.001 m 1
 110.61 207.001 l 1
 9.57031 0.000976562 l 1
 -6.14941 0.000976562 l 1
 328.711 680.851 l 1
 345.561 680.851 l 1
 489.711 0.000976562 l 1
 474.851 0.000976562 l 1
 431.681 207.001 l 1
428.851 220.571 m 1
 335.57 667.852 l 1
 117.24 220.571 l 1
 428.851 220.571 l 1
EndSplineSet
Substitution2: "'c2sc' Capitals to Small Capitals lookup 23 subtable" aacute.sc
Substitution2: "'aalt' Access All Alternates lookup 0 subtable" aacute.sc
Position2: "'cpsp' Capital Spacing lookup 0 subtable" dx=5 dy=0 dh=10 dv=0
EndChar
StartChar: Acircumflex
Encoding: 194 194 11
Width: 557
GlyphClass: 2
Flags: MW
HStem: 0 21G<-6 9 -6 -6 475 490 475 475> 207 14<117 429 117 432 110 429> 668 13<336 336> 846 16<357 357>
VStem: -6 496<0 0>
AnchorPoint: "Anchor-14" 0 0 basechar 0
AnchorPoint: "Anchor-13" 421 713 basechar 0
AnchorPoint: "Anchor-12" 358 862 basechar 0
AnchorPoint: "Anchor-11" 500 0 basechar 0
AnchorPoint: "Anchor-10" 242 0 basechar 0
LayerCount: 2
Back
Fore
SplineSet
357 846 m 1
 235 768 l 1
 228 776 l 1
 354 862 l 1
 362 862 l 1
 466 776 l 1
 458 768 l 1
 357 846 l 1
475 0 m 1
 432 207 l 1
 110 207 l 1
 9 0 l 1
 -6 0 l 1
 329 681 l 1
 346 681 l 1
 490 0 l 1
 475 0 l 1
117 221 m 1
 429 221 l 1
 336 668 l 1
 117 221 l 1
EndSplineSet
Substitution2: "'c2sc' Capitals to Small Capitals lookup 27 subtable" acircumflex.sc
Substitution2: "'aalt' Access All Alternates lookup 0 subtable" acircumflex.sc
Position2: "'cpsp' Capital Spacing lookup 0 subtable" dx=5 dy=0 dh=10 dv=0
EndChar

StartChar: Atilde
Encoding: 195 195 10
Width: 557
GlyphClass: 2
Flags: MW
HStem: -0.00999451 21G 206.99 13.57 667.85 13 808.43 10.42 851.99 10.43
VStem: -6.14 495.85
AnchorPoint: "Anchor-11" 0 0 basechar 0
AnchorPoint: "Anchor-10" 198 518 basechar 0
AnchorPoint: "Anchor-9" 337 681 basechar 0
AnchorPoint: "Anchor-8" 500 0 basechar 0
LayerCount: 2
Fore
SplineSet
304 852 m 0
 276.43 851.57 262.431 840.99 236.721 815.99 c 1
 230.15 820.99 l 1
 255.58 848.42 276.15 862.42 304 862.42 c 0
 342.29 862.42 371.14 818.85 414.71 818.85 c 0
 439.14 818.85 456.569 830.279 481.569 859.43 c 1
 488.14 854.43 l 1
 462.43 821.14 441.14 808.43 416 808.43 c 0
 367 808.43 341.57 852.43 304 852 c 0
431.691 206.99 m 1
 110.621 206.99 l 1
 9.57129 -0.00976562 l 1
 -6.13867 -0.00976562 l 1
 328.711 680.851 l 1
 345.571 680.851 l 1
 489.711 -0.00976562 l 1
 474.861 -0.00976562 l 1
 431.691 206.99 l 1
428.861 220.561 m 1
 335.581 667.851 l 1
 117.241 220.561 l 1
 428.861 220.561 l 1
EndSplineSet
Substitution2: "'c2sc' Capitals to Small Capitals lookup 23 subtable" atilde.sc
Substitution2: "'aalt' Access All Alternates lookup 0 subtable" atilde.sc
Position2: "'cpsp' Capital Spacing lookup 0 subtable" dx=5 dy=0 dh=10 dv=0
EndChar
StartChar: Adieresis
Encoding: 196 196 18
Width: 557
GlyphClass: 2
Flags: MW
HStem: 0 21G<-6 9 -6 -6 475 490 475 475> 207 14<117 429 117 432 110 429> 668 13<336 336> 801 28<273 280.5 432.5 439.5>
VStem: 262 29 421 29
AnchorPoint: "Anchor-14" 0 0 basechar 0
AnchorPoint: "Anchor-13" 0 0 basechar 0
AnchorPoint: "Anchor-12" 359 829 basechar 0
AnchorPoint: "Anchor-11" 500 0 basechar 0
AnchorPoint: "Anchor-10" 242 0 basechar 0
LayerCount: 2
Back
Fore
SplineSet
276 801 m 0
 267 801 262 808 262 816 c 0
 263 823 269 829 277 829 c 0
 287 829 292 823 291 814 c 0
 290 807 285 801 276 801 c 0
435 801 m 0
 426 801 420 808 421 816 c 0
 422 823 428 829 437 829 c 0
 446 829 451 823 450 814 c 0
 449 807 444 801 435 801 c 0
475 0 m 1
 432 207 l 1
 110 207 l 1
 9 0 l 1
 -6 0 l 1
 329 681 l 1
 346 681 l 1
 490 0 l 1
 475 0 l 1
117 221 m 1
 429 221 l 1
 336 668 l 1
 117 221 l 1
EndSplineSet
Substitution2: "'c2sc' Capitals to Small Capitals lookup 27 subtable" adieresis.sc
Substitution2: "'aalt' Access All Alternates lookup 0 subtable" adieresis.sc
Position2: "'cpsp' Capital Spacing lookup 0 subtable" dx=5 dy=0 dh=10 dv=0
EndChar

StartChar: Aring
Encoding: 197 197 9
Width: 557
GlyphClass: 2
Flags: MW
HStem: -0.00999451 21G 206.99 13.57 667.85 13 774.57 11.42 907.71 11.43
VStem: 288 13.57 420.15 13.56
AnchorPoint: "Anchor-11" 0 0 basechar 0
AnchorPoint: "Anchor-10" 198 518 basechar 0
AnchorPoint: "Anchor-9" 337 681 basechar 0
AnchorPoint: "Anchor-8" 500 0 basechar 0
LayerCount: 2
Fore
SplineSet
352 774.57 m 0
 306.29 774.57 282.141 805.71 288.001 847.42 c 0
 293.851 890.57 326.57 919.141 370.28 919.141 c 0
 416 919.141 439.57 888.851 433.71 846.28 c 0
 427.86 803.141 395.71 774.57 352 774.57 c 0
301.571 845.71 m 0
 296.571 810.42 315.15 785.989 352.86 785.989 c 0
 390.011 785.989 414.86 810.709 420.15 847.989 c 0
 425.58 884.14 408.15 907.71 369.431 907.71 c 0
 332.721 907.71 307.001 883.56 301.571 845.71 c 0
431.69 206.989 m 1
 110.62 206.989 l 1
 9.58008 -0.0107422 l 1
 -6.13965 -0.0107422 l 1
 328.721 680.85 l 1
 345.57 680.85 l 1
 489.721 -0.0107422 l 1
 474.86 -0.0107422 l 1
 431.69 206.989 l 1
428.86 220.56 m 1
 335.58 667.85 l 1
 117.25 220.56 l 1
 428.86 220.56 l 1
EndSplineSet
Substitution2: "'c2sc' Capitals to Small Capitals lookup 23 subtable" aring.sc
Substitution2: "'aalt' Access All Alternates lookup 0 subtable" aring.sc
Position2: "'cpsp' Capital Spacing lookup 0 subtable" dx=5 dy=0 dh=10 dv=0
EndChar

StartChar: AE
Encoding: 198 198 11
Width: 753
GlyphClass: 2
Flags: MW
HStem: 0 13.57 199.85 13.15 353.57 13.14 667.28 13.57
VStem: -20.57 732.71
AnchorPoint: "Anchor-11" 0 0 basechar 0
AnchorPoint: "Anchor-10" 0 0 basechar 0
AnchorPoint: "Anchor-9" 510 681 basechar 0
AnchorPoint: "Anchor-8" 0 0 basechar 0
LayerCount: 2
Fore
SplineSet
359.71 667.28 m 1
 396.7 366.711 l 1
 659.86 366.711 l 1
 658.15 353.571 l 1
 398.32 353.571 l 1
 440.15 13.5713 l 1
 673 13.5713 l 1
 670.86 0.000976562 l 1
 427.431 0.000976562 l 1
 403.141 199.851 l 1
 99.7002 199.851 l 1
 -5.29004 0.000976562 l 1
 -20.5703 0.000976562 l 1
 337.859 680.851 l 1
 712.14 680.851 l 1
 708.71 667.28 l 1
 359.71 667.28 l 1
346.15 669.001 m 1
 106.61 213.001 l 1
 401.551 213.001 l 1
 346.15 669.001 l 1
EndSplineSet
Substitution2: "'c2sc' Capitals to Small Capitals lookup 23 subtable" ae.sc
Substitution2: "'aalt' Access All Alternates lookup 0 subtable" ae.sc
Position2: "'cpsp' Capital Spacing lookup 0 subtable" dx=5 dy=0 dh=10 dv=0
EndChar

StartChar: Ccedilla
Encoding: 199 199 17
Width: 535
GlyphClass: 2
Flags: MW
HStem: -208.02 12.72 -87.87 10 -9.44 14 -9.31 13.87 677.27 13.58
VStem: 86.29 14.42 363.28 14.86
AnchorPoint: "Anchor-11" 305 0 basechar 0
AnchorPoint: "Anchor-10" 0 0 basechar 0
AnchorPoint: "Anchor-9" 402 681 basechar 0
AnchorPoint: "Anchor-8" 0 0 basechar 0
LayerCount: 2
Fore
SplineSet
403.86 677.28 m 0xde
 175.011 677.28 100.711 424.419 100.711 255.989 c 0
 100.711 90.4189 182.711 4.55859 305.431 4.55859 c 0xde
 384.28 4.55859 432.431 33.1289 472.28 63.1289 c 1
 480.57 51.6992 l 1
 439.36 20.2588 385.79 -8.93164 307.07 -9.44141 c 1xee
 294.71 -77.8711 l 1
 348.86 -80.1611 378.141 -96.3008 378.141 -135.161 c 0
 378.141 -175.591 343.001 -208.021 291.281 -208.021 c 0
 260.571 -208.021 242.421 -200.73 226.991 -190.73 c 1
 233.991 -179.73 l 1
 247.711 -189.45 265.141 -195.3 291.28 -195.3 c 0
 336.851 -195.3 362.851 -168.02 363.28 -136.869 c 0
 363.71 -103.589 339.28 -88.8691 280.71 -87.8691 c 1
 296.3 -9.30957 l 1
 168.81 -5.31934 86.29 86.8008 86.29 255.561 c 0
 86.29 433.711 166 690.851 403 690.851 c 0
 477 690.851 518.29 666.141 552.57 632.99 c 1
 543.86 622.42 l 1
 507.57 656.57 472 677.28 403.86 677.28 c 0xde
EndSplineSet
Substitution2: "'c2sc' Capitals to Small Capitals lookup 23 subtable" ccedilla.sc
Substitution2: "'aalt' Access All Alternates lookup 0 subtable" ccedilla.sc
Position2: "'cpsp' Capital Spacing lookup 0 subtable" dx=5 dy=0 dh=10 dv=0
EndChar

StartChar: Eacute
Encoding: 201 201 25
Width: 494
GlyphClass: 2
Flags: MW
HStem: 0 13.57 353.56 13.15 667.28 13.57
VStem: 89.28 409.86
AnchorPoint: "Anchor-11" 247 0 basechar 0
AnchorPoint: "Anchor-10" 88 518 basechar 0
AnchorPoint: "Anchor-9" 345 681 basechar 0
AnchorPoint: "Anchor-8" 394 0 basechar 0
LayerCount: 2
Fore
SplineSet
456.28 838.71 m 1
 272.71 766.711 l 1
 269.57 776.851 l 1
 451 853.57 l 1
 456.28 838.71 l 1
495.71 667.281 m 1
 197.43 667.282 l 1
 155.569 366.712 l 1
 412.14 366.712 l 1
 410.43 353.562 l 1
 153.859 353.562 l 1
 105.859 13.5615 l 1
 414.14 13.5615 l 1
 412 -0.00878906 l 1
 89.2803 -0.00878906 l 1
 184.71 680.852 l 1
 499.14 680.852 l 1
 495.71 667.281 l 1
EndSplineSet
Substitution2: "'c2sc' Capitals to Small Capitals lookup 23 subtable" eacute.sc
Substitution2: "'aalt' Access All Alternates lookup 0 subtable" eacute.sc
Position2: "'cpsp' Capital Spacing lookup 0 subtable" dx=5 dy=0 dh=10 dv=0
EndChar

StartChar: Ecircumflex
Encoding: 202 202 28
Width: 494
GlyphClass: 2
Flags: MW
HStem: 0 13.57 353.57 13.14 667.28 13.57 846.28 15.29
VStem: 89.28 409.86
AnchorPoint: "Anchor-11" 247 0 basechar 0
AnchorPoint: "Anchor-10" 88 518 basechar 0
AnchorPoint: "Anchor-9" 345 681 basechar 0
AnchorPoint: "Anchor-8" 394 0 basechar 0
LayerCount: 2
Fore
SplineSet
373.14 846.28 m 1
 251.43 767.851 l 1
 244.279 776.141 l 1
 370.85 861.57 l 1
 378.85 861.57 l 1
 482.42 776.141 l 1
 474.42 767.851 l 1
 373.14 846.28 l 1
495.71 667.28 m 1
 197.43 667.281 l 1
 155.569 366.711 l 1
 412.14 366.711 l 1
 410.43 353.571 l 1
 153.859 353.571 l 1
 105.859 13.5713 l 1
 414.14 13.5713 l 1
 412 0.000976562 l 1
 89.2803 0.000976562 l 1
 184.71 680.851 l 1
 499.14 680.851 l 1
 495.71 667.28 l 1
EndSplineSet
Substitution2: "'c2sc' Capitals to Small Capitals lookup 23 subtable" ecircumflex.sc
Substitution2: "'aalt' Access All Alternates lookup 0 subtable" ecircumflex.sc
Position2: "'cpsp' Capital Spacing lookup 0 subtable" dx=5 dy=0 dh=10 dv=0
EndChar

StartChar: Edieresis
Encoding: 203 203 29
Width: 494
GlyphClass: 2
Flags: MW
HStem: 0 13.57 353.57 13.14 667.28 13.57 801.14 28.29
VStem: 269.86 28.72 428.72 28.72
AnchorPoint: "Anchor-11" 247 0 basechar 0
AnchorPoint: "Anchor-10" 88 518 basechar 0
AnchorPoint: "Anchor-9" 356 747 basechar 0
AnchorPoint: "Anchor-8" 394 0 basechar 0
LayerCount: 2
Fore
SplineSet
284.85 829.43 m 0
 294.42 829.43 299.429 822.569 298.579 814.43 c 0
 297.719 807.14 292.289 801.14 283.579 801.14 c 0
 274.429 801.14 268.999 808 269.859 816.14 c 0
 270.709 823.43 276.569 829.43 284.85 829.43 c 0
444.148 829.43 m 0
 453.288 829.43 458.289 822.569 457.439 814.43 c 0
 456.579 807.14 451.149 801.14 442.869 801.14 c 0
 433.299 801.14 427.869 808 428.719 816.14 c 0
 429.579 823.43 435.429 829.43 444.148 829.43 c 0
495.72 667.279 m 1
 197.43 667.28 l 1
 155.58 366.71 l 1
 412.15 366.71 l 1
 410.431 353.57 l 1
 153.86 353.57 l 1
 105.86 13.5703 l 1
 414.15 13.5703 l 1
 412 0 l 1
 89.29 -0 l 1
 184.72 680.85 l 1
 499.149 680.85 l 1
 495.72 667.279 l 1
EndSplineSet
Substitution2: "'c2sc' Capitals to Small Capitals lookup 23 subtable" edieresis.sc
Substitution2: "'aalt' Access All Alternates lookup 0 subtable" edieresis.sc
Position2: "'cpsp' Capital Spacing lookup 0 subtable" dx=5 dy=0 dh=10 dv=0
EndChar
StartChar: Igrave
Encoding: 204 204 126
Width: 266
GlyphClass: 2
Flags: MW
HStem: 0 21G<89 104 89 89> 661 20G<185 199 199 199>
VStem: 89 207
AnchorPoint: "Anchor-14" 0 0 basechar 0
AnchorPoint: "Anchor-13" 0 0 basechar 0
AnchorPoint: "Anchor-12" 213 854 basechar 0
AnchorPoint: "Anchor-11" 109 0 basechar 0
AnchorPoint: "Anchor-10" 97 0 basechar 0
LayerCount: 2
Back
Fore
SplineSet
136 854 m 1
 296 777 l 1
 290 767 l 1
 126 839 l 1
 136 854 l 1
199 681 m 1
 104 0 l 1
 89 0 l 1
 185 681 l 1
 199 681 l 1
EndSplineSet
Substitution2: "'c2sc' Capitals to Small Capitals lookup 27 subtable" igrave.sc
Substitution2: "'aalt' Access All Alternates lookup 0 subtable" igrave.sc
Position2: "'cpsp' Capital Spacing lookup 0 subtable" dx=5 dy=0 dh=10 dv=0
EndChar
StartChar: Iacute
Encoding: 205 205 117
Width: 266
GlyphClass: 2
Flags: MW
HStem: 0 21G<89 104 89 89> 661 20G<185 199 199 199>
VStem: 89 215
AnchorPoint: "Anchor-14" 0 0 basechar 0
AnchorPoint: "Anchor-13" 0 0 basechar 0
AnchorPoint: "Anchor-12" 213 854 basechar 0
AnchorPoint: "Anchor-11" 109 0 basechar 0
AnchorPoint: "Anchor-10" 97 0 basechar 0
LayerCount: 2
Back
Fore
SplineSet
299 854 m 1
 304 839 l 1
 121 767 l 1
 117 777 l 1
 299 854 l 1
199 681 m 1
 104 0 l 1
 89 0 l 1
 185 681 l 1
 199 681 l 1
EndSplineSet
Substitution2: "'c2sc' Capitals to Small Capitals lookup 27 subtable" iacute.sc
Substitution2: "'aalt' Access All Alternates lookup 0 subtable" iacute.sc
Position2: "'cpsp' Capital Spacing lookup 0 subtable" dx=5 dy=0 dh=10 dv=0
EndChar
StartChar: Icircumflex
Encoding: 206 206 120
Width: 266
GlyphClass: 2
Flags: MW
HStem: 0 21G<89 104 89 89> 661 20G<185 199 199 199> 846 16<212 212>
VStem: 83 238<776 776>
AnchorPoint: "Anchor-14" 0 0 basechar 0
AnchorPoint: "Anchor-13" 276 713 basechar 0
AnchorPoint: "Anchor-12" 213 862 basechar 0
AnchorPoint: "Anchor-11" 109 0 basechar 0
AnchorPoint: "Anchor-10" 97 0 basechar 0
LayerCount: 2
Back
Fore
SplineSet
313 768 m 1
 212 846 l 1
 90 768 l 1
 83 776 l 1
 209 862 l 1
 217 862 l 1
 321 776 l 1
 313 768 l 1
199 681 m 1
 104 0 l 1
 89 0 l 1
 185 681 l 1
 199 681 l 1
EndSplineSet
Substitution2: "'c2sc' Capitals to Small Capitals lookup 27 subtable" icircumflex.sc
Substitution2: "'aalt' Access All Alternates lookup 0 subtable" icircumflex.sc
Position2: "'cpsp' Capital Spacing lookup 0 subtable" dx=5 dy=0 dh=10 dv=0
EndChar
StartChar: Idieresis
Encoding: 207 207 122
Width: 266
GlyphClass: 2
Flags: MW
HStem: 0 21G<89 104 89 89> 661 20G<185 199 199 199> 801 28<128 135.5 287.5 294.5>
VStem: 117 29 276 29
AnchorPoint: "Anchor-14" 0 0 basechar 0
AnchorPoint: "Anchor-13" 0 0 basechar 0
AnchorPoint: "Anchor-12" 214 829 basechar 0
AnchorPoint: "Anchor-11" 109 0 basechar 0
AnchorPoint: "Anchor-10" 97 0 basechar 0
LayerCount: 2
Back
Fore
SplineSet
132 829 m 0
 142 829 147 823 146 814 c 0
 145 807 140 801 131 801 c 0
 122 801 117 808 117 816 c 0
 118 823 124 829 132 829 c 0
292 829 m 0
 301 829 306 823 305 814 c 0
 304 807 299 801 290 801 c 0
 281 801 275 808 276 816 c 0
 277 823 283 829 292 829 c 0
199 681 m 1
 104 0 l 1
 89 0 l 1
 185 681 l 1
 199 681 l 1
EndSplineSet
Substitution2: "'c2sc' Capitals to Small Capitals lookup 27 subtable" idieresis.sc
Substitution2: "'aalt' Access All Alternates lookup 0 subtable" idieresis.sc
Position2: "'cpsp' Capital Spacing lookup 0 subtable" dx=5 dy=0 dh=10 dv=0
EndChar
StartChar: Eth
Encoding: 208 208 54
Width: 608
GlyphClass: 2
Flags: MW
HStem: 0 14<97 201> 346 14<42 129 40 131 42 144 146 341> 667 14<189 288 189 189>
VStem: 532 14<335 531.5>
AnchorPoint: "Anchor-14" 316 340 basechar 0
AnchorPoint: "Anchor-13" 0 0 basechar 0
AnchorPoint: "Anchor-12" 343 681 basechar 0
AnchorPoint: "Anchor-11" 0 0 basechar 0
AnchorPoint: "Anchor-10" 244 0 basechar 0
LayerCount: 2
Back
Fore
SplineSet
291 681 m 2
 419 681 546 638 546 433 c 0
 546 228 459 0 201 0 c 2
 81 0 l 1
 129 346 l 1
 40 346 l 1
 42 360 l 1
 131 360 l 1
 176 681 l 1
 291 681 l 2
203 14 m 2
 450 14 532 237 532 433 c 0
 532 630 410 667 288 667 c 2
 189 667 l 1
 146 360 l 1
 342 360 l 1
 341 346 l 1
 144 346 l 1
 97 14 l 1
 203 14 l 2
EndSplineSet
Substitution2: "'c2sc' Capitals to Small Capitals lookup 27 subtable" eth.sc
Substitution2: "'aalt' Access All Alternates lookup 0 subtable" eth.sc
Position2: "'cpsp' Capital Spacing lookup 0 subtable" dx=5 dy=0 dh=10 dv=0
EndChar

StartChar: Ntilde
Encoding: 209 209 70
Width: 658
GlyphClass: 2
Flags: MW
HStem: 0 16.86 665.85 15 808.42 10.43 851.99 10.43
VStem: 184.72 10.14 486.43 9.72
AnchorPoint: "Anchor-11" 289 0 basechar 0
AnchorPoint: "Anchor-10" 0 0 basechar 0
AnchorPoint: "Anchor-9" 393 681 basechar 0
AnchorPoint: "Anchor-8" 0 0 basechar 0
LayerCount: 2
Fore
SplineSet
472 808.43 m 0
 423 808.43 397.571 852.42 360.001 851.99 c 0
 332.431 851.561 318.431 840.99 292.721 815.99 c 1
 286.15 820.99 l 1
 311.58 848.42 332.15 862.42 360 862.42 c 0
 398.29 862.42 427.14 818.85 470.71 818.85 c 0
 495.14 818.85 512.569 830.279 537.569 859.43 c 1
 544.14 854.43 l 1
 518.43 821.14 497.14 808.43 472 808.43 c 0
496.151 -0.00976562 m 1
 478.143 0.00195312 l 1
 194.862 665.852 l 1
 191.712 631.571 186.862 593.711 175.572 514.141 c 2
 103.292 0.000976562 l 1
 89.292 0.000976562 l 1
 184.722 680.851 l 1
 203.151 680.851 l 1
 486.432 16.8506 l 1
 491.151 58.2803 498.151 114.71 507.151 177.57 c 2
 577.581 680.851 l 1
 591.581 680.851 l 1
 496.151 -0.00976562 l 1
EndSplineSet
Substitution2: "'c2sc' Capitals to Small Capitals lookup 23 subtable" ntilde.sc
Substitution2: "'aalt' Access All Alternates lookup 0 subtable" ntilde.sc
Position2: "'cpsp' Capital Spacing lookup 0 subtable" dx=5 dy=0 dh=10 dv=0
EndChar
StartChar: Ograve
Encoding: 210 210 188
Width: 688
GlyphClass: 2
Flags: MW
HStem: -9 13<242.5 426 242.5 429.5> 678 13<289 468.5>
VStem: 86 15<173.5 335 173.5 338.5> 611 15<346.5 509.5>
AnchorPoint: "Anchor-14" 0 0 basechar 0
AnchorPoint: "Anchor-13" 585 681 basechar 0
AnchorPoint: "Anchor-12" 423 854 basechar 0
AnchorPoint: "Anchor-11" 0 0 basechar 0
AnchorPoint: "Anchor-10" 307 0 basechar 0
LayerCount: 2
Back
Fore
SplineSet
346 854 m 1
 506 777 l 1
 500 767 l 1
 336 839 l 1
 346 854 l 1
404 691 m 0
 542 691 626 598 626 428 c 0
 626 256 552 -9 307 -9 c 0
 169 -9 86 86 86 254 c 0
 86 423 166 691 404 691 c 0
403 678 m 0
 175 678 101 416 101 254 c 0
 101 93 178 4 307 4 c 0
 545 4 611 265 611 428 c 0
 611 591 534 678 403 678 c 0
EndSplineSet
Substitution2: "'c2sc' Capitals to Small Capitals lookup 27 subtable" ograve.sc
Substitution2: "'aalt' Access All Alternates lookup 0 subtable" ograve.sc
Position2: "'cpsp' Capital Spacing lookup 0 subtable" dx=5 dy=0 dh=10 dv=0
EndChar

StartChar: Ocircumflex
Encoding: 212 212 74
Width: 688
GlyphClass: 2
Flags: MW
HStem: -9.42999 13.58 677.72 13.13 846.28 15.29
VStem: 85.71 14.85 611.28 14.86
AnchorPoint: "Anchor-11" 0 0 basechar 0
AnchorPoint: "Anchor-10" 95 518 basechar 0
AnchorPoint: "Anchor-9" 396 681 basechar 0
AnchorPoint: "Anchor-8" 0 0 basechar 0
LayerCount: 2
Fore
SplineSet
424.28 846.28 m 1
 302.569 767.851 l 1
 295.43 776.141 l 1
 422 861.57 l 1
 430 861.57 l 1
 533.57 776.141 l 1
 525.57 767.851 l 1
 424.28 846.28 l 1
403.859 690.851 m 0
 542.289 690.851 626.141 598.141 626.141 427.711 c 0
 626.141 256.281 552.28 -9.42871 307.28 -9.42871 c 0
 169 -9.42871 85.71 85.5713 85.71 254.421 c 0
 85.71 423.141 166.43 690.851 403.859 690.851 c 0
403.421 677.721 m 0
 175.131 677.721 100.561 415.01 100.561 254.29 c 0
 100.561 93.1504 178.131 4.15039 307.281 4.15039 c 0
 544.852 4.15039 611.281 267.15 611.281 428.15 c 0
 611.281 590.721 533.991 677.721 403.421 677.721 c 0
EndSplineSet
Substitution2: "'c2sc' Capitals to Small Capitals lookup 23 subtable" ocircumflex.sc
Substitution2: "'aalt' Access All Alternates lookup 0 subtable" ocircumflex.sc
Position2: "'cpsp' Capital Spacing lookup 0 subtable" dx=5 dy=0 dh=10 dv=0
EndChar
StartChar: Otilde
Encoding: 213 213 207
Width: 688
GlyphClass: 2
Flags: MW
HStem: -9 13<242.5 426 242.5 429.5> 678 13<289 468.5> 808 11<458 492 458 493.5> 852 10<355 388>
VStem: 86 15<173.5 335 173.5 338.5> 611 15<346.5 509.5>
AnchorPoint: "Anchor-14" 0 0 basechar 0
AnchorPoint: "Anchor-13" 585 681 basechar 0
AnchorPoint: "Anchor-12" 426 864 basechar 0
AnchorPoint: "Anchor-11" 0 0 basechar 0
AnchorPoint: "Anchor-10" 307 0 basechar 0
LayerCount: 2
Back
Fore
SplineSet
481 808 m 0
 432 808 407 852 369 852 c 0
 341 852 327 841 302 816 c 1
 295 821 l 1
 321 848 341 862 369 862 c 0
 407 862 436 819 480 819 c 0
 504 819 522 830 547 859 c 1
 553 854 l 1
 527 821 506 808 481 808 c 0
404 691 m 0
 542 691 626 598 626 428 c 0
 626 256 552 -9 307 -9 c 0
 169 -9 86 86 86 254 c 0
 86 423 166 691 404 691 c 0
403 678 m 0
 175 678 101 416 101 254 c 0
 101 93 178 4 307 4 c 0
 545 4 611 265 611 428 c 0
 611 591 534 678 403 678 c 0
EndSplineSet
Substitution2: "'c2sc' Capitals to Small Capitals lookup 27 subtable" otilde.sc
Substitution2: "'aalt' Access All Alternates lookup 0 subtable" otilde.sc
Position2: "'cpsp' Capital Spacing lookup 0 subtable" dx=5 dy=0 dh=10 dv=0
EndChar

StartChar: Odieresis
Encoding: 214 214 75
Width: 688
GlyphClass: 2
Flags: MW
HStem: -9.42999 13.58 677.73 13.13 801.14 28.29
VStem: 85.72 14.85 321 28.72 479.87 28.71 611.28 14.86
AnchorPoint: "Anchor-11" 0 0 basechar 0
AnchorPoint: "Anchor-10" 95 518 basechar 0
AnchorPoint: "Anchor-9" 407 747 basechar 0
AnchorPoint: "Anchor-8" 0 0 basechar 0
LayerCount: 2
Fore
SplineSet
336 829.43 m 0
 345.57 829.43 350.579 822.569 349.719 814.43 c 0
 348.869 807.14 343.439 801.14 334.72 801.14 c 0
 325.58 801.14 320.15 808 321 816.14 c 0
 321.86 823.43 327.71 829.43 336 829.43 c 0
495.289 829.43 m 0
 504.439 829.43 509.438 822.569 508.578 814.43 c 0
 507.729 807.14 502.299 801.14 494.009 801.14 c 0
 484.438 801.14 479.009 808 479.869 816.14 c 0
 480.719 823.43 486.579 829.43 495.289 829.43 c 0
403.858 690.859 m 0
 542.288 690.859 626.139 598.148 626.139 427.719 c 0
 626.139 256.289 552.289 -9.43066 307.289 -9.43066 c 0
 168.999 -9.43066 85.7188 85.5693 85.7188 254.43 c 0
 85.7188 423.14 166.429 690.859 403.858 690.859 c 0
403.43 677.719 m 0
 175.149 677.719 100.57 415.009 100.57 254.299 c 0
 100.57 93.1484 178.141 4.14844 307.28 4.14844 c 0
 544.851 4.14844 611.28 267.148 611.28 428.148 c 0
 611.28 590.719 534 677.719 403.43 677.719 c 0
EndSplineSet
Substitution2: "'c2sc' Capitals to Small Capitals lookup 23 subtable" odieresis.sc
Substitution2: "'aalt' Access All Alternates lookup 0 subtable" odieresis.sc
Position2: "'cpsp' Capital Spacing lookup 0 subtable" dx=5 dy=0 dh=10 dv=0
EndChar
StartChar: multiply
Encoding: 215 215 2268
Width: 482
GlyphClass: 2
Flags: MW
HStem: 165 285<98 137 137 358>
VStem: 89 318<174 441>
LayerCount: 2
Back
Fore
SplineSet
397 450 m 1
 407 441 l 1
 257 308 l 1
 370 174 l 1
 358 165 l 1
 247 298 l 1
 98 165 l 1
 89 174 l 1
 238 308 l 1
 126 441 l 1
 137 450 l 1
 248 317 l 1
 397 450 l 1
EndSplineSet
Substitution2: "'onum' Oldstyle Figures lookup 26 subtable" multiply.osf
Substitution2: "'tnum' Tabular Numbers lookup 25 subtable" multiply.tf
AlternateSubs2: "'aalt' Access All Alternates lookup 1 subtable" multiply.tf multiply.osf
EndChar

StartChar: Oslash
Encoding: 216 216 79
Width: 688
GlyphClass: 2
Flags: MW
HStem: -9.42 13.58 677.73 13.13
VStem: 85.71 14.86 611.29 14.85
AnchorPoint: "Anchor-11" 0 0 basechar 0
AnchorPoint: "Anchor-10" 0 0 basechar 0
AnchorPoint: "Anchor-9" 401 685 basechar 0
AnchorPoint: "Anchor-8" 0 0 basechar 0
LayerCount: 2
Fore
SplineSet
504.25 670.52 m 1
 581.75 634.579 626.139 551.729 626.139 427.729 c 0
 626.139 256.299 552.289 -9.4209 307.289 -9.4209 c 0
 274.039 -9.4209 243.979 -3.93066 217.479 6.75977 c 1
 167.43 -107.71 l 1
 154.71 -103.28 l 1
 205.94 11.8496 l 1
 129.37 48.6494 85.71 132.18 85.71 254.43 c 0
 85.71 423.149 166.43 690.859 403.859 690.859 c 0
 436.8 690.859 466.649 685.609 493.01 675.31 c 1
 544 793.859 l 1
 556.57 789.43 l 1
 504.25 670.52 l 1
100.569 254.299 m 0
 100.569 137.879 141.06 59.1279 212.229 24.3682 c 1
 488.109 662.769 l 1
 463.189 672.688 434.85 677.729 403.43 677.729 c 0
 175.14 677.729 100.569 415.019 100.569 254.299 c 0
307.289 4.15723 m 0
 544.859 4.15723 611.288 267.156 611.288 428.156 c 0
 611.288 546.267 570.498 624.486 498.118 658.437 c 1
 222.368 19.7969 l 1
 247.349 9.45703 275.789 4.15723 307.289 4.15723 c 0
EndSplineSet
Substitution2: "'c2sc' Capitals to Small Capitals lookup 23 subtable" oslash.sc
Substitution2: "'aalt' Access All Alternates lookup 0 subtable" oslash.sc
Position2: "'cpsp' Capital Spacing lookup 0 subtable" dx=5 dy=0 dh=10 dv=0
EndChar

StartChar: Ugrave
Encoding: 217 217 106
Width: 638
GlyphClass: 2
Flags: MW
HStem: -9.42999 13.57 660.86 20G
VStem: 104.72 14.51
AnchorPoint: "Anchor-11" 0 0 basechar 0
AnchorPoint: "Anchor-10" 0 0 basechar 0
AnchorPoint: "Anchor-9" 382 681 basechar 0
AnchorPoint: "Anchor-8" 365 0 basechar 0
LayerCount: 2
Fore
SplineSet
485.28 776.85 m 1
 479.57 766.709 l 1
 315.71 838.709 l 1
 325.28 853.569 l 1
 485.28 776.85 l 1
514.57 206.429 m 2
 497.721 81.7188 427.42 -9.43164 282.57 -9.43164 c 0
 134.851 -9.43164 91.2803 82.5684 108.141 207.288 c 2
 174.711 680.858 l 1
 189.141 680.858 l 1
 122.57 207.708 l 2
 106.57 89.1377 145.851 4.1377 282.57 4.1377 c 0
 420 4.1377 484.57 91.2881 500.141 208.568 c 2
 566.711 680.858 l 1
 581.141 680.858 l 1
 514.57 206.429 l 2
EndSplineSet
Substitution2: "'c2sc' Capitals to Small Capitals lookup 23 subtable" ugrave.sc
Substitution2: "'aalt' Access All Alternates lookup 0 subtable" ugrave.sc
Position2: "'cpsp' Capital Spacing lookup 0 subtable" dx=5 dy=0 dh=10 dv=0
EndChar

StartChar: Uacute
Encoding: 218 218 102
Width: 638
GlyphClass: 2
Flags: MW
HStem: -9.42999 13.57 660.85 20G
VStem: 104.72 14.51
AnchorPoint: "Anchor-11" 0 0 basechar 0
AnchorPoint: "Anchor-10" 0 0 basechar 0
AnchorPoint: "Anchor-9" 382 681 basechar 0
AnchorPoint: "Anchor-8" 365 0 basechar 0
LayerCount: 2
Fore
SplineSet
493.85 838.71 m 1
 310.279 766.711 l 1
 307.14 776.851 l 1
 488.569 853.57 l 1
 493.85 838.71 l 1
514.569 206.421 m 2
 497.72 81.7012 427.419 -9.42969 282.569 -9.42969 c 0
 134.85 -9.42969 91.2793 82.5703 108.14 207.28 c 2
 174.71 680.851 l 1
 189.14 680.851 l 1
 122.569 207.711 l 2
 106.569 89.1406 145.85 4.14062 282.569 4.14062 c 0
 419.999 4.14062 484.569 91.2803 500.14 208.57 c 2
 566.71 680.851 l 1
 581.14 680.851 l 1
 514.569 206.421 l 2
EndSplineSet
Substitution2: "'c2sc' Capitals to Small Capitals lookup 23 subtable" uacute.sc
Substitution2: "'aalt' Access All Alternates lookup 0 subtable" uacute.sc
Position2: "'cpsp' Capital Spacing lookup 0 subtable" dx=5 dy=0 dh=10 dv=0
EndChar

StartChar: Ucircumflex
Encoding: 219 219 104
Width: 638
GlyphClass: 2
Flags: MW
HStem: -9.42999 13.57 660.85 20G 846.28 15.29
VStem: 104.72 14.51
AnchorPoint: "Anchor-11" 0 0 basechar 0
AnchorPoint: "Anchor-10" 0 0 basechar 0
AnchorPoint: "Anchor-9" 382 681 basechar 0
AnchorPoint: "Anchor-8" 365 0 basechar 0
LayerCount: 2
Fore
SplineSet
410.71 846.28 m 1
 288.999 767.851 l 1
 281.859 776.141 l 1
 408.43 861.57 l 1
 416.43 861.57 l 1
 520 776.141 l 1
 512 767.851 l 1
 410.71 846.28 l 1
514.569 206.421 m 2
 497.709 81.7012 427.431 -9.42969 282.57 -9.42969 c 0
 134.86 -9.42969 91.29 82.5703 108.14 207.28 c 2
 174.71 680.851 l 1
 189.14 680.851 l 1
 122.569 207.711 l 2
 106.569 89.1406 145.859 4.14062 282.569 4.14062 c 0
 419.999 4.14062 484.569 91.2803 500.14 208.57 c 2
 566.71 680.851 l 1
 581.14 680.851 l 1
 514.569 206.421 l 2
EndSplineSet
Substitution2: "'c2sc' Capitals to Small Capitals lookup 23 subtable" ucircumflex.sc
Substitution2: "'aalt' Access All Alternates lookup 0 subtable" ucircumflex.sc
Position2: "'cpsp' Capital Spacing lookup 0 subtable" dx=5 dy=0 dh=10 dv=0
EndChar

StartChar: Udieresis
Encoding: 220 220 105
Width: 638
GlyphClass: 2
Flags: MW
HStem: -9.42999 13.57 660.86 20G 801.14 28.29
VStem: 104.73 14.51 307.43 28.72 466.3 28.71
AnchorPoint: "Anchor-11" 0 0 basechar 0
AnchorPoint: "Anchor-10" 0 0 basechar 0
AnchorPoint: "Anchor-9" 393 747 basechar 0
AnchorPoint: "Anchor-8" 365 0 basechar 0
LayerCount: 2
Fore
SplineSet
322.43 829.43 m 0
 332 829.43 337.009 822.569 336.148 814.43 c 0
 335.299 807.14 329.869 801.14 321.149 801.14 c 0
 312.01 801.14 306.58 808 307.43 816.14 c 0
 308.29 823.43 314.14 829.43 322.43 829.43 c 0
481.719 829.43 m 0
 490.869 829.43 495.868 822.569 495.008 814.43 c 0
 494.158 807.14 488.729 801.14 480.438 801.14 c 0
 470.868 801.14 465.438 808 466.299 816.14 c 0
 467.148 823.43 473.009 829.43 481.719 829.43 c 0
514.578 206.43 m 2
 497.729 81.7197 427.428 -9.43066 282.578 -9.43066 c 0
 134.858 -9.43066 91.2881 82.5693 108.148 207.289 c 2
 174.719 680.859 l 1
 189.148 680.859 l 1
 122.578 207.709 l 2
 106.578 89.1387 145.858 4.13867 282.578 4.13867 c 0
 420.008 4.13867 484.578 91.2891 500.148 208.569 c 2
 566.719 680.859 l 1
 581.148 680.859 l 1
 514.578 206.43 l 2
EndSplineSet
Substitution2: "'c2sc' Capitals to Small Capitals lookup 23 subtable" udieresis.sc
Substitution2: "'aalt' Access All Alternates lookup 0 subtable" udieresis.sc
Position2: "'cpsp' Capital Spacing lookup 0 subtable" dx=5 dy=0 dh=10 dv=0
EndChar

StartChar: Yacute
Encoding: 221 221 120
Width: 488
GlyphClass: 2
Flags: MW
HStem: -0.00999451 21G 660.85 20G
VStem: 81.86 442.28
AnchorPoint: "Anchor-11" 0 0 basechar 0
AnchorPoint: "Anchor-10" 24 518 basechar 0
AnchorPoint: "Anchor-9" 302 681 basechar 0
AnchorPoint: "Anchor-8" 0 0 basechar 0
LayerCount: 2
Fore
SplineSet
413.14 838.71 m 1
 229.569 766.711 l 1
 226.43 776.851 l 1
 407.859 853.57 l 1
 413.14 838.71 l 1
253.569 270.991 m 1
 215.709 -0.00878906 l 1
 201.279 -0.00878906 l 1
 238.709 270.562 l 1
 81.8594 680.852 l 1
 97.5693 680.852 l 1
 246.999 284.991 l 1
 507.569 680.852 l 1
 524.14 680.852 l 1
 253.569 270.991 l 1
EndSplineSet
Substitution2: "'c2sc' Capitals to Small Capitals lookup 23 subtable" yacute.sc
Substitution2: "'aalt' Access All Alternates lookup 0 subtable" yacute.sc
Position2: "'cpsp' Capital Spacing lookup 0 subtable" dx=5 dy=0 dh=10 dv=0
EndChar

StartChar: Thorn
Encoding: 222 222 84
Width: 556
GlyphClass: 2
Flags: MW
HStem: 0 21G<89.2803 103.71 89.2803 89.2803> 149.72 13.57 539.01 13.56 539.01 141.85
VStem: 496.72 14.42
LayerCount: 2
Fore
SplineSet
298.14 552.57 m 2xe8
 437.859 552.57 511.14 506.289 511.14 383.859 c 0
 511.14 272.43 452.71 149.72 238.28 149.72 c 2
 124.7 149.72 l 1
 103.71 0 l 1
 89.2803 0 l 1
 184.71 680.86 l 1
 199.14 680.86 l 1xd8
 181.159 552.57 l 1
 298.14 552.57 l 2xe8
240.43 163.289 m 2
 441.859 163.289 496.72 277.72 496.72 383.439 c 0
 496.72 498.289 429.149 539.009 296.72 539.009 c 2
 179.26 539.009 l 1
 126.6 163.289 l 1
 240.43 163.289 l 2
EndSplineSet
Substitution2: "'c2sc' Capitals to Small Capitals lookup 23 subtable" thorn.sc
Substitution2: "'aalt' Access All Alternates lookup 0 subtable" thorn.sc
Position2: "'cpsp' Capital Spacing lookup 0 subtable" dx=5 dy=0 dh=10 dv=0
EndChar

StartChar: germandbls
Encoding: 223 223 233
Width: 571
GlyphClass: 2
Flags: MW
HStem: -193.14 21G -10.01 13.14 722.42 12.72
VStem: 322 13.57 470 14.42 482 13.99
LayerCount: 2
Fore
SplineSet
335.57 411 m 0xf8
 335.57 333 496.56 313.418 495.989 155.988 c 0
 495.989 91.418 451.14 -10.0117 329.42 -10.0117 c 0
 285.85 -10.0117 244.14 4.55859 223.279 17.1289 c 1
 229.43 28.1289 l 1
 253.859 14.5586 288.569 3.12891 328.999 3.12891 c 0
 442.429 3.12891 481.999 98.8486 481.999 155.988 c 0xf4
 481.999 308.559 321.999 324.278 321.999 410.988 c 0
 321.999 501.559 469.999 502.709 469.999 629.709 c 0
 469.999 684.139 428.859 722.419 358.14 722.419 c 0
 268.43 722.419 190.14 659.849 173.71 538.849 c 2
 98.0596 2.99902 l 2
 80.5996 -121.121 44.1592 -154.921 -35.4404 -193.141 c 1
 -40.29 -182.291 l 1
 33.71 -145.721 67.5596 -112.721 84.5596 4.84961 c 2
 160.13 541.42 l 2
 177.56 666.42 260.989 735.14 358.14 735.14 c 0
 436.14 735.14 484.42 691.279 484.42 628.85 c 0
 484.42 499.14 335.57 492.85 335.57 411 c 0xf8
EndSplineSet
Substitution2: "'smcp' Lowercase to Small Capitals lookup 24 subtable" germandbls.sc
Substitution2: "'aalt' Access All Alternates lookup 0 subtable" germandbls.sc
EndChar

StartChar: agrave
Encoding: 224 224 139
Width: 544
GlyphClass: 2
Flags: MW
HStem: -9.42999 13.14 516 12.29 720.14 20G
VStem: 70.14 14.43 396.43 12.28
AnchorPoint: "Anchor-11" 0 0 basechar 0
AnchorPoint: "Anchor-10" 0 0 basechar 0
AnchorPoint: "Anchor-9" 335 518 basechar 0
AnchorPoint: "Anchor-8" 452 -9 basechar 0
LayerCount: 2
Fore
SplineSet
449 666.43 m 1
 443.289 657.29 l 1
 281.859 740.14 l 1
 290.14 755 l 1
 449 666.43 l 1
331.429 528.29 m 0
 390.858 528.29 431.85 511.001 468.85 487.431 c 1
 412.85 115.86 l 2
 410.279 96.4307 408.709 80.5703 408.709 66.7207 c 0
 408.709 30.5703 420.709 11.7207 446.859 1.57031 c 1
 442.43 -9.42969 l 1
 396.14 7.29004 392.43 49.5703 398.859 106 c 1
 355.709 31 293.569 -9.42969 226.999 -9.42969 c 0
 127.709 -9.42969 70.1387 69 70.1387 187.29 c 0
 70.1387 328.57 136.858 528.29 331.429 528.29 c 0
331.85 516.001 m 0
 146.85 516.001 84.5684 322.001 84.5684 187.711 c 0
 84.5684 76.4307 135.998 3.71094 227.428 3.71094 c 0
 293.998 3.71094 354.858 45.5713 401.429 129.142 c 1
 454.429 480.852 l 1
 421.709 502.281 381.279 516.001 331.85 516.001 c 0
EndSplineSet
Substitution2: "'smcp' Lowercase to Small Capitals lookup 24 subtable" agrave.sc
Substitution2: "'aalt' Access All Alternates lookup 0 subtable" agrave.sc
EndChar

StartChar: aacute
Encoding: 225 225 135
Width: 544
GlyphClass: 2
Flags: MW
HStem: -9.42999 13.14 515.99 12.29
VStem: 70.14 14.43 396.43 12.28
AnchorPoint: "Anchor-11" 0 0 basechar 0
AnchorPoint: "Anchor-10" 0 0 basechar 0
AnchorPoint: "Anchor-9" 335 518 basechar 0
AnchorPoint: "Anchor-8" 452 -9 basechar 0
LayerCount: 2
Fore
SplineSet
448.43 740.14 m 1
 262.999 657.279 l 1
 259.569 667.43 l 1
 443.569 755 l 1
 448.43 740.14 l 1
331.429 528.279 m 0
 390.858 528.279 431.85 510.989 468.85 487.419 c 1
 412.85 115.849 l 2
 410.279 96.4189 408.709 80.5693 408.709 66.709 c 0
 408.709 30.5693 420.709 11.709 446.859 1.56934 c 1
 442.43 -9.43066 l 1
 396.14 7.2793 392.43 49.5693 398.859 105.999 c 1
 355.709 30.999 293.569 -9.43066 226.999 -9.43066 c 0
 127.709 -9.43066 70.1387 68.999 70.1387 187.279 c 0
 70.1387 328.569 136.858 528.279 331.429 528.279 c 0
331.85 515.989 m 0
 146.85 515.989 84.5684 321.99 84.5684 187.71 c 0
 84.5684 76.4199 135.998 3.70996 227.428 3.70996 c 0
 293.998 3.70996 354.858 45.5596 401.429 129.13 c 1
 454.429 480.85 l 1
 421.709 502.279 381.279 515.989 331.85 515.989 c 0
EndSplineSet
Substitution2: "'smcp' Lowercase to Small Capitals lookup 24 subtable" aacute.sc
Substitution2: "'aalt' Access All Alternates lookup 0 subtable" aacute.sc
EndChar

StartChar: acircumflex
Encoding: 226 226 137
Width: 544
GlyphClass: 2
Flags: MW
HStem: -9.42999 13.14 515.99 12.29 740 15.28
VStem: 70.14 14.43 396.42 12.29
AnchorPoint: "Anchor-11" 0 0 basechar 0
AnchorPoint: "Anchor-10" 0 0 basechar 0
AnchorPoint: "Anchor-9" 335 518 basechar 0
AnchorPoint: "Anchor-8" 452 -9 basechar 0
LayerCount: 2
Fore
SplineSet
239.43 664.43 m 1
 368.141 755.279 l 1
 376.141 755.279 l 1
 477.57 664.43 l 1
 470 656.14 l 1
 370.43 740 l 1
 247 656.14 l 1
 239.43 664.43 l 1
331.421 528.279 m 0
 390.851 528.279 431.853 510.989 468.853 487.419 c 1
 412.853 115.849 l 2
 410.282 96.4189 408.712 80.5693 408.712 66.709 c 0
 408.712 30.5693 420.712 11.709 446.852 1.56934 c 1
 442.422 -9.43066 l 1
 396.142 7.2793 392.422 49.5693 398.852 105.999 c 1
 355.712 30.999 293.562 -9.43066 226.991 -9.43066 c 0
 127.711 -9.43066 70.1406 68.999 70.1406 187.279 c 0
 70.1406 328.569 136.851 528.279 331.421 528.279 c 0
331.853 515.989 m 0
 146.853 515.989 84.5723 321.99 84.5723 187.71 c 0
 84.5723 76.4199 136.002 3.70996 227.432 3.70996 c 0
 294.002 3.70996 354.852 45.5596 401.422 129.13 c 1
 454.422 480.85 l 1
 421.712 502.279 381.282 515.989 331.853 515.989 c 0
EndSplineSet
Substitution2: "'smcp' Lowercase to Small Capitals lookup 24 subtable" acircumflex.sc
Substitution2: "'aalt' Access All Alternates lookup 0 subtable" acircumflex.sc
EndChar

StartChar: atilde
Encoding: 227 227 143
Width: 544
GlyphClass: 2
Flags: MW
HStem: -9.44 13.14 515.99 12.29 682.42 10.43 725.99 10.43
VStem: 70.15 14.43 396.43 12.29
AnchorPoint: "Anchor-11" 0 0 basechar 0
AnchorPoint: "Anchor-10" 0 0 basechar 0
AnchorPoint: "Anchor-9" 335 518 basechar 0
AnchorPoint: "Anchor-8" 452 -9 basechar 0
LayerCount: 2
Fore
SplineSet
420.14 682.43 m 0
 371.14 682.43 345.72 726.42 308.149 725.99 c 0
 280.579 725.561 266.579 714.99 240.859 689.99 c 1
 234.289 694.99 l 1
 259.719 722.42 280.289 736.42 308.149 736.42 c 0
 346.43 736.42 375.29 692.85 418.86 692.85 c 0
 443.29 692.85 460.72 704.279 485.72 733.43 c 1
 492.29 728.43 l 1
 466.57 695.14 445.29 682.43 420.14 682.43 c 0
331.43 528.28 m 0
 390.859 528.28 431.861 510.991 468.861 487.421 c 1
 412.861 115.851 l 2
 410.291 96.4209 408.721 80.5605 408.721 66.7109 c 0
 408.721 30.5605 420.721 11.7109 446.86 1.56055 c 1
 442.431 -9.43945 l 1
 396.15 7.28027 392.431 49.5605 398.86 105.99 c 1
 355.721 30.9902 293.57 -9.43945 227 -9.43945 c 0
 127.72 -9.43945 70.1494 68.9902 70.1494 187.28 c 0
 70.1494 328.561 136.859 528.28 331.43 528.28 c 0
331.861 515.991 m 0
 146.861 515.991 84.5811 321.991 84.5811 187.701 c 0
 84.5811 76.4209 136.011 3.70117 227.44 3.70117 c 0
 294.011 3.70117 354.86 45.5615 401.431 129.132 c 1
 454.431 480.842 l 1
 421.721 502.271 381.291 515.991 331.861 515.991 c 0
EndSplineSet
Substitution2: "'smcp' Lowercase to Small Capitals lookup 24 subtable" atilde.sc
Substitution2: "'aalt' Access All Alternates lookup 0 subtable" atilde.sc
EndChar

StartChar: adieresis
Encoding: 228 228 138
Width: 544
GlyphClass: 2
Flags: MW
HStem: -9.42999 13.14 515.99 12.29 675.14 28.29
VStem: 70.15 14.43 256.29 28.72 396.43 12.29 415.15 28.72
AnchorPoint: "Anchor-11" 0 0 basechar 0
AnchorPoint: "Anchor-10" 0 0 basechar 0
AnchorPoint: "Anchor-9" 342 621 basechar 0
AnchorPoint: "Anchor-8" 452 -9 basechar 0
LayerCount: 2
Fore
SplineSet
271.28 703.43 m 0
 280.851 703.43 285.859 696.569 285.01 688.43 c 0
 284.149 681.14 278.72 675.14 270.01 675.14 c 0
 260.859 675.14 255.43 682 256.29 690.14 c 0
 257.14 697.43 263 703.43 271.28 703.43 c 0
430.579 703.43 m 0xfa
 439.719 703.43 444.72 696.569 443.87 688.43 c 0
 443.01 681.14 437.58 675.14 429.3 675.14 c 0
 419.729 675.14 414.3 682 415.149 690.14 c 0
 416.01 697.43 421.859 703.43 430.579 703.43 c 0xfa
331.43 528.279 m 0
 390.859 528.279 431.861 510.989 468.861 487.419 c 1
 412.861 115.849 l 2
 410.291 96.4189 408.721 80.5693 408.721 66.709 c 0
 408.721 30.5693 420.721 11.709 446.86 1.56934 c 1
 442.431 -9.43066 l 1
 396.15 7.2793 392.431 49.5693 398.86 105.999 c 1xfc
 355.721 30.999 293.57 -9.43066 227 -9.43066 c 0
 127.72 -9.43066 70.1494 68.999 70.1494 187.279 c 0
 70.1494 328.569 136.859 528.279 331.43 528.279 c 0
331.861 515.989 m 0
 146.861 515.989 84.5811 321.99 84.5811 187.71 c 0
 84.5811 76.4199 136.011 3.70996 227.44 3.70996 c 0
 294.011 3.70996 354.86 45.5596 401.431 129.13 c 1
 454.431 480.85 l 1
 421.721 502.279 381.291 515.989 331.861 515.989 c 0
EndSplineSet
Substitution2: "'smcp' Lowercase to Small Capitals lookup 24 subtable" adieresis.sc
Substitution2: "'aalt' Access All Alternates lookup 0 subtable" adieresis.sc
EndChar

StartChar: aring
Encoding: 229 229 142
Width: 544
GlyphClass: 2
Flags: MW
HStem: -9.44 13.14 515.99 12.29 648.57 11.42 781.71 11.43
VStem: 70.15 14.43 290.43 13.58 396.44 12.28 422.58 13.57
AnchorPoint: "Anchor-11" 0 0 basechar 0
AnchorPoint: "Anchor-10" 0 0 basechar 0
AnchorPoint: "Anchor-9" 335 518 basechar 0
AnchorPoint: "Anchor-8" 452 -9 basechar 0
LayerCount: 2
Fore
SplineSet
372.71 793.14 m 0
 418.42 793.14 442 762.851 436.15 720.28 c 0
 430.29 677.141 398.15 648.57 354.431 648.57 c 0
 308.721 648.57 284.57 679.71 290.431 721.43 c 0
 296.28 764.569 329 793.14 372.71 793.14 c 0
371.859 781.711 m 0
 335.14 781.711 309.438 757.56 304.009 719.71 c 0
 299.009 684.42 317.579 659.99 355.289 659.99 c 0
 392.439 659.99 417.289 684.71 422.579 721.99 c 0
 428.009 758.141 410.579 781.711 371.859 781.711 c 0
331.438 528.28 m 0
 390.868 528.28 431.859 510.991 468.859 487.421 c 1
 412.859 115.851 l 2
 410.289 96.4209 408.719 80.5605 408.719 66.7109 c 0
 408.719 30.5605 420.719 11.7109 446.869 1.56055 c 1
 442.439 -9.43945 l 1
 396.149 7.28027 392.439 49.5605 398.869 105.99 c 1xfe
 355.719 30.9902 293.579 -9.43945 227.009 -9.43945 c 0
 127.719 -9.43945 70.1484 68.9902 70.1484 187.28 c 0
 70.1484 328.561 136.868 528.28 331.438 528.28 c 0
331.859 515.991 m 0
 146.859 515.991 84.5781 321.991 84.5781 187.701 c 0
 84.5781 76.4209 136.008 3.70117 227.438 3.70117 c 0
 294.008 3.70117 354.868 45.5615 401.438 129.132 c 1
 454.438 480.842 l 1
 421.719 502.271 381.289 515.991 331.859 515.991 c 0
EndSplineSet
Substitution2: "'smcp' Lowercase to Small Capitals lookup 24 subtable" aring.sc
Substitution2: "'aalt' Access All Alternates lookup 0 subtable" aring.sc
EndChar

StartChar: ae
Encoding: 230 230 144
Width: 846
GlyphClass: 2
Flags: MW
HStem: -9.42999 13.15 -9.42 13.13 216.04 12.26 284.86 12.29 515.57 12.71
VStem: 58.13 14.42 392.8 15.02 433.13 10.56 776.41 14.43
AnchorPoint: "Anchor-11" 315 0 basechar 0
AnchorPoint: "Anchor-10" 0 0 basechar 0
AnchorPoint: "Anchor-9" 463 518 basechar 0
AnchorPoint: "Anchor-8" 381 6 basechar 0
LayerCount: 2
Fore
SplineSet
299.71 528.28 m 0x7f80
 379.97 528.28 438.264 481.428 443.693 395.277 c 1xbf80
 460.554 432.138 522.813 528.277 647.413 528.277 c 0
 728.413 528.277 790.843 485.428 790.843 411.857 c 0
 790.843 298.388 663.513 229.388 407.822 216.038 c 1xbe80
 404.272 104.148 444.702 3.71875 563.982 3.71875 c 0
 627.702 3.71875 670.412 24.2891 721.562 60.999 c 1
 728.992 50.4287 l 1
 676.992 11.999 629.422 -9.43066 563.992 -9.43066 c 0xbf80
 480.312 -9.43066 424.822 34.749 403.162 114.699 c 1
 335.242 25.4395 273.353 -9.4209 194.702 -9.4209 c 0
 106.422 -9.4209 58.1318 44.5791 58.1318 121.149 c 0
 58.1318 213.149 119.852 297.149 284.281 297.149 c 2
 405.852 297.149 l 1
 414.701 332.72 423.131 357 433.131 379.29 c 1
 431.281 469.57 374.281 515.57 299.711 515.57 c 0
 253.281 515.57 206.281 504.141 150.281 482.431 c 1
 146.421 494.28 l 1
 203.141 516.431 251.57 528.28 299.71 528.28 c 0x7f80
647.414 515.567 m 0x7e80
 470.954 515.567 417.974 327.758 408.604 228.298 c 1
 661.014 241.988 776.414 308.798 776.414 411.418 c 0
 776.414 477.138 722.264 515.567 647.414 515.567 c 0x7e80
285.984 284.848 m 2
 127.694 284.848 72.5566 205.288 72.5566 121.138 c 0
 72.5566 51.1377 116.406 3.70801 194.696 3.70801 c 0
 274.706 3.70801 333.976 42.5684 399.695 128.849 c 1
 390.125 172.568 389.975 222.418 402.515 284.848 c 1
 285.984 284.848 l 2
EndSplineSet
Substitution2: "'smcp' Lowercase to Small Capitals lookup 24 subtable" ae.sc
Substitution2: "'aalt' Access All Alternates lookup 0 subtable" ae.sc
EndChar

StartChar: ccedilla
Encoding: 231 231 150
Width: 466
GlyphClass: 2
Flags: MW
HStem: -208.58 12.72 -88.43 10 -9.42999 13.14 -9.16 12.87 515.56 12.72
VStem: 74 14.42 301.85 14.86
AnchorPoint: "Anchor-11" 248 -1 basechar 0
AnchorPoint: "Anchor-10" 0 0 basechar 0
AnchorPoint: "Anchor-9" 313 518 basechar 0
AnchorPoint: "Anchor-8" 0 0 basechar 0
LayerCount: 2
Fore
SplineSet
319.43 528.28 m 0xde
 373.29 528.28 412.999 511.707 445.709 478.277 c 1
 436.429 469.138 l 1
 406.709 499.987 369.999 515.558 319.849 515.558 c 0
 177.419 515.558 101.569 378.987 88.4189 231.138 c 0
 74.709 83.708 141.419 3.70801 245.139 3.70801 c 0xde
 301.568 3.70801 343.998 23.8477 382.568 53.5674 c 1
 389.998 43.5674 l 1
 350.278 11.707 304.849 -9.43262 245.738 -9.43262 c 1xee
 233.278 -78.4326 l 1
 287.429 -80.7227 316.709 -96.8623 316.709 -135.723 c 0
 316.709 -176.152 281.569 -208.582 229.85 -208.582 c 0
 199.14 -208.582 180.989 -201.292 165.56 -191.292 c 1
 172.56 -180.292 l 1
 186.279 -190.012 203.709 -195.861 229.849 -195.861 c 0
 275.419 -195.861 301.419 -168.581 301.849 -137.431 c 0
 302.278 -104.15 277.849 -89.4307 219.278 -88.4307 c 1
 235.009 -9.16113 l 1
 126.909 -3.82129 60.7295 81.1592 73.999 231.14 c 0
 87.709 385.71 167.279 528.28 319.43 528.28 c 0xde
EndSplineSet
Substitution2: "'smcp' Lowercase to Small Capitals lookup 24 subtable" ccedilla.sc
Substitution2: "'aalt' Access All Alternates lookup 0 subtable" ccedilla.sc
EndChar

StartChar: eacute
Encoding: 233 233 158
Width: 524
GlyphClass: 2
Flags: MW
HStem: -9.42999 13.14 216.04 12.27 515.57 12.71
VStem: 70.71 14.43 454.43 14.42
AnchorPoint: "Anchor-11" 238 0 basechar 0
AnchorPoint: "Anchor-10" 0 0 basechar 0
AnchorPoint: "Anchor-9" 309 518 basechar 0
AnchorPoint: "Anchor-8" 343 8 basechar 0
LayerCount: 2
Fore
SplineSet
237 657.28 m 1
 233.569 667.42 l 1
 417.569 754.99 l 1
 422.43 740.141 l 1
 237 657.28 l 1
468.85 412.28 m 0
 468.85 298.391 341.49 229.509 85.7803 216.039 c 1
 85.3506 208.289 85.1406 200.739 85.1406 193.43 c 0
 85.1406 66.71 146.141 3.70996 241.99 3.70996 c 0
 305.71 3.70996 348.42 24.2803 399.57 61 c 1
 407 50.4297 l 1
 355 12 307.43 -9.42969 242 -9.42969 c 0
 135.28 -9.42969 70.71 61.4199 70.71 192.99 c 0
 70.71 324.561 137.71 528.28 323.28 528.28 c 0
 406.42 528.28 468.85 485.42 468.85 412.28 c 0
323.28 515.568 m 0
 162.66 515.568 97.0518 352.038 86.6514 228.308 c 1
 339.121 242.128 454.431 308.858 454.431 411.858 c 0
 454.431 477.139 400.28 515.568 323.28 515.568 c 0
EndSplineSet
Substitution2: "'smcp' Lowercase to Small Capitals lookup 24 subtable" eacute.sc
Substitution2: "'aalt' Access All Alternates lookup 0 subtable" eacute.sc
EndChar

StartChar: ecircumflex
Encoding: 234 234 161
Width: 524
GlyphClass: 2
Flags: MW
HStem: -9.42999 13.15 216.05 12.27 515.58 12.7 740 15.28
VStem: 70.71 14.43 454.43 14.42
AnchorPoint: "Anchor-11" 238 0 basechar 0
AnchorPoint: "Anchor-10" 0 0 basechar 0
AnchorPoint: "Anchor-9" 309 518 basechar 0
AnchorPoint: "Anchor-8" 343 8 basechar 0
LayerCount: 2
Fore
SplineSet
221 656.14 m 1
 213.421 664.43 l 1
 342.141 755.279 l 1
 350.141 755.279 l 1
 451.57 664.43 l 1
 444 656.14 l 1
 344.43 740 l 1
 221 656.14 l 1
468.851 412.279 m 0
 468.851 298.39 341.491 229.507 85.7812 216.047 c 1
 85.3516 208.297 85.1416 200.737 85.1416 193.428 c 0
 85.1416 66.7178 146.142 3.71777 241.991 3.71777 c 0
 305.711 3.71777 348.421 24.2881 399.571 60.998 c 1
 407.001 50.4277 l 1
 355.001 11.998 307.431 -9.43164 242.001 -9.43164 c 0
 135.281 -9.43164 70.7109 61.4287 70.7109 192.999 c 0
 70.7109 324.569 137.711 528.279 323.281 528.279 c 0
 406.421 528.279 468.851 485.43 468.851 412.279 c 0
323.281 515.576 m 0
 162.661 515.576 97.0527 352.035 86.6523 228.315 c 1
 339.122 242.136 454.432 308.866 454.432 411.856 c 0
 454.432 477.146 400.281 515.576 323.281 515.576 c 0
EndSplineSet
Substitution2: "'smcp' Lowercase to Small Capitals lookup 24 subtable" ecircumflex.sc
Substitution2: "'aalt' Access All Alternates lookup 0 subtable" ecircumflex.sc
EndChar

StartChar: edieresis
Encoding: 235 235 162
Width: 524
GlyphClass: 2
Flags: MW
HStem: -9.42 13.14 216.05 12.27 515.58 12.71 675.14 28.29
VStem: 70.72 14.43 230.29 28.71 389.15 28.71 454.44 14.42
AnchorPoint: "Anchor-11" 238 0 basechar 0
AnchorPoint: "Anchor-10" 0 0 basechar 0
AnchorPoint: "Anchor-9" 316 621 basechar 0
AnchorPoint: "Anchor-8" 343 8 basechar 0
LayerCount: 2
Fore
SplineSet
244 675.14 m 0
 234.85 675.14 229.429 682 230.289 690.14 c 0
 231.139 697.43 236.999 703.43 245.279 703.43 c 0
 254.85 703.43 259.85 696.569 259 688.43 c 0
 258.14 681.14 252.71 675.14 244 675.14 c 0
403.289 675.14 m 0
 393.719 675.14 388.288 682 389.148 690.14 c 0
 389.998 697.43 395.858 703.43 404.568 703.43 c 0
 413.719 703.43 418.719 696.569 417.858 688.43 c 0
 417.009 681.14 411.579 675.14 403.289 675.14 c 0
468.858 412.29 m 0
 468.858 298.4 341.499 229.519 85.7891 216.049 c 1
 85.3594 208.299 85.1494 200.749 85.1494 193.439 c 0
 85.1494 66.7197 146.149 3.71973 241.999 3.71973 c 0
 305.719 3.71973 348.429 24.29 399.579 61.0098 c 1
 407.009 50.4395 l 1
 355.009 12.0098 307.438 -9.41992 242.009 -9.41992 c 0
 135.289 -9.41992 70.7188 61.4297 70.7188 193 c 0
 70.7188 324.57 137.719 528.29 323.289 528.29 c 0
 406.429 528.29 468.858 485.43 468.858 412.29 c 0
323.289 515.578 m 0
 162.669 515.578 97.0605 352.048 86.6602 228.317 c 1
 339.13 242.138 454.439 308.868 454.439 411.868 c 0
 454.439 477.148 400.289 515.578 323.289 515.578 c 0
EndSplineSet
Substitution2: "'smcp' Lowercase to Small Capitals lookup 24 subtable" edieresis.sc
Substitution2: "'aalt' Access All Alternates lookup 0 subtable" edieresis.sc
EndChar
StartChar: igrave
Encoding: 236 236 488
Width: 255
GlyphClass: 2
Flags: MW
HStem: 0 21G<84 98 84 84> 498 20G<157 171 171 171> 720 20G<117 117>
VStem: 84 200
AnchorPoint: "Anchor-14" 0 0 basechar 0
AnchorPoint: "Anchor-13" 0 0 basechar 0
AnchorPoint: "Anchor-12" 202 755 basechar 0
AnchorPoint: "Anchor-11" 104 0 basechar 0
AnchorPoint: "Anchor-10" 91 0 basechar 0
LayerCount: 2
Back
Fore
SplineSet
125 755 m 1
 284 666 l 1
 278 657 l 1
 117 740 l 1
 125 755 l 1
171 518 m 1
 98 0 l 1
 84 0 l 1
 157 518 l 1
 171 518 l 1
EndSplineSet
Substitution2: "'smcp' Lowercase to Small Capitals lookup 28 subtable" igrave.sc
Substitution2: "'aalt' Access All Alternates lookup 0 subtable" igrave.sc
EndChar

StartChar: iacute
Encoding: 237 237 178
Width: 255
GlyphClass: 2
Flags: MW
HStem: 0 21G 498.28 20G
VStem: 84.28 193
AnchorPoint: "Anchor-11" 0 0 basechar 0
AnchorPoint: "Anchor-10" 0 0 basechar 0
AnchorPoint: "Anchor-9" 164 518 basechar 0
AnchorPoint: "Anchor-8" 108 0 basechar 0
LayerCount: 2
Fore
SplineSet
277.28 740.14 m 1
 91.8496 657.279 l 1
 88.4199 667.43 l 1
 272.42 755 l 1
 277.28 740.14 l 1
98.2793 -0.000976562 m 1
 84.2793 -0.000976562 l 1
 157.14 518.279 l 1
 171.14 518.279 l 1
 98.2793 -0.000976562 l 1
EndSplineSet
Substitution2: "'smcp' Lowercase to Small Capitals lookup 24 subtable" iacute.sc
Substitution2: "'aalt' Access All Alternates lookup 0 subtable" iacute.sc
EndChar

StartChar: icircumflex
Encoding: 238 238 180
Width: 255
GlyphClass: 2
Flags: MW
HStem: 0 21G 498.28 20G 740 15.28
VStem: 68.28 238.14
AnchorPoint: "Anchor-11" 0 0 basechar 0
AnchorPoint: "Anchor-10" 0 0 basechar 0
AnchorPoint: "Anchor-9" 164 518 basechar 0
AnchorPoint: "Anchor-8" 108 0 basechar 0
LayerCount: 2
Fore
SplineSet
68.2803 664.43 m 1
 196.991 755.279 l 1
 204.991 755.279 l 1
 306.421 664.43 l 1
 298.851 656.14 l 1
 199.28 740 l 1
 75.8506 656.14 l 1
 68.2803 664.43 l 1
98.2812 -0.000976562 m 1
 84.2812 -0.000976562 l 1
 157.131 518.279 l 1
 171.131 518.279 l 1
 98.2812 -0.000976562 l 1
EndSplineSet
Substitution2: "'smcp' Lowercase to Small Capitals lookup 24 subtable" icircumflex.sc
Substitution2: "'aalt' Access All Alternates lookup 0 subtable" icircumflex.sc
EndChar

StartChar: idieresis
Encoding: 239 239 181
Width: 255
GlyphClass: 2
Flags: MW
HStem: 0 21G<84.2891 98.2891 84.2891 84.2891> 498.28 20G 675.14 28.29
VStem: 85.15 28.72 244 28.72
AnchorPoint: "Anchor-11" 0 0 basechar 0
AnchorPoint: "Anchor-10" 0 0 basechar 0
AnchorPoint: "Anchor-9" 171 621 basechar 0
AnchorPoint: "Anchor-8" 108 0 basechar 0
LayerCount: 2
Fore
SplineSet
100.14 703.43 m 0
 109.71 703.43 114.719 696.569 113.869 688.43 c 0
 113.009 681.14 107.579 675.14 98.8691 675.14 c 0
 89.7188 675.14 84.2891 682 85.1494 690.14 c 0
 85.999 697.43 91.8594 703.43 100.14 703.43 c 0
259.438 703.43 m 0
 268.578 703.43 273.579 696.569 272.729 688.43 c 0
 271.869 681.14 266.439 675.14 258.159 675.14 c 0
 248.589 675.14 243.159 682 244.009 690.14 c 0
 244.869 697.43 250.719 703.43 259.438 703.43 c 0
98.2891 -0 m 1
 84.2891 0 l 1
 157.149 518.28 l 1
 171.149 518.28 l 1
 98.2891 -0 l 1
EndSplineSet
Substitution2: "'smcp' Lowercase to Small Capitals lookup 24 subtable" idieresis.sc
Substitution2: "'aalt' Access All Alternates lookup 0 subtable" idieresis.sc
EndChar

StartChar: eth
Encoding: 240 240 154
Width: 546
GlyphClass: 2
Flags: MW
HStem: -9.44 13.15 446.43 13.14 714.71 20G 716.14 20G 722.57 20G
VStem: 67.71 14.44 458.61 16.11
LayerCount: 2
Fore
SplineSet
360.7 667.06 m 1xe6
 433.32 607.81 474.72 524.17 474.72 401.28 c 0
 474.72 372.57 472.29 341.42 467.86 308.28 c 0
 437.141 88.71 351.001 -9.44043 229.571 -9.44043 c 0
 124.001 -9.44043 67.7109 62.9893 67.7109 175.279 c 0
 67.7109 291.419 127.001 459.569 287.571 459.569 c 0
 365.701 459.569 420.621 416.729 458.611 352.34 c 1
 465.711 472.42 446.711 579.99 350.551 658.69 c 1
 253.431 570.421 l 1
 242.431 574.851 l 1
 341.291 665.721 l 1
 306.101 691.601 258.971 713.181 212.851 723.851 c 1xce
 216.851 736.141 l 1
 263.98 725.19 311.11 704.271 351.141 674.2 c 1xd6
 426.001 742.57 l 1
 434.851 734.71 l 1
 360.7 667.06 l 1xe6
229.58 3.70996 m 0xce
 345.58 3.70996 418.719 100.721 449.289 283.15 c 0
 453.429 306.721 455.579 325.001 456.56 335.791 c 1
 417.77 402.871 364.199 446.431 288.439 446.431 c 0
 137.01 446.431 82.1494 286.57 82.1494 175.29 c 0
 82.1494 69.1396 134.01 3.70996 229.58 3.70996 c 0xce
EndSplineSet
Substitution2: "'smcp' Lowercase to Small Capitals lookup 24 subtable" eth.sc
Substitution2: "'aalt' Access All Alternates lookup 0 subtable" eth.sc
EndChar

StartChar: ntilde
Encoding: 241 241 207
Width: 581
GlyphClass: 2
Flags: MW
HStem: -0.00999451 21G 0 21G<414.72 428.72 414.72 414.72> 498.28 20G 515.99 12.29 682.42 10.43 725.99 10.43
VStem: 469.55 14.07
AnchorPoint: "Anchor-11" 253 0 basechar 0
AnchorPoint: "Anchor-10" 0 0 basechar 0
AnchorPoint: "Anchor-9" 329 518 basechar 0
AnchorPoint: "Anchor-8" 0 0 basechar 0
LayerCount: 2
Fore
SplineSet
414.28 682.43 m 0x5e
 365.28 682.43 339.86 726.42 302.29 725.99 c 0
 274.72 725.561 260.72 714.99 235 689.99 c 1
 228.43 694.99 l 1
 253.859 722.42 274.43 736.42 302.29 736.42 c 0
 340.57 736.42 369.431 692.85 413.001 692.85 c 0
 437.431 692.85 454.86 704.279 479.86 733.43 c 1
 486.431 728.43 l 1
 460.711 695.14 439.431 682.43 414.28 682.43 c 0x5e
367.14 528.28 m 0
 460.14 528.28 494.569 468.71 480.72 368.43 c 2
 428.72 0 l 1
 414.72 0 l 1
 466.72 367.57 l 2
 479.72 463.42 449.72 515.99 365.859 515.99 c 0x5e
 280.72 515.99 209.72 450.851 143.43 320.851 c 1
 98.29 -0.00976562 l 1
 84.29 -0.00976562 l 1
 157.14 518.28 l 1
 169 518.28 l 1xae
 147 348.71 l 1
 209.57 471.71 283.71 528.28 367.14 528.28 c 0
EndSplineSet
Substitution2: "'smcp' Lowercase to Small Capitals lookup 24 subtable" ntilde.sc
Substitution2: "'aalt' Access All Alternates lookup 0 subtable" ntilde.sc
EndChar

StartChar: ograve
Encoding: 242 242 213
Width: 560
GlyphClass: 2
Flags: MW
HStem: -9.42999 13.14 515.57 12.72 720.14 20G
VStem: 70.72 14.43 474.72 14.43
AnchorPoint: "Anchor-11" 0 0 basechar 0
AnchorPoint: "Anchor-10" 0 0 basechar 0
AnchorPoint: "Anchor-9" 317 518 basechar 0
AnchorPoint: "Anchor-8" 0 0 basechar 0
LayerCount: 2
Fore
SplineSet
430.57 666.43 m 1
 424.859 657.29 l 1
 263.43 740.14 l 1
 271.71 755 l 1
 430.57 666.43 l 1
317.569 528.29 m 0
 425.569 528.29 489.149 456.721 489.149 327.57 c 0
 489.149 197.141 430.289 -9.42969 242.859 -9.42969 c 0
 133.859 -9.42969 70.7197 65.4307 70.7197 194.141 c 0
 70.7197 327.57 132.569 528.29 317.569 528.29 c 0
317.579 515.571 m 0
 141.289 515.571 85.1484 318.862 85.1484 193.712 c 0
 85.1484 72.4316 142.578 3.71191 242.858 3.71191 c 0
 419.009 3.71191 474.719 201.142 474.719 327.142 c 0
 474.719 448.432 417.719 515.571 317.579 515.571 c 0
EndSplineSet
Substitution2: "'smcp' Lowercase to Small Capitals lookup 24 subtable" ograve.sc
Substitution2: "'aalt' Access All Alternates lookup 0 subtable" ograve.sc
EndChar

StartChar: oacute
Encoding: 243 243 209
Width: 560
GlyphClass: 2
Flags: MW
HStem: -9.42999 13.14 515.57 12.71
VStem: 70.71 14.43 474.72 14.42
AnchorPoint: "Anchor-11" 0 0 basechar 0
AnchorPoint: "Anchor-10" 0 0 basechar 0
AnchorPoint: "Anchor-9" 317 518 basechar 0
AnchorPoint: "Anchor-8" 0 0 basechar 0
LayerCount: 2
Fore
SplineSet
430 740.14 m 1
 244.569 657.279 l 1
 241.14 667.43 l 1
 425.14 755 l 1
 430 740.14 l 1
317.569 528.279 m 0
 425.569 528.279 489.139 456.71 489.139 327.57 c 0
 489.139 197.141 430.289 -9.42969 242.859 -9.42969 c 0
 133.859 -9.42969 70.709 65.4199 70.709 194.14 c 0
 70.709 327.569 132.569 528.279 317.569 528.279 c 0
317.568 515.57 m 0
 141.288 515.57 85.1396 318.85 85.1396 193.71 c 0
 85.1396 72.4199 142.569 3.70996 242.859 3.70996 c 0
 418.999 3.70996 474.719 201.14 474.719 327.14 c 0
 474.719 448.42 417.719 515.57 317.568 515.57 c 0
EndSplineSet
Substitution2: "'smcp' Lowercase to Small Capitals lookup 24 subtable" oacute.sc
Substitution2: "'locl' Localized Forms in Latin lookup 7 subtable" oacute.loclPLK
AlternateSubs2: "'aalt' Access All Alternates lookup 1 subtable" oacute.loclPLK oacute.sc
EndChar

StartChar: ocircumflex
Encoding: 244 244 211
Width: 560
GlyphClass: 2
Flags: MW
HStem: -9.42999 13.14 515.57 12.71 740 15.28
VStem: 70.71 14.43 474.72 14.42
AnchorPoint: "Anchor-11" 0 0 basechar 0
AnchorPoint: "Anchor-10" 0 0 basechar 0
AnchorPoint: "Anchor-9" 317 518 basechar 0
AnchorPoint: "Anchor-8" 0 0 basechar 0
LayerCount: 2
Fore
SplineSet
221 664.43 m 1
 349.711 755.279 l 1
 357.711 755.279 l 1
 459.141 664.43 l 1
 451.57 656.14 l 1
 352 740 l 1
 228.57 656.14 l 1
 221 664.43 l 1
317.571 528.279 m 0
 425.571 528.279 489.141 456.71 489.141 327.57 c 0
 489.141 197.141 430.291 -9.42969 242.861 -9.42969 c 0
 133.861 -9.42969 70.7109 65.4199 70.7109 194.14 c 0
 70.7109 327.569 132.571 528.279 317.571 528.279 c 0
317.57 515.57 m 0
 141.29 515.57 85.1416 318.85 85.1416 193.71 c 0
 85.1416 72.4199 142.571 3.70996 242.861 3.70996 c 0
 419.001 3.70996 474.721 201.14 474.721 327.14 c 0
 474.721 448.42 417.721 515.57 317.57 515.57 c 0
EndSplineSet
Substitution2: "'smcp' Lowercase to Small Capitals lookup 24 subtable" ocircumflex.sc
Substitution2: "'aalt' Access All Alternates lookup 0 subtable" ocircumflex.sc
EndChar
StartChar: otilde
Encoding: 245 245 588
Width: 560
GlyphClass: 2
Flags: MW
HStem: -9 13<193 331 193 336.5> 516 12<229.5 368> 682 11<377.5 411 377.5 412> 726 10<274 306.5>
VStem: 71 14<133 256.5 133 261> 475 14<264 387.5>
AnchorPoint: "Anchor-14" 0 0 basechar 0
AnchorPoint: "Anchor-13" 478 518 basechar 0
AnchorPoint: "Anchor-12" 345 738 basechar 0
AnchorPoint: "Anchor-11" 0 0 basechar 0
AnchorPoint: "Anchor-10" 243 0 basechar 0
LayerCount: 2
Back
Fore
SplineSet
399 682 m 0
 352 682 326 726 287 726 c 0
 261 726 246 715 221 690 c 1
 214 695 l 1
 240 722 261 736 287 736 c 0
 327 736 356 693 399 693 c 0
 423 693 441 704 466 733 c 1
 472 728 l 1
 446 695 425 682 399 682 c 0
318 528 m 0
 426 528 489 457 489 328 c 0
 489 197 430 -9 243 -9 c 0
 134 -9 71 65 71 194 c 0
 71 328 133 528 318 528 c 0
318 516 m 0
 141 516 85 319 85 194 c 0
 85 72 143 4 243 4 c 0
 419 4 475 201 475 327 c 0
 475 448 418 516 318 516 c 0
EndSplineSet
Substitution2: "'smcp' Lowercase to Small Capitals lookup 28 subtable" otilde.sc
Substitution2: "'aalt' Access All Alternates lookup 0 subtable" otilde.sc
EndChar
StartChar: odieresis
Encoding: 246 246 563
Width: 560
GlyphClass: 2
Flags: MW
HStem: -9 13<193 331 193 336.5> 516 12<229.5 368> 675 28<258 265.5 417.5 424.5>
VStem: 71 14<133 256.5 133 261> 247 29 406 29 475 14<264 387.5>
AnchorPoint: "Anchor-14" 0 0 basechar 0
AnchorPoint: "Anchor-13" 478 518 basechar 0
AnchorPoint: "Anchor-12" 344 703 basechar 0
AnchorPoint: "Anchor-11" 0 0 basechar 0
AnchorPoint: "Anchor-10" 243 0 basechar 0
LayerCount: 2
Back
Fore
SplineSet
262 703 m 0
 272 703 277 697 276 688 c 0
 275 681 270 675 261 675 c 0
 252 675 247 682 247 690 c 0
 248 697 254 703 262 703 c 0
422 703 m 0
 431 703 436 697 435 688 c 0
 434 681 429 675 420 675 c 0
 411 675 405 682 406 690 c 0
 407 697 413 703 422 703 c 0
318 528 m 0
 426 528 489 457 489 328 c 0
 489 197 430 -9 243 -9 c 0
 134 -9 71 65 71 194 c 0
 71 328 133 528 318 528 c 0
318 516 m 0
 141 516 85 319 85 194 c 0
 85 72 143 4 243 4 c 0
 419 4 475 201 475 327 c 0
 475 448 418 516 318 516 c 0
EndSplineSet
Substitution2: "'smcp' Lowercase to Small Capitals lookup 28 subtable" odieresis.sc
Substitution2: "'aalt' Access All Alternates lookup 0 subtable" odieresis.sc
EndChar
StartChar: divide
Encoding: 247 247 2249
Width: 482
GlyphClass: 2
Flags: MW
HStem: 111 33<217 225.5> 324 14<90 413 92 411> 518 33<274 282.5>
VStem: 204 34<123 131.5> 261 34<530 538.5>
LayerCount: 2
Back
Fore
SplineSet
279 551 m 0
 289 551 295 544 295 535 c 0
 295 525 288 518 277 518 c 0
 268 518 261 525 261 533 c 0
 261 544 269 551 279 551 c 0
90 324 m 1
 92 338 l 1
 413 338 l 1
 411 324 l 1
 90 324 l 1
222 144 m 0xd0
 232 144 238 137 238 128 c 0
 238 118 231 111 220 111 c 0
 211 111 204 117 204 126 c 0
 204 137 212 144 222 144 c 0xd0
EndSplineSet
Substitution2: "'onum' Oldstyle Figures lookup 26 subtable" divide.osf
Substitution2: "'tnum' Tabular Numbers lookup 25 subtable" divide.tf
AlternateSubs2: "'aalt' Access All Alternates lookup 1 subtable" divide.tf divide.osf
EndChar
StartChar: oslash
Encoding: 248 248 586
Width: 560
GlyphClass: 2
Flags: MW
HStem: -9 13<229.5 331 229.5 336.5> 516 12<229.5 331>
VStem: 71 14<152 256.5 152 261> 475 14<264 369>
AnchorPoint: "Anchor-14" 0 0 basechar 0
AnchorPoint: "Anchor-13" 0 0 basechar 0
AnchorPoint: "Anchor-12" 317 518 basechar 0
AnchorPoint: "Anchor-11" 0 0 basechar 0
AnchorPoint: "Anchor-10" 241 0 basechar 0
LayerCount: 2
Back
Fore
SplineSet
109 -116 m 1
 97 -112 l 1
 156 11 l 1
 101 42 71 105 71 194 c 0
 71 328 133 528 318 528 c 0
 346 528 371 523 393 514 c 1
 450 635 l 1
 462 632 l 1
 405 508 l 1
 459 478 489 416 489 328 c 0
 489 197 430 -9 243 -9 c 0
 215 -9 190 -4 168 5 c 1
 109 -116 l 1
163 23 m 1
 388 502 l 1
 368 511 344 516 318 516 c 0
 141 516 85 319 85 194 c 0
 85 110 112 51 163 23 c 1
243 4 m 0
 419 4 475 201 475 327 c 0
 475 411 448 468 398 497 c 1
 173 18 l 1
 193 9 216 4 243 4 c 0
EndSplineSet
Substitution2: "'smcp' Lowercase to Small Capitals lookup 28 subtable" oslash.sc
Substitution2: "'aalt' Access All Alternates lookup 0 subtable" oslash.sc
EndChar

StartChar: ugrave
Encoding: 249 249 244
Width: 576
GlyphClass: 2
Flags: MW
HStem: -9.42 13.14 0.00999451 21G 498.29 20G<152.14 166.14 166.14 166.14 477.569 491.569 491.569 491.569> 720.14 20G
VStem: 98.08 14.05
AnchorPoint: "Anchor-11" 0 0 basechar 0
AnchorPoint: "Anchor-10" 0 0 basechar 0
AnchorPoint: "Anchor-9" 324 518 basechar 0
AnchorPoint: "Anchor-8" 429 0 basechar 0
LayerCount: 2
Fore
SplineSet
437.28 666.43 m 1xb8
 431.569 657.29 l 1
 270.14 740.14 l 1
 278.42 755 l 1
 437.28 666.43 l 1xb8
418.709 0 m 1x78
 407.71 0.0107422 l 1x78
 429.9 165.19 l 1
 383.2 57.25 307.98 -9.41992 219.28 -9.41992 c 0
 132.28 -9.41992 86.2803 46.4297 100.71 150 c 2
 152.14 518.29 l 1
 166.14 518.29 l 1
 114.71 150 l 2
 101.14 52.29 142.279 3.71973 220.569 3.71973 c 0xb8
 308.189 3.71973 381.659 75.1699 431.989 191.09 c 1
 477.569 518.29 l 1
 491.569 518.29 l 1
 418.709 0 l 1x78
EndSplineSet
Substitution2: "'smcp' Lowercase to Small Capitals lookup 24 subtable" ugrave.sc
Substitution2: "'aalt' Access All Alternates lookup 0 subtable" ugrave.sc
EndChar

StartChar: uacute
Encoding: 250 250 240
Width: 576
GlyphClass: 2
Flags: MW
HStem: -9.42999 13.14 0 21G 498.28 20G
VStem: 98.07 14.05
AnchorPoint: "Anchor-11" 0 0 basechar 0
AnchorPoint: "Anchor-10" 0 0 basechar 0
AnchorPoint: "Anchor-9" 324 518 basechar 0
AnchorPoint: "Anchor-8" 429 0 basechar 0
LayerCount: 2
Fore
SplineSet
436.71 740.14 m 1xb0
 251.279 657.279 l 1
 247.85 667.43 l 1
 431.85 755 l 1
 436.71 740.14 l 1xb0
418.709 -0.000976562 m 1x70
 407.709 -0.00195312 l 1x70
 429.899 165.178 l 1
 383.199 57.248 307.969 -9.43164 219.269 -9.43164 c 0
 132.269 -9.43164 86.2686 46.4287 100.698 149.999 c 2
 152.128 518.279 l 1
 166.128 518.279 l 1
 114.698 149.999 l 2
 101.128 52.2793 142.278 3.70898 220.559 3.70898 c 0xb0
 308.179 3.70898 381.659 75.1689 431.989 191.079 c 1
 477.569 518.279 l 1
 491.569 518.279 l 1
 418.709 -0.000976562 l 1x70
EndSplineSet
Substitution2: "'smcp' Lowercase to Small Capitals lookup 24 subtable" uacute.sc
Substitution2: "'aalt' Access All Alternates lookup 0 subtable" uacute.sc
EndChar

StartChar: ucircumflex
Encoding: 251 251 242
Width: 576
GlyphClass: 2
Flags: MW
HStem: -9.42999 13.14 0 21G 498.28 20G 740 15.28
VStem: 98.07 14.05
AnchorPoint: "Anchor-11" 0 0 basechar 0
AnchorPoint: "Anchor-10" 0 0 basechar 0
AnchorPoint: "Anchor-9" 324 518 basechar 0
AnchorPoint: "Anchor-8" 429 0 basechar 0
LayerCount: 2
Fore
SplineSet
227.71 664.43 m 1xb8
 356.421 755.279 l 1
 364.421 755.279 l 1
 465.851 664.43 l 1
 458.28 656.14 l 1
 358.71 740 l 1
 235.28 656.14 l 1
 227.71 664.43 l 1xb8
418.701 -0.000976562 m 1x78
 407.702 -0.00195312 l 1x78
 429.893 165.178 l 1
 383.192 57.248 307.973 -9.43164 219.272 -9.43164 c 0
 132.272 -9.43164 86.2725 46.4287 100.702 149.999 c 2
 152.132 518.279 l 1
 166.132 518.279 l 1
 114.702 149.999 l 2
 101.132 52.2793 142.271 3.70898 220.562 3.70898 c 0xb8
 308.182 3.70898 381.651 75.1689 431.981 191.079 c 1
 477.562 518.279 l 1
 491.562 518.279 l 1
 418.701 -0.000976562 l 1x78
EndSplineSet
Substitution2: "'smcp' Lowercase to Small Capitals lookup 24 subtable" ucircumflex.sc
Substitution2: "'aalt' Access All Alternates lookup 0 subtable" ucircumflex.sc
EndChar
StartChar: udieresis
Encoding: 252 252 664
Width: 575
GlyphClass: 2
Flags: MW
HStem: -9 13<181 263> 0 21G<407 418 407 407> 498 20G<152 166 166 166 477 491 491 491> 675 28<262 269.5 421.5 428.5>
VStem: 97.52 14.09 251 29 410 29
AnchorPoint: "Anchor-14" 0 0 basechar 0
AnchorPoint: "Anchor-13" 501 518 basechar 0
AnchorPoint: "Anchor-12" 348 703 basechar 0
AnchorPoint: "Anchor-11" 428 0 basechar 0
AnchorPoint: "Anchor-10" 250 0 basechar 0
LayerCount: 2
Back
Fore
SplineSet
266 703 m 0xbe
 276 703 281 697 280 688 c 0
 279 681 274 675 265 675 c 0
 256 675 251 682 251 690 c 0
 252 697 258 703 266 703 c 0xbe
426 703 m 0
 435 703 440 697 439 688 c 0
 438 681 433 675 424 675 c 0
 415 675 409 682 410 690 c 0
 411 697 417 703 426 703 c 0
491 518 m 1
 418 0 l 1
 407 0 l 1x7e
 429 165 l 1
 383 57 307 -9 219 -9 c 0
 132 -9 86 46 100 150 c 2
 152 518 l 1
 166 518 l 1
 114 150 l 2
 101 52 142 4 220 4 c 0
 308 4 381 75 431 191 c 1
 477 518 l 1
 491 518 l 1
EndSplineSet
Substitution2: "'smcp' Lowercase to Small Capitals lookup 28 subtable" udieresis.sc
Substitution2: "'aalt' Access All Alternates lookup 0 subtable" udieresis.sc
EndChar

StartChar: yacute
Encoding: 253 253 258
Width: 440
GlyphClass: 2
Flags: MW
HStem: -192.43 21G 0 10 498.28 20G
VStem: -4.57001 455.28
AnchorPoint: "Anchor-11" 0 0 basechar 0
AnchorPoint: "Anchor-10" 0 0 basechar 0
AnchorPoint: "Anchor-9" 253 518 basechar 0
AnchorPoint: "Anchor-8" 0 0 basechar 0
LayerCount: 2
Fore
SplineSet
366.14 740.14 m 1
 180.709 657.279 l 1
 177.279 667.43 l 1
 361.279 755 l 1
 366.14 740.14 l 1
198.999 -1.29102 m 2
 143.569 -114.581 108.148 -161.581 -3.28125 -192.431 c 1
 -4.57129 -181.001 l 1
 102.719 -150.571 131.719 -106.432 184.999 0.428711 c 1
 178.289 -0.000976562 l 1
 62.1387 518.279 l 1
 76.999 518.279 l 1
 189.709 9.99902 l 1
 434.999 518.279 l 1
 450.709 518.279 l 1
 198.999 -1.29102 l 2
EndSplineSet
Substitution2: "'smcp' Lowercase to Small Capitals lookup 24 subtable" yacute.sc
Substitution2: "'aalt' Access All Alternates lookup 0 subtable" yacute.sc
EndChar

StartChar: thorn
Encoding: 254 254 221
Width: 569
GlyphClass: 2
Flags: MW
HStem: -193.86 21G -9.44 13.14 515.13 13.15 713.42 20G
VStem: 478.99 14
LayerCount: 2
Fore
SplineSet
342.71 528.28 m 0
 441.28 528.28 492.988 460.709 492.988 338.989 c 0
 492.988 203.989 431.139 -9.44043 245.278 -9.44043 c 0
 192.738 -9.44043 151.599 -0.310547 100.959 21.7197 c 1
 71.2891 -191.58 l 1
 56.8594 -193.86 l 1
 187.14 731.71 l 1
 201.14 733.42 l 1
 158.52 430.74 l 1
 206.149 486.8 264.89 528.28 342.71 528.28 c 0
244.848 3.70898 m 0
 421.987 3.70898 478.987 212.699 478.987 339.85 c 0
 478.987 453.699 432.558 515.129 342.708 515.129 c 0
 263.258 515.129 209.558 474.409 156.107 412.959 c 1
 103.237 34.3086 l 1
 150.678 14.5391 188.357 3.70898 244.848 3.70898 c 0
EndSplineSet
Substitution2: "'smcp' Lowercase to Small Capitals lookup 24 subtable" thorn.sc
Substitution2: "'aalt' Access All Alternates lookup 0 subtable" thorn.sc
EndChar
StartChar: ydieresis
Encoding: 255 255 702
Width: 440
GlyphClass: 2
Flags: MW
HStem: -192 21G<-3 -3> 0 10<178 190> 498 20G<62 77 77 77 435 451 451 451> 675 28<194 201.5 353.5 360.5>
VStem: 183 29 342 29
AnchorPoint: "Anchor-14" 0 0 basechar 0
AnchorPoint: "Anchor-13" 0 0 basechar 0
AnchorPoint: "Anchor-12" 280 703 basechar 0
AnchorPoint: "Anchor-11" 0 0 basechar 0
AnchorPoint: "Anchor-10" 156 -190 basechar 0
LayerCount: 2
Back
Fore
SplineSet
198 703 m 0
 208 703 213 697 212 688 c 0
 211 681 206 675 197 675 c 0
 188 675 183 682 183 690 c 0
 184 697 190 703 198 703 c 0
358 703 m 0
 367 703 372 697 371 688 c 0
 370 681 365 675 356 675 c 0
 347 675 341 682 342 690 c 0
 343 697 349 703 358 703 c 0
451 518 m 1
 199 -1 l 2
 144 -115 108 -162 -3 -192 c 1
 -5 -181 l 1
 103 -150 132 -106 185 0 c 1
 178 0 l 1
 62 518 l 1
 77 518 l 1
 190 10 l 1
 435 518 l 1
 451 518 l 1
EndSplineSet
Substitution2: "'smcp' Lowercase to Small Capitals lookup 28 subtable" ydieresis.sc
Substitution2: "'aalt' Access All Alternates lookup 0 subtable" ydieresis.sc
EndChar

StartChar: Amacron
Encoding: 256 256 7
Width: 557
GlyphClass: 2
Flags: MW
HStem: 0 21G<-6.13965 9.57031 -6.13965 -6.13965 474.86 474.86 474.86 489.71> 207 13.57 667.85 13 812.43 13.57
VStem: -6.14 495.85
AnchorPoint: "Anchor-11" 0 0 basechar 0
AnchorPoint: "Anchor-10" 198 518 basechar 0
AnchorPoint: "Anchor-9" 337 681 basechar 0
AnchorPoint: "Anchor-8" 500 0 basechar 0
LayerCount: 2
Fore
SplineSet
455.71 812.43 m 1
 255.431 812.43 l 1
 257.57 826 l 1
 457.86 826 l 1
 455.71 812.43 l 1
431.69 207 m 1
 110.62 207 l 1
 9.57031 0 l 1
 -6.13965 -0 l 1
 328.71 680.85 l 1
 345.57 680.85 l 1
 489.71 0 l 1
 474.86 0 l 1
 431.69 207 l 1
428.86 220.57 m 1
 335.58 667.851 l 1
 117.24 220.57 l 1
 428.86 220.57 l 1
EndSplineSet
Substitution2: "'c2sc' Capitals to Small Capitals lookup 23 subtable" amacron.sc
Substitution2: "'aalt' Access All Alternates lookup 0 subtable" amacron.sc
Position2: "'cpsp' Capital Spacing lookup 0 subtable" dx=5 dy=0 dh=10 dv=0
EndChar

StartChar: amacron
Encoding: 257 257 140
Width: 544
GlyphClass: 2
Flags: MW
HStem: -9.42999 13.14 515.99 12.29 686.43 13.57
VStem: 70.14 14.43 396.43 12.28
AnchorPoint: "Anchor-11" 0 0 basechar 0
AnchorPoint: "Anchor-10" 0 0 basechar 0
AnchorPoint: "Anchor-9" 335 518 basechar 0
AnchorPoint: "Anchor-8" 452 -9 basechar 0
LayerCount: 2
Fore
SplineSet
258.28 686.43 m 1
 260.43 700 l 1
 460.71 700 l 1
 458.57 686.43 l 1
 258.28 686.43 l 1
331.43 528.28 m 0
 390.859 528.28 431.851 510.99 468.851 487.42 c 1
 412.851 115.85 l 2
 410.28 96.4199 408.71 80.5703 408.71 66.71 c 0
 408.71 30.5703 420.71 11.71 446.86 1.57031 c 1
 442.431 -9.42969 l 1
 396.141 7.28027 392.431 49.5703 398.86 106 c 1
 355.71 31 293.57 -9.42969 227 -9.42969 c 0
 127.71 -9.42969 70.1396 69 70.1396 187.28 c 0
 70.1396 328.57 136.859 528.28 331.43 528.28 c 0
331.851 515.99 m 0
 146.851 515.99 84.5693 321.991 84.5693 187.711 c 0
 84.5693 76.4209 135.999 3.71094 227.429 3.71094 c 0
 293.999 3.71094 354.859 45.5605 401.43 129.131 c 1
 454.43 480.851 l 1
 421.71 502.28 381.28 515.99 331.851 515.99 c 0
EndSplineSet
Substitution2: "'smcp' Lowercase to Small Capitals lookup 24 subtable" amacron.sc
Substitution2: "'aalt' Access All Alternates lookup 0 subtable" amacron.sc
EndChar
StartChar: Abreve
Encoding: 258 258 4
Width: 557
GlyphClass: 2
Flags: MW
HStem: 0 21G<-6 9 -6 -6 475 490 475 475> 207 14<117 429 117 432 110 429> 668 13<336 336> 773 12<321.5 373 321.5 373.5>
VStem: 253 9<843 843>
AnchorPoint: "Anchor-14" 0 0 basechar 0
AnchorPoint: "Anchor-13" 0 0 basechar 0
AnchorPoint: "Anchor-12" 358 845 basechar 0
AnchorPoint: "Anchor-11" 500 0 basechar 0
AnchorPoint: "Anchor-10" 242 0 basechar 0
LayerCount: 2
Back
Fore
SplineSet
347 773 m 0
 294 773 259 804 253 843 c 1
 262 843 l 1
 269 812 296 785 347 785 c 0
 399 785 434 813 449 844 c 1
 458 842 l 1
 441 804 400 773 347 773 c 0
475 0 m 1
 432 207 l 1
 110 207 l 1
 9 0 l 1
 -6 0 l 1
 329 681 l 1
 346 681 l 1
 490 0 l 1
 475 0 l 1
117 221 m 1
 429 221 l 1
 336 668 l 1
 117 221 l 1
EndSplineSet
Substitution2: "'c2sc' Capitals to Small Capitals lookup 27 subtable" abreve.sc
Substitution2: "'aalt' Access All Alternates lookup 0 subtable" abreve.sc
Position2: "'cpsp' Capital Spacing lookup 0 subtable" dx=5 dy=0 dh=10 dv=0
EndChar

StartChar: abreve
Encoding: 259 259 136
Width: 544
GlyphClass: 2
Flags: MW
HStem: -9.42999 13.14 516 12.29 665 11.29
VStem: 70.14 14.43 264.57 8.71001 396.42 12.29
AnchorPoint: "Anchor-11" 0 0 basechar 0
AnchorPoint: "Anchor-10" 0 0 basechar 0
AnchorPoint: "Anchor-9" 335 518 basechar 0
AnchorPoint: "Anchor-8" 452 -9 basechar 0
LayerCount: 2
Fore
SplineSet
356.28 665 m 0
 302.71 665 268.85 695.999 264.569 744.289 c 1
 273.279 744.999 l 1
 278.709 704.429 305.139 676.289 356.289 676.289 c 0
 408.289 676.289 443.569 705.289 460.999 745.859 c 1
 468.859 743.43 l 1
 451.14 695.14 409 665 356.28 665 c 0
331.42 528.289 m 0
 390.85 528.289 431.852 511 468.852 487.43 c 1
 412.852 115.859 l 2
 410.281 96.4297 408.711 80.5693 408.711 66.7197 c 0
 408.711 30.5693 420.711 11.7197 446.851 1.56934 c 1
 442.421 -9.43066 l 1
 396.141 7.28906 392.421 49.5693 398.851 105.999 c 1
 355.711 30.999 293.561 -9.43066 226.99 -9.43066 c 0
 127.71 -9.43066 70.1396 68.999 70.1396 187.289 c 0
 70.1396 328.569 136.85 528.289 331.42 528.289 c 0
331.852 516 m 0
 146.852 516 84.5713 322 84.5713 187.71 c 0
 84.5713 76.4297 136.001 3.70996 227.431 3.70996 c 0
 294.001 3.70996 354.851 45.5703 401.421 129.141 c 1
 454.421 480.851 l 1
 421.711 502.28 381.281 516 331.852 516 c 0
EndSplineSet
Substitution2: "'smcp' Lowercase to Small Capitals lookup 24 subtable" abreve.sc
Substitution2: "'aalt' Access All Alternates lookup 0 subtable" abreve.sc
EndChar

StartChar: Aogonek
Encoding: 260 260 8
Width: 557
GlyphClass: 2
Flags: MW
HStem: -199.15 14 0 21G 207 13.57 667.85 13
VStem: 327.86 15.28
AnchorPoint: "Anchor-11" 0 0 basechar 0
AnchorPoint: "Anchor-10" 198 518 basechar 0
AnchorPoint: "Anchor-9" 337 681 basechar 0
AnchorPoint: "Anchor-8" 500 0 basechar 0
LayerCount: 2
Fore
SplineSet
343.14 -128.14 m 0
 343.14 -165.279 365.432 -185.148 407.432 -185.148 c 0
 425.861 -185.148 439.291 -183.148 461.861 -177.998 c 1
 458.711 -191.998 l 1
 437.571 -197.148 423.711 -199.148 405.141 -199.148 c 0
 354.86 -199.148 327.86 -174.429 327.86 -133.289 c 0
 327.86 -64.4688 394.28 -26.9785 474.05 3.85156 c 1
 431.689 207.002 l 1
 110.619 207.002 l 1
 9.56934 0.00195312 l 1
 -6.14062 0.00195312 l 1
 328.709 680.852 l 1
 345.569 680.852 l 1
 489.43 1.32129 l 1
 490.14 0.000976562 l 1
 399.569 -34.8594 343.14 -71.1396 343.14 -128.14 c 0
428.861 220.571 m 1
 335.571 667.852 l 1
 117.241 220.571 l 1
 428.861 220.571 l 1
EndSplineSet
Substitution2: "'c2sc' Capitals to Small Capitals lookup 23 subtable" aogonek.sc
Substitution2: "'aalt' Access All Alternates lookup 0 subtable" aogonek.sc
Position2: "'cpsp' Capital Spacing lookup 0 subtable" dx=5 dy=0 dh=10 dv=0
EndChar

StartChar: aogonek
Encoding: 261 261 141
Width: 544
GlyphClass: 2
Flags: MW
HStem: -208.58 14 -201.43 21G -9.44 13.15 -4.00999 21G 515.99 12.29
VStem: 70.14 14.42 280.14 15.28 396.41 12.3
AnchorPoint: "Anchor-11" 0 0 basechar 0
AnchorPoint: "Anchor-10" 0 0 basechar 0
AnchorPoint: "Anchor-9" 335 518 basechar 0
AnchorPoint: "Anchor-8" 452 -9 basechar 0
LayerCount: 2
Fore
SplineSet
408.71 66.71 m 0xaf
 408.71 30.5596 420.712 11.7109 446.852 1.56055 c 1
 442.422 -9.43945 l 1
 351.852 -44.2891 295.422 -80.5791 295.422 -137.579 c 0
 295.422 -174.719 317.712 -194.579 359.712 -194.579 c 0
 378.142 -194.579 391.571 -192.579 414.142 -187.429 c 1xaf
 410.991 -201.429 l 1x6f
 389.852 -206.579 375.991 -208.579 357.421 -208.579 c 0
 307.141 -208.579 280.141 -183.859 280.141 -142.72 c 0
 280.141 -72.7393 348.831 -35.1494 430.411 -4.00977 c 1x9f
 395.531 15.4102 393.031 54.9004 398.852 105.99 c 1
 355.712 30.9902 293.562 -9.43945 226.991 -9.43945 c 0
 127.711 -9.43945 70.1406 68.9902 70.1406 187.28 c 0
 70.1406 328.561 136.851 528.28 331.421 528.28 c 0
 390.851 528.28 431.851 510.99 468.851 487.42 c 1
 412.851 115.85 l 2
 410.28 96.4199 408.71 80.5703 408.71 66.71 c 0xaf
227.422 3.71094 m 0
 293.992 3.71094 354.852 45.5615 401.422 129.132 c 1
 454.422 480.852 l 1
 421.712 502.281 381.282 515.991 331.853 515.991 c 0
 146.853 515.991 84.5625 321.991 84.5625 187.711 c 0
 84.5625 76.4209 135.992 3.71094 227.422 3.71094 c 0
EndSplineSet
Substitution2: "'smcp' Lowercase to Small Capitals lookup 24 subtable" aogonek.sc
Substitution2: "'aalt' Access All Alternates lookup 0 subtable" aogonek.sc
EndChar

StartChar: Cacute
Encoding: 262 262 15
Width: 535
GlyphClass: 2
Flags: MW
HStem: -9.44 14.01 677.28 13.57
VStem: 86.28 14.43
AnchorPoint: "Anchor-11" 305 0 basechar 0
AnchorPoint: "Anchor-10" 0 0 basechar 0
AnchorPoint: "Anchor-9" 402 681 basechar 0
AnchorPoint: "Anchor-8" 0 0 basechar 0
LayerCount: 2
Fore
SplineSet
513.28 838.71 m 1
 329.71 766.711 l 1
 326.57 776.851 l 1
 508 853.57 l 1
 513.28 838.71 l 1
403 690.851 m 0
 477 690.851 518.281 666.13 552.571 632.99 c 1
 543.852 622.42 l 1
 507.571 656.56 472.001 677.279 403.851 677.279 c 0
 175.001 677.279 100.711 424.419 100.711 255.989 c 0
 100.711 90.4189 182.711 4.56934 305.431 4.56934 c 0
 384.28 4.56934 432.431 33.1396 472.28 63.1396 c 1
 480.57 51.71 l 1
 439 19.9902 384.85 -9.43945 305 -9.43945 c 0
 172.57 -9.43945 86.2803 82.9902 86.2803 255.561 c 0
 86.2803 433.711 166 690.851 403 690.851 c 0
EndSplineSet
Substitution2: "'c2sc' Capitals to Small Capitals lookup 23 subtable" cacute.sc
Substitution2: "'locl' Localized Forms in Latin lookup 7 subtable" Cacute.loclPLK
AlternateSubs2: "'aalt' Access All Alternates lookup 1 subtable" Cacute.loclPLK cacute.sc
Position2: "'cpsp' Capital Spacing lookup 0 subtable" dx=5 dy=0 dh=10 dv=0
EndChar
StartChar: cacute
Encoding: 263 263 381
Width: 466
GlyphClass: 2
Flags: MW
HStem: -9 13<197 273 197 274> 516 12<238.5 344.5>
VStem: 71 15<132.5 270 132.5 273>
AnchorPoint: "Anchor-14" 0 0 basechar 0
AnchorPoint: "Anchor-13" 0 0 basechar 0
AnchorPoint: "Anchor-12" 342 755 basechar 0
AnchorPoint: "Anchor-11" 0 0 basechar 0
AnchorPoint: "Anchor-10" 247 -1 basechar 0
LayerCount: 2
Back
Fore
SplineSet
429 755 m 1
 434 740 l 1
 249 657 l 1
 245 667 l 1
 429 755 l 1
319 528 m 0
 373 528 413 512 445 478 c 1
 436 469 l 1
 406 499 370 516 319 516 c 0
 158 516 86 344 86 196 c 0
 86 69 149 4 245 4 c 0
 301 4 344 24 382 54 c 1
 390 44 l 1
 350 12 304 -9 244 -9 c 0
 141 -9 71 62 71 196 c 0
 71 350 148 528 319 528 c 0
EndSplineSet
Substitution2: "'smcp' Lowercase to Small Capitals lookup 28 subtable" cacute.sc
Substitution2: "'locl' Localized Forms in Latin lookup 7 subtable" cacute.loclPLK
AlternateSubs2: "'aalt' Access All Alternates lookup 1 subtable" cacute.loclPLK cacute.sc
EndChar
StartChar: Ccircumflex
Encoding: 264 264 46
Width: 535
GlyphClass: 2
Flags: MW
HStem: -9 14<243.5 344.5 243.5 345> 677 14<289 437.5> 846 16<421 421>
VStem: 86 15<173 340 173 345>
AnchorPoint: "Anchor-14" 0 0 basechar 0
AnchorPoint: "Anchor-13" 485 713 basechar 0
AnchorPoint: "Anchor-12" 422 862 basechar 0
AnchorPoint: "Anchor-11" 0 0 basechar 0
AnchorPoint: "Anchor-10" 305 0 basechar 0
LayerCount: 2
Back
Fore
SplineSet
522 768 m 1
 421 846 l 1
 299 768 l 1
 292 776 l 1
 418 862 l 1
 426 862 l 1
 530 776 l 1
 522 768 l 1
403 691 m 0
 477 691 518 666 553 633 c 1
 544 622 l 1
 508 657 472 677 403 677 c 0
 175 677 101 424 101 256 c 0
 101 90 182 5 305 5 c 0
 384 5 432 33 472 63 c 1
 481 52 l 1
 439 20 385 -9 305 -9 c 0
 173 -9 86 83 86 256 c 0
 86 434 166 691 403 691 c 0
EndSplineSet
Substitution2: "'c2sc' Capitals to Small Capitals lookup 27 subtable" ccircumflex.sc
Substitution2: "'aalt' Access All Alternates lookup 0 subtable" ccircumflex.sc
Position2: "'cpsp' Capital Spacing lookup 0 subtable" dx=5 dy=0 dh=10 dv=0
EndChar
StartChar: ccircumflex
Encoding: 265 265 384
Width: 466
GlyphClass: 2
Flags: MW
HStem: -9 13<197 273 197 274> 516 12<238.5 344.5> 740 15<344 344>
VStem: 71 15<132.5 270 132.5 273>
AnchorPoint: "Anchor-14" 0 0 basechar 0
AnchorPoint: "Anchor-13" 0 0 basechar 0
AnchorPoint: "Anchor-12" 346 755 basechar 0
AnchorPoint: "Anchor-11" 0 0 basechar 0
AnchorPoint: "Anchor-10" 247 -1 basechar 0
LayerCount: 2
Back
Fore
SplineSet
221 656 m 1
 213 664 l 1
 342 755 l 1
 350 755 l 1
 452 664 l 1
 444 656 l 1
 344 740 l 1
 221 656 l 1
319 528 m 0
 373 528 413 512 445 478 c 1
 436 469 l 1
 406 499 370 516 319 516 c 0
 158 516 86 344 86 196 c 0
 86 69 149 4 245 4 c 0
 301 4 344 24 382 54 c 1
 390 44 l 1
 350 12 304 -9 244 -9 c 0
 141 -9 71 62 71 196 c 0
 71 350 148 528 319 528 c 0
EndSplineSet
Substitution2: "'smcp' Lowercase to Small Capitals lookup 28 subtable" ccircumflex.sc
Substitution2: "'aalt' Access All Alternates lookup 0 subtable" ccircumflex.sc
EndChar
StartChar: Cdotaccent
Encoding: 266 266 47
Width: 535
GlyphClass: 2
Flags: MW
HStem: -9 14<243.5 344.5 243.5 345> 677 14<289 437.5> 814 29<419.5 427.5>
VStem: 86 15<173 340 173 345> 409 29<829 829>
AnchorPoint: "Anchor-14" 0 0 basechar 0
AnchorPoint: "Anchor-13" 0 0 basechar 0
AnchorPoint: "Anchor-12" 423 843 basechar 0
AnchorPoint: "Anchor-11" 0 0 basechar 0
AnchorPoint: "Anchor-10" 305 0 basechar 0
LayerCount: 2
Back
Fore
SplineSet
424 843 m 0
 434 843 438 836 438 828 c 0
 437 820 432 814 423 814 c 0
 413 814 408 821 409 829 c 0
 410 837 415 843 424 843 c 0
403 691 m 0
 477 691 518 666 553 633 c 1
 544 622 l 1
 508 657 472 677 403 677 c 0
 175 677 101 424 101 256 c 0
 101 90 182 5 305 5 c 0
 384 5 432 33 472 63 c 1
 481 52 l 1
 439 20 385 -9 305 -9 c 0
 173 -9 86 83 86 256 c 0
 86 434 166 691 403 691 c 0
EndSplineSet
Substitution2: "'c2sc' Capitals to Small Capitals lookup 27 subtable" cdotaccent.sc
Substitution2: "'aalt' Access All Alternates lookup 0 subtable" cdotaccent.sc
Position2: "'cpsp' Capital Spacing lookup 0 subtable" dx=5 dy=0 dh=10 dv=0
EndChar

StartChar: cdotaccent
Encoding: 267 267 152
Width: 466
GlyphClass: 2
Flags: MW
HStem: -9.42999 13.14 515.57 12.71 688.43 28.28
VStem: 74 14.42 324 28.71
AnchorPoint: "Anchor-11" 248 -1 basechar 0
AnchorPoint: "Anchor-10" 0 0 basechar 0
AnchorPoint: "Anchor-9" 313 518 basechar 0
AnchorPoint: "Anchor-8" 0 0 basechar 0
LayerCount: 2
Fore
SplineSet
339 716.71 m 0
 349 716.71 353.571 709.86 352.711 701.71 c 0
 351.861 694.43 346.861 688.43 337.711 688.43 c 0
 328.141 688.43 323.141 695.279 324.001 703.43 c 0
 324.851 710.71 330.28 716.71 339 716.71 c 0
319.431 528.28 m 0
 373.291 528.28 413.001 511.719 445.711 478.289 c 1
 436.431 469.139 l 1
 406.711 499.999 370.001 515.569 319.851 515.569 c 0
 177.421 515.569 101.571 378.999 88.4209 231.139 c 0
 74.7109 83.709 141.421 3.70898 245.141 3.70898 c 0
 301.57 3.70898 344 23.8594 382.57 53.5693 c 1
 390 43.5693 l 1
 350.28 11.7197 304.851 -9.43066 246.001 -9.43066 c 0
 131.431 -9.43066 60.2803 76.1396 74 231.14 c 0
 87.71 385.71 167.28 528.28 319.431 528.28 c 0
EndSplineSet
Substitution2: "'smcp' Lowercase to Small Capitals lookup 24 subtable" cdotaccent.sc
Substitution2: "'aalt' Access All Alternates lookup 0 subtable" cdotaccent.sc
EndChar

StartChar: Ccaron
Encoding: 268 268 16
Width: 535
GlyphClass: 2
Flags: MW
HStem: -9.42999 14 677.28 13.58 762 15.28
VStem: 86.28 14.43
AnchorPoint: "Anchor-11" 305 0 basechar 0
AnchorPoint: "Anchor-10" 0 0 basechar 0
AnchorPoint: "Anchor-9" 402 681 basechar 0
AnchorPoint: "Anchor-8" 0 0 basechar 0
LayerCount: 2
Fore
SplineSet
539 847.43 m 1
 411.71 762.001 l 1
 403.71 762.001 l 1
 300.85 847.431 l 1
 308.85 855.28 l 1
 409.42 777.28 l 1
 531.85 855.71 l 1
 539 847.43 l 1
402.99 690.861 m 0
 476.99 690.861 518.28 666.141 552.561 632.99 c 1
 543.851 622.42 l 1
 507.561 656.57 471.99 677.28 403.851 677.28 c 0
 174.99 677.28 100.71 424.431 100.71 256.001 c 0
 100.71 90.4307 182.71 4.57031 305.42 4.57031 c 0
 384.28 4.57031 432.42 33.1406 472.28 63.1406 c 1
 480.561 51.7109 l 1
 438.99 20.001 384.851 -9.42871 304.99 -9.42871 c 0
 172.561 -9.42871 86.2803 83.001 86.2803 255.571 c 0
 86.2803 433.711 165.99 690.861 402.99 690.861 c 0
EndSplineSet
Substitution2: "'c2sc' Capitals to Small Capitals lookup 23 subtable" ccaron.sc
Substitution2: "'aalt' Access All Alternates lookup 0 subtable" ccaron.sc
Position2: "'cpsp' Capital Spacing lookup 0 subtable" dx=5 dy=0 dh=10 dv=0
EndChar

StartChar: ccaron
Encoding: 269 269 149
Width: 466
GlyphClass: 2
Flags: MW
HStem: -9.42 13.14 515.57 12.72 645 15.29 715.86 20G
VStem: 73.99 14.43
AnchorPoint: "Anchor-11" 248 -1 basechar 0
AnchorPoint: "Anchor-10" 0 0 basechar 0
AnchorPoint: "Anchor-9" 313 518 basechar 0
AnchorPoint: "Anchor-8" 0 0 basechar 0
LayerCount: 2
Fore
SplineSet
466.86 735.86 m 1
 338.57 645 l 1
 330.57 645 l 1
 228.71 735.86 l 1
 236.71 744.141 l 1
 336.28 660.291 l 1
 459.71 744.141 l 1
 466.86 735.86 l 1
319.42 528.29 m 0
 373.28 528.29 412.99 511.719 445.71 478.289 c 1
 436.42 469.149 l 1
 406.71 499.999 369.99 515.569 319.851 515.569 c 0
 177.421 515.569 101.561 378.999 88.4209 231.149 c 0
 74.7012 83.7197 141.421 3.71973 245.131 3.71973 c 0
 301.561 3.71973 343.99 23.8594 382.561 53.5791 c 1
 389.99 43.5791 l 1
 350.28 11.7188 304.851 -9.4209 245.99 -9.4209 c 0
 131.42 -9.4209 60.2803 76.1494 73.9902 231.149 c 0
 87.71 385.72 167.28 528.29 319.42 528.29 c 0
EndSplineSet
Substitution2: "'smcp' Lowercase to Small Capitals lookup 24 subtable" ccaron.sc
Substitution2: "'aalt' Access All Alternates lookup 0 subtable" ccaron.sc
EndChar

StartChar: Dcaron
Encoding: 270 270 22
Width: 617
GlyphClass: 2
Flags: MW
HStem: 0 13.57 667.28 13.57 762 15.28
VStem: 540.29 14.42
AnchorPoint: "Anchor-11" 0 0 basechar 0
AnchorPoint: "Anchor-10" 0 0 basechar 0
AnchorPoint: "Anchor-9" 351 681 basechar 0
AnchorPoint: "Anchor-8" 0 0 basechar 0
LayerCount: 2
Fore
SplineSet
488.71 847.43 m 1
 361.42 762.001 l 1
 353.42 762.001 l 1
 250.57 847.431 l 1
 258.57 855.28 l 1
 359.141 777.28 l 1
 481.57 855.71 l 1
 488.71 847.43 l 1
298.99 680.851 m 2
 427.84 680.851 554.71 638.001 554.71 433.001 c 0
 554.71 228.281 467.42 0.000976562 209.71 0.000976562 c 2
 89.2803 0.000976562 l 1
 184.71 680.851 l 1
 298.99 680.851 l 2
197.43 667.28 m 1
 105.858 13.5703 l 1
 211.429 13.5703 l 2
 458.139 13.5703 540.289 236.57 540.289 433.431 c 0
 540.289 630.431 418.289 667.28 296.859 667.28 c 2
 197.43 667.28 l 1
EndSplineSet
Substitution2: "'c2sc' Capitals to Small Capitals lookup 23 subtable" dcaron.sc
Substitution2: "'aalt' Access All Alternates lookup 0 subtable" dcaron.sc
Position2: "'cpsp' Capital Spacing lookup 0 subtable" dx=5 dy=0 dh=10 dv=0
EndChar

StartChar: dcaron
Encoding: 271 271 155
Width: 571
GlyphClass: 2
Flags: MW
HStem: -9.42999 13.14 -0.00999451 21G 515.56 12.72 713.43 20G 717 20G<619.431 619.431>
VStem: 73.57 14.43
LayerCount: 2
Fore
SplineSet
634.28 735.28 m 1xac
 591.141 594 l 1
 581.001 595.28 l 1
 619.431 737 l 1
 634.28 735.28 l 1xac
516.86 731.71 m 1xb4
 413.998 -0.00976562 l 1
 402.148 -0.00976562 l 1x6c
 419.719 137.42 l 1
 376.999 61.1396 320.089 -9.43066 225.569 -9.43066 c 0
 133.43 -9.43066 73.5693 62.709 73.5693 186.709 c 0
 73.5693 320.999 133.859 528.279 314.569 528.279 c 0
 397.619 528.279 441.439 480.379 461.38 436.199 c 1
 502.86 733.43 l 1
 516.86 731.71 l 1xb4
314.998 515.561 m 0
 145.138 515.561 87.998 316.99 87.998 187.141 c 0
 87.998 70.1406 141.718 3.71094 225.998 3.71094 c 0xac
 318.938 3.71094 373.998 75.7109 423.148 163.561 c 1
 458.998 417.851 l 1
 437.288 468.851 394.708 515.561 314.998 515.561 c 0
EndSplineSet
Substitution2: "'smcp' Lowercase to Small Capitals lookup 24 subtable" dcaron.sc
Substitution2: "'aalt' Access All Alternates lookup 0 subtable" dcaron.sc
EndChar
StartChar: dcroat
Encoding: 273 273 395
Width: 576
GlyphClass: 2
Flags: MW
HStem: -9 13<185 273.5 185 274> 0 21G<403 415 403 403> 516 12<231 356> 632 13<315 490 315 492 506 578 315 504> 632 102<315 504 504 578 504 504>
VStem: 75 14<128.5 252 128.5 254>
AnchorPoint: "Anchor-14" 290 259 basechar 0
AnchorPoint: "Anchor-13" 559 730 basechar 0
AnchorPoint: "Anchor-12" 344 730 basechar 0
AnchorPoint: "Anchor-11" 0 0 basechar 0
AnchorPoint: "Anchor-10" 255 0 basechar 0
LayerCount: 2
Back
Fore
SplineSet
580 645 m 1xb4
 578 632 l 1
 504 632 l 1
 415 0 l 1
 403 0 l 1x74
 421 137 l 1
 378 61 321 -9 227 -9 c 0
 135 -9 75 63 75 187 c 0
 75 321 135 528 316 528 c 0
 399 528 443 480 462 436 c 1
 490 632 l 1
 315 632 l 1
 315 645 l 1
 492 645 l 1xb4
 504 734 l 1
 518 732 l 1xac
 506 645 l 1
 580 645 l 1xb4
424 164 m 1
 460 418 l 1
 438 469 396 516 316 516 c 0
 146 516 89 317 89 187 c 0
 89 70 143 4 227 4 c 0xb4
 320 4 375 76 424 164 c 1
EndSplineSet
Substitution2: "'smcp' Lowercase to Small Capitals lookup 28 subtable" dcroat.sc
Substitution2: "'aalt' Access All Alternates lookup 0 subtable" dcroat.sc
EndChar

StartChar: Emacron
Encoding: 274 274 32
Width: 494
GlyphClass: 2
Flags: MW
HStem: 0 13.57 353.57 13.14 667.28 13.57 812.43 13.57
VStem: 89.28 409.86
AnchorPoint: "Anchor-11" 247 0 basechar 0
AnchorPoint: "Anchor-10" 88 518 basechar 0
AnchorPoint: "Anchor-9" 345 681 basechar 0
AnchorPoint: "Anchor-8" 394 0 basechar 0
LayerCount: 2
Fore
SplineSet
262.71 812.43 m 1
 264.859 826 l 1
 465.14 826 l 1
 463 812.43 l 1
 262.71 812.43 l 1
495.709 667.28 m 1
 197.429 667.281 l 1
 155.568 366.711 l 1
 412.139 366.711 l 1
 410.429 353.571 l 1
 153.858 353.571 l 1
 105.858 13.5713 l 1
 414.139 13.5713 l 1
 411.999 0.000976562 l 1
 89.2793 0.000976562 l 1
 184.709 680.851 l 1
 499.139 680.851 l 1
 495.709 667.28 l 1
EndSplineSet
Substitution2: "'c2sc' Capitals to Small Capitals lookup 23 subtable" emacron.sc
Substitution2: "'aalt' Access All Alternates lookup 0 subtable" emacron.sc
Position2: "'cpsp' Capital Spacing lookup 0 subtable" dx=5 dy=0 dh=10 dv=0
EndChar
StartChar: emacron
Encoding: 275 275 427
Width: 518
GlyphClass: 2
Flags: MW
HStem: -9 13<194 273.5 194 274.5> 216 12<85 85> 516 12<242.5 361.5> 686 14<234 432 232 434>
VStem: 70 15<130 193 193 216> 454 14<360.5 444.5>
AnchorPoint: "Anchor-14" 0 0 basechar 0
AnchorPoint: "Anchor-13" 0 0 basechar 0
AnchorPoint: "Anchor-12" 335 700 basechar 0
AnchorPoint: "Anchor-11" 342 8 basechar 0
AnchorPoint: "Anchor-10" 237 0 basechar 0
LayerCount: 2
Back
Fore
SplineSet
434 700 m 1
 432 686 l 1
 232 686 l 1
 234 700 l 1
 434 700 l 1
468 412 m 0
 468 298 341 230 85 216 c 1
 85 193 l 2
 85 67 146 4 242 4 c 0
 305 4 348 24 399 61 c 1
 407 50 l 1
 355 12 307 -9 242 -9 c 0
 135 -9 70 61 70 193 c 0
 70 325 137 528 323 528 c 0
 406 528 468 485 468 412 c 0
323 516 m 0
 162 516 97 352 86 228 c 1
 339 242 454 309 454 412 c 0
 454 477 400 516 323 516 c 0
EndSplineSet
Substitution2: "'smcp' Lowercase to Small Capitals lookup 28 subtable" emacron.sc
Substitution2: "'aalt' Access All Alternates lookup 0 subtable" emacron.sc
EndChar

StartChar: Ebreve
Encoding: 276 276 26
Width: 494
GlyphClass: 2
Flags: MW
HStem: 0 13.57 353.57 13.14 667.28 13.57 773.43 11.28
VStem: 89.28 409.86
AnchorPoint: "Anchor-11" 247 0 basechar 0
AnchorPoint: "Anchor-10" 88 518 basechar 0
AnchorPoint: "Anchor-9" 345 681 basechar 0
AnchorPoint: "Anchor-8" 394 0 basechar 0
LayerCount: 2
Fore
SplineSet
354.14 773.43 m 0
 300.569 773.43 266.279 804.43 260.43 842.71 c 1
 268.71 843.43 l 1
 275.71 812.279 303 784.709 354.14 784.709 c 0
 406.14 784.709 440.569 813.139 456.43 844.289 c 1
 464.71 841.859 l 1
 448 803.569 406.85 773.43 354.14 773.43 c 0
495.71 667.279 m 1
 197.43 667.28 l 1
 155.569 366.71 l 1
 412.14 366.71 l 1
 410.43 353.57 l 1
 153.859 353.57 l 1
 105.859 13.5703 l 1
 414.14 13.5703 l 1
 412 0 l 1
 89.2803 -0 l 1
 184.71 680.85 l 1
 499.14 680.85 l 1
 495.71 667.279 l 1
EndSplineSet
Substitution2: "'c2sc' Capitals to Small Capitals lookup 23 subtable" ebreve.sc
Substitution2: "'aalt' Access All Alternates lookup 0 subtable" ebreve.sc
Position2: "'cpsp' Capital Spacing lookup 0 subtable" dx=5 dy=0 dh=10 dv=0
EndChar

StartChar: ebreve
Encoding: 277 277 159
Width: 524
GlyphClass: 2
Flags: MW
HStem: -9.42 13.14 216.05 12.27 515.58 12.71 665 11.29
VStem: 70.71 14.43 238.57 8.71001 454.43 14.42
AnchorPoint: "Anchor-11" 238 0 basechar 0
AnchorPoint: "Anchor-10" 0 0 basechar 0
AnchorPoint: "Anchor-9" 309 518 basechar 0
AnchorPoint: "Anchor-8" 343 8 basechar 0
LayerCount: 2
Fore
SplineSet
330.28 665 m 0
 276.71 665 242.85 695.999 238.569 744.289 c 1
 247.279 744.999 l 1
 252.709 704.429 279.139 676.289 330.289 676.289 c 0
 382.289 676.289 417.569 705.289 434.999 745.859 c 1
 442.859 743.43 l 1
 425.14 695.14 383 665 330.28 665 c 0
468.851 412.289 m 0
 468.851 298.399 341.491 229.518 85.7812 216.048 c 1
 85.3516 208.298 85.1416 200.748 85.1416 193.438 c 0
 85.1416 66.7188 146.142 3.71875 241.991 3.71875 c 0
 305.711 3.71875 348.421 24.2891 399.571 61.0088 c 1
 407.001 50.4385 l 1
 355.001 12.0088 307.431 -9.4209 242.001 -9.4209 c 0
 135.281 -9.4209 70.7109 61.4287 70.7109 192.999 c 0
 70.7109 324.569 137.711 528.289 323.281 528.289 c 0
 406.421 528.289 468.851 485.429 468.851 412.289 c 0
323.281 515.577 m 0
 162.661 515.577 97.0527 352.047 86.6523 228.316 c 1
 339.122 242.137 454.432 308.867 454.432 411.867 c 0
 454.432 477.147 400.281 515.577 323.281 515.577 c 0
EndSplineSet
Substitution2: "'smcp' Lowercase to Small Capitals lookup 24 subtable" ebreve.sc
Substitution2: "'aalt' Access All Alternates lookup 0 subtable" ebreve.sc
EndChar

StartChar: Edotaccent
Encoding: 278 278 30
Width: 494
GlyphClass: 2
Flags: MW
HStem: 0 13.57 353.57 13.14 667.28 13.57 814.43 28.28
VStem: 350.57 28.71
AnchorPoint: "Anchor-11" 247 0 basechar 0
AnchorPoint: "Anchor-10" 88 518 basechar 0
AnchorPoint: "Anchor-9" 345 681 basechar 0
AnchorPoint: "Anchor-8" 394 0 basechar 0
LayerCount: 2
Fore
SplineSet
365.57 842.71 m 0
 375.57 842.71 380.142 835.86 379.281 827.71 c 0
 378.432 820.43 373.432 814.43 364.281 814.43 c 0
 354.711 814.43 349.711 821.279 350.571 829.43 c 0
 351.421 836.71 356.851 842.71 365.57 842.71 c 0
495.711 667.28 m 1
 197.431 667.281 l 1
 155.57 366.711 l 1
 412.141 366.711 l 1
 410.431 353.571 l 1
 153.86 353.571 l 1
 105.86 13.5713 l 1
 414.141 13.5713 l 1
 412.001 0.000976562 l 1
 89.2812 0.000976562 l 1
 184.711 680.851 l 1
 499.141 680.851 l 1
 495.711 667.28 l 1
EndSplineSet
Substitution2: "'c2sc' Capitals to Small Capitals lookup 23 subtable" edotaccent.sc
Substitution2: "'aalt' Access All Alternates lookup 0 subtable" edotaccent.sc
Position2: "'cpsp' Capital Spacing lookup 0 subtable" dx=5 dy=0 dh=10 dv=0
EndChar

StartChar: edotaccent
Encoding: 279 279 163
Width: 524
GlyphClass: 2
Flags: MW
HStem: -9.42999 13.15 216.05 12.27 515.58 12.7 688.43 28.28
VStem: 70.71 14.43 320.14 28.71 454.43 14.42
AnchorPoint: "Anchor-11" 238 0 basechar 0
AnchorPoint: "Anchor-10" 0 0 basechar 0
AnchorPoint: "Anchor-9" 309 518 basechar 0
AnchorPoint: "Anchor-8" 343 8 basechar 0
LayerCount: 2
Fore
SplineSet
333.85 688.43 m 0
 324.279 688.43 319.28 695.279 320.141 703.43 c 0
 320.99 710.71 326.42 716.71 335.14 716.71 c 0
 345.14 716.71 349.71 709.86 348.85 701.71 c 0
 348 694.43 343 688.43 333.85 688.43 c 0
468.851 412.279 m 0
 468.851 298.39 341.491 229.507 85.7812 216.047 c 1
 85.3516 208.297 85.1416 200.737 85.1416 193.428 c 0
 85.1416 66.7178 146.142 3.71777 241.991 3.71777 c 0
 305.711 3.71777 348.421 24.2881 399.571 60.998 c 1
 407.001 50.4277 l 1
 355.001 11.998 307.431 -9.43164 242.001 -9.43164 c 0
 135.281 -9.43164 70.7109 61.4287 70.7109 192.999 c 0
 70.7109 324.569 137.711 528.279 323.281 528.279 c 0
 406.421 528.279 468.851 485.43 468.851 412.279 c 0
323.281 515.576 m 0
 162.661 515.576 97.0527 352.035 86.6523 228.315 c 1
 339.122 242.136 454.432 308.866 454.432 411.856 c 0
 454.432 477.146 400.281 515.576 323.281 515.576 c 0
EndSplineSet
Substitution2: "'smcp' Lowercase to Small Capitals lookup 24 subtable" edotaccent.sc
Substitution2: "'aalt' Access All Alternates lookup 0 subtable" edotaccent.sc
EndChar
StartChar: Eogonek
Encoding: 280 280 84
Width: 494
GlyphClass: 2
Flags: MW
HStem: -199 14<281 308.5> 0 14<106 359 384 412 384 384> 354 13<156 410 154 412> 667 14<197 496 197 197>
VStem: 222 15<-146.5 -100>
AnchorPoint: "Anchor-14" 0 0 basechar 0
AnchorPoint: "Anchor-13" 0 0 basechar 0
AnchorPoint: "Anchor-12" 345 681 basechar 0
AnchorPoint: "Anchor-11" 394 0 basechar 0
AnchorPoint: "Anchor-10" 247 0 basechar 0
LayerCount: 2
Back
Fore
SplineSet
496 667 m 1
 197 667 l 1
 156 367 l 1
 412 367 l 1
 410 354 l 1
 154 354 l 1
 106 14 l 1
 414 14 l 1
 412 0 l 1
 384 0 l 1
 294 -35 237 -71 237 -128 c 0
 237 -165 260 -185 302 -185 c 0
 320 -185 334 -183 356 -178 c 1
 353 -192 l 1
 332 -197 318 -199 299 -199 c 0
 249 -199 222 -174 222 -133 c 0
 222 -67 283 -30 359 0 c 1
 89 0 l 1
 185 681 l 1
 499 681 l 1
 496 667 l 1
EndSplineSet
Substitution2: "'c2sc' Capitals to Small Capitals lookup 27 subtable" eogonek.sc
Substitution2: "'aalt' Access All Alternates lookup 0 subtable" eogonek.sc
Position2: "'cpsp' Capital Spacing lookup 0 subtable" dx=5 dy=0 dh=10 dv=0
EndChar

StartChar: eogonek
Encoding: 281 281 166
Width: 524
GlyphClass: 2
Flags: MW
HStem: -191.29 14 -9.42999 13.13 216.03 12.27 515.56 12.72
VStem: 70.71 14.43 188.43 15.29 454.43 14.42
AnchorPoint: "Anchor-11" 238 0 basechar 0
AnchorPoint: "Anchor-10" 0 0 basechar 0
AnchorPoint: "Anchor-9" 309 518 basechar 0
AnchorPoint: "Anchor-8" 343 8 basechar 0
LayerCount: 2
Fore
SplineSet
468.85 412.28 m 0
 468.85 298.391 341.49 229.499 85.7803 216.029 c 1
 85.3506 208.279 85.1406 200.729 85.1406 193.42 c 0
 85.1406 66.7002 146.141 3.7002 241.99 3.7002 c 0
 305.71 3.7002 348.42 24.2705 399.57 60.9902 c 1
 407 50.4199 l 1
 378.55 29.3896 351.42 13.46 321.97 3.33984 c 1
 260.85 -22.79 203.72 -55.8896 203.72 -112.58 c 0
 203.72 -154.15 231.72 -177.29 277 -177.29 c 0
 295 -177.29 308.43 -175.29 330 -170.15 c 1
 328.72 -184.15 l 1
 307.569 -189.29 294.289 -191.29 275.289 -191.29 c 0
 219.569 -191.29 188.43 -161.15 188.43 -113 c 0
 188.43 -65.7305 225.62 -32.6006 277.63 -7.12012 c 1
 266.3 -8.65039 254.47 -9.43066 242 -9.43066 c 0
 135.28 -9.43066 70.71 61.4297 70.71 193 c 0
 70.71 324.57 137.71 528.28 323.28 528.28 c 0
 406.42 528.28 468.85 485.431 468.85 412.28 c 0
323.28 515.559 m 0
 162.66 515.559 97.0518 352.028 86.6514 228.298 c 1
 339.121 242.118 454.431 308.849 454.431 411.849 c 0
 454.431 477.129 400.28 515.559 323.28 515.559 c 0
EndSplineSet
Substitution2: "'smcp' Lowercase to Small Capitals lookup 24 subtable" eogonek.sc
Substitution2: "'aalt' Access All Alternates lookup 0 subtable" eogonek.sc
EndChar

StartChar: Ecaron
Encoding: 282 282 27
Width: 494
GlyphClass: 2
Flags: MW
HStem: 0 13.57 353.57 13.14 667.28 13.57 762 15.28
VStem: 89.28 409.86
AnchorPoint: "Anchor-11" 247 0 basechar 0
AnchorPoint: "Anchor-10" 88 518 basechar 0
AnchorPoint: "Anchor-9" 345 681 basechar 0
AnchorPoint: "Anchor-8" 394 0 basechar 0
LayerCount: 2
Fore
SplineSet
482 847.43 m 1
 354.71 762.001 l 1
 346.71 762.001 l 1
 243.85 847.431 l 1
 251.85 855.28 l 1
 352.42 777.28 l 1
 474.85 855.71 l 1
 482 847.43 l 1
495.71 667.281 m 1
 197.42 667.282 l 1
 155.57 366.712 l 1
 412.141 366.712 l 1
 410.421 353.572 l 1
 153.851 353.572 l 1
 105.851 13.5723 l 1
 414.141 13.5723 l 1
 411.99 0.00195312 l 1
 89.2803 0.00195312 l 1
 184.71 680.852 l 1
 499.14 680.852 l 1
 495.71 667.281 l 1
EndSplineSet
Substitution2: "'c2sc' Capitals to Small Capitals lookup 23 subtable" ecaron.sc
Substitution2: "'aalt' Access All Alternates lookup 0 subtable" ecaron.sc
Position2: "'cpsp' Capital Spacing lookup 0 subtable" dx=5 dy=0 dh=10 dv=0
EndChar

StartChar: ecaron
Encoding: 283 283 160
Width: 524
GlyphClass: 2
Flags: MW
HStem: -9.42999 13.15 216.05 12.27 515.58 12.7 645 15.28 715.85 20G
VStem: 70.71 14.43 454.43 14.42
AnchorPoint: "Anchor-11" 238 0 basechar 0
AnchorPoint: "Anchor-10" 0 0 basechar 0
AnchorPoint: "Anchor-9" 309 518 basechar 0
AnchorPoint: "Anchor-8" 343 8 basechar 0
LayerCount: 2
Fore
SplineSet
326.71 645 m 1
 224.85 735.85 l 1
 232.85 744.14 l 1
 332.42 660.279 l 1
 455.85 744.14 l 1
 463 735.85 l 1
 334.71 645 l 1
 326.71 645 l 1
468.85 412.279 m 0
 468.85 298.39 341.49 229.507 85.7803 216.047 c 1
 85.3506 208.297 85.1406 200.737 85.1406 193.428 c 0
 85.1406 66.7178 146.141 3.71777 241.99 3.71777 c 0
 305.71 3.71777 348.42 24.2881 399.57 60.998 c 1
 407 50.4277 l 1
 355 11.998 307.43 -9.43164 242 -9.43164 c 0
 135.28 -9.43164 70.71 61.4287 70.71 192.999 c 0
 70.71 324.569 137.71 528.279 323.28 528.279 c 0
 406.42 528.279 468.85 485.43 468.85 412.279 c 0
323.28 515.576 m 0
 162.66 515.576 97.0518 352.035 86.6514 228.315 c 1
 339.121 242.136 454.431 308.866 454.431 411.856 c 0
 454.431 477.146 400.28 515.576 323.28 515.576 c 0
EndSplineSet
Substitution2: "'smcp' Lowercase to Small Capitals lookup 24 subtable" ecaron.sc
Substitution2: "'aalt' Access All Alternates lookup 0 subtable" ecaron.sc
EndChar

StartChar: Gcircumflex
Encoding: 284 284 37
Width: 603
GlyphClass: 2
Flags: MW
HStem: -9.42999 13.58 335.72 13.57 677.29 13.56 846.29 15.28
VStem: 86.29 14.86
AnchorPoint: "Anchor-11" 301 0 basechar 0
AnchorPoint: "Anchor-10" 0 0 basechar 0
AnchorPoint: "Anchor-9" 401 681 basechar 0
AnchorPoint: "Anchor-8" 0 0 basechar 0
LayerCount: 2
Fore
SplineSet
429.71 846.29 m 1
 307.999 767.86 l 1
 300.859 776.141 l 1
 427.43 861.57 l 1
 435.43 861.57 l 1
 539 776.141 l 1
 531 767.86 l 1
 429.71 846.29 l 1
404.859 690.851 m 0
 469.43 690.86 516.858 671.44 562.578 633.29 c 1
 553.008 623.15 l 1
 510.288 659.58 466.288 677.29 404.858 677.29 c 0
 195.719 677.29 101.148 447.01 101.148 256.859 c 0
 101.148 89.5791 182.998 4.14941 316.568 4.14941 c 0
 384.998 4.14941 437.148 23.8594 482.719 47.7197 c 1
 523.999 335.72 l 1
 376.859 335.72 l 1
 376.43 349.29 l 1
 540.14 349.29 l 1
 496.71 39.8604 l 1
 445.43 12 383.14 -9.42969 316.569 -9.42969 c 0
 174.289 -9.42969 86.2891 82.1406 86.2891 257.711 c 0
 86.2891 456.001 188.999 690.851 404.859 690.851 c 0
EndSplineSet
Substitution2: "'c2sc' Capitals to Small Capitals lookup 23 subtable" gcircumflex.sc
Substitution2: "'aalt' Access All Alternates lookup 0 subtable" gcircumflex.sc
Position2: "'cpsp' Capital Spacing lookup 0 subtable" dx=5 dy=0 dh=10 dv=0
EndChar

StartChar: gcircumflex
Encoding: 285 285 170
Width: 552
GlyphClass: 2
Flags: MW
HStem: -194.42 12.28 0 13.15 516 12.28 740 15.28
VStem: 71.28 14.43
AnchorPoint: "Anchor-11" 0 0 basechar 0
AnchorPoint: "Anchor-10" 0 0 basechar 0
AnchorPoint: "Anchor-9" 316 518 basechar 0
AnchorPoint: "Anchor-8" 0 0 basechar 0
LayerCount: 2
Fore
SplineSet
219.71 664.43 m 1
 348.421 755.279 l 1
 356.421 755.279 l 1
 457.851 664.43 l 1
 450.28 656.14 l 1
 350.71 740 l 1
 227.28 656.14 l 1
 219.71 664.43 l 1
331.421 528.279 m 0
 390.851 528.279 431.862 511 468.862 487.43 c 1
 396.572 -7.14062 l 2
 375.572 -151.141 300.002 -194.421 209.722 -194.421 c 0
 140.571 -194.421 84.4316 -170.851 47.7119 -148.001 c 1
 53.8623 -137.431 l 1
 91.002 -159.86 142.292 -182.141 210.142 -182.141 c 0
 293.432 -182.141 363.281 -141.141 382.571 -8.86035 c 2
 401.001 117.859 l 1
 357.851 41.1396 294.57 0 228 0 c 0
 128.71 -0 71.71 81.4297 71.2803 198 c 0
 70.8506 335.43 136.851 528.279 331.421 528.279 c 0
331.862 516 m 0
 146.862 516 85.2822 329.721 85.7119 198.431 c 0
 86.1416 88.8604 137.002 13.1504 228.432 13.1504 c 0
 297.861 13.1504 358.571 58 404.571 141.86 c 1
 454.861 480.86 l 1
 422.142 502.29 381.292 516 331.862 516 c 0
EndSplineSet
Substitution2: "'smcp' Lowercase to Small Capitals lookup 24 subtable" gcircumflex.sc
Substitution2: "'aalt' Access All Alternates lookup 0 subtable" gcircumflex.sc
EndChar

StartChar: Gbreve
Encoding: 286 286 36
Width: 603
GlyphClass: 2
Flags: MW
HStem: -9.42999 13.58 335.72 13.57 677.29 13.56 773.43 11.28
VStem: 86.29 14.86
AnchorPoint: "Anchor-11" 301 0 basechar 0
AnchorPoint: "Anchor-10" 0 0 basechar 0
AnchorPoint: "Anchor-9" 401 681 basechar 0
AnchorPoint: "Anchor-8" 0 0 basechar 0
LayerCount: 2
Fore
SplineSet
410.71 773.43 m 0
 357.13 773.43 322.859 804.43 316.999 842.71 c 1
 325.289 843.43 l 1
 332.289 812.279 359.569 784.709 410.72 784.709 c 0
 462.72 784.709 497.149 813.139 512.999 844.289 c 1
 521.289 841.859 l 1
 504.569 803.569 463.43 773.43 410.71 773.43 c 0
404.859 690.85 m 0
 469.43 690.859 516.858 671.439 562.578 633.289 c 1
 553.008 623.149 l 1
 510.288 659.579 466.288 677.289 404.858 677.289 c 0
 195.719 677.289 101.148 447.009 101.148 256.858 c 0
 101.148 89.5781 182.998 4.14844 316.568 4.14844 c 0
 384.998 4.14844 437.148 23.8584 482.719 47.7188 c 1
 523.999 335.719 l 1
 376.859 335.719 l 1
 376.43 349.289 l 1
 540.14 349.289 l 1
 496.71 39.8594 l 1
 445.43 11.999 383.14 -9.43066 316.569 -9.43066 c 0
 174.289 -9.43066 86.2891 82.1396 86.2891 257.71 c 0
 86.2891 456 188.999 690.85 404.859 690.85 c 0
EndSplineSet
Substitution2: "'c2sc' Capitals to Small Capitals lookup 23 subtable" gbreve.sc
Substitution2: "'aalt' Access All Alternates lookup 0 subtable" gbreve.sc
Position2: "'cpsp' Capital Spacing lookup 0 subtable" dx=5 dy=0 dh=10 dv=0
EndChar

StartChar: gbreve
Encoding: 287 287 169
Width: 552
GlyphClass: 2
Flags: MW
HStem: -194.42 12.28 0 13.15 516.01 12.28 665 11.29
VStem: 71.29 14.43 244.85 8.72
AnchorPoint: "Anchor-11" 0 0 basechar 0
AnchorPoint: "Anchor-10" 0 0 basechar 0
AnchorPoint: "Anchor-9" 316 518 basechar 0
AnchorPoint: "Anchor-8" 0 0 basechar 0
LayerCount: 2
Fore
SplineSet
336.57 665 m 0
 282.99 665 249.143 695.999 244.853 744.289 c 1
 253.572 744.999 l 1
 259.002 704.429 285.432 676.289 336.571 676.289 c 0
 388.571 676.289 423.861 705.289 441.291 745.859 c 1
 449.141 743.43 l 1
 431.431 695.14 389.28 665 336.57 665 c 0
331.433 528.289 m 0
 390.862 528.289 431.861 511.009 468.861 487.438 c 1
 396.581 -7.13184 l 2
 375.581 -151.132 300.011 -194.422 209.721 -194.422 c 0
 140.581 -194.422 84.4307 -170.852 47.7207 -147.991 c 1
 53.8604 -137.421 l 1
 91.0107 -159.851 142.291 -182.141 210.151 -182.141 c 0
 293.432 -182.141 363.292 -141.141 382.572 -8.85059 c 2
 401.002 117.859 l 1
 357.862 41.1494 294.572 -0.000976562 228.002 -0.000976562 c 0
 128.722 -0.000976562 71.7217 81.4287 71.292 197.999 c 0
 70.8623 335.429 136.862 528.289 331.433 528.289 c 0
331.861 516.009 m 0
 146.861 516.009 85.293 329.72 85.7227 198.439 c 0
 86.1523 88.8691 137.002 13.1494 228.432 13.1494 c 0
 297.861 13.1494 358.581 58.0098 404.581 141.859 c 1
 454.861 480.859 l 1
 422.151 502.289 381.291 516.009 331.861 516.009 c 0
EndSplineSet
Substitution2: "'smcp' Lowercase to Small Capitals lookup 24 subtable" gbreve.sc
Substitution2: "'aalt' Access All Alternates lookup 0 subtable" gbreve.sc
EndChar

StartChar: Gdotaccent
Encoding: 288 288 39
Width: 603
GlyphClass: 2
Flags: MW
HStem: -9.42 13.57 335.72 13.57 677.3 13.56 814.43 28.29
VStem: 86.28 14.86 407.14 28.72
AnchorPoint: "Anchor-11" 301 0 basechar 0
AnchorPoint: "Anchor-10" 0 0 basechar 0
AnchorPoint: "Anchor-9" 401 681 basechar 0
AnchorPoint: "Anchor-8" 0 0 basechar 0
LayerCount: 2
Fore
SplineSet
422.14 842.72 m 0
 432.14 842.72 436.71 835.859 435.86 827.72 c 0
 435 820.43 430 814.43 420.86 814.43 c 0
 411.29 814.43 406.29 821.29 407.14 829.43 c 0
 408 836.72 413.43 842.72 422.14 842.72 c 0
404.85 690.859 m 0
 469.43 690.859 516.861 671.438 562.571 633.298 c 1
 553.001 623.147 l 1
 510.291 659.577 466.291 677.297 404.861 677.297 c 0
 195.711 677.297 101.141 447.007 101.141 256.867 c 0
 101.141 89.5771 183.001 4.14746 316.571 4.14746 c 0
 385.001 4.14746 437.141 23.8672 482.711 47.7168 c 1
 524.001 335.717 l 1
 376.851 335.717 l 1
 376.421 349.287 l 1
 540.141 349.287 l 1
 496.711 39.8574 l 1
 445.421 12.0078 383.141 -9.42188 316.57 -9.42188 c 0
 174.28 -9.42188 86.2803 82.1484 86.2803 257.719 c 0
 86.2803 455.999 189 690.859 404.85 690.859 c 0
EndSplineSet
Substitution2: "'c2sc' Capitals to Small Capitals lookup 23 subtable" gdotaccent.sc
Substitution2: "'aalt' Access All Alternates lookup 0 subtable" gdotaccent.sc
Position2: "'cpsp' Capital Spacing lookup 0 subtable" dx=5 dy=0 dh=10 dv=0
EndChar

StartChar: gdotaccent
Encoding: 289 289 172
Width: 552
GlyphClass: 2
Flags: MW
HStem: -194.42 12.28 0 13.15 516 12.28 688.43 28.28
VStem: 71.28 14.43 326.42 28.72
AnchorPoint: "Anchor-11" 0 0 basechar 0
AnchorPoint: "Anchor-10" 0 0 basechar 0
AnchorPoint: "Anchor-9" 316 518 basechar 0
AnchorPoint: "Anchor-8" 0 0 basechar 0
LayerCount: 2
Fore
SplineSet
341.42 716.71 m 0
 351.42 716.71 355.99 709.86 355.141 701.71 c 0
 354.28 694.43 349.28 688.43 340.141 688.43 c 0
 330.57 688.43 325.57 695.279 326.42 703.43 c 0
 327.28 710.71 332.71 716.71 341.42 716.71 c 0
331.42 528.28 m 0
 390.85 528.28 431.861 511.001 468.861 487.431 c 1
 396.571 -7.13965 l 2
 375.571 -151.14 300.001 -194.42 209.721 -194.42 c 0
 140.57 -194.42 84.4307 -170.85 47.7109 -148 c 1
 53.8613 -137.43 l 1
 91.001 -159.859 142.291 -182.14 210.141 -182.14 c 0
 293.431 -182.14 363.28 -141.14 382.57 -8.85938 c 2
 401 117.86 l 1
 357.85 41.1406 294.569 0.000976562 227.999 0.000976562 c 0
 128.709 0.000976562 71.709 81.4307 71.2793 198.001 c 0
 70.8496 335.431 136.85 528.28 331.42 528.28 c 0
331.861 516.001 m 0
 146.861 516.001 85.2812 329.722 85.7109 198.432 c 0
 86.1406 88.8613 137.001 13.1514 228.431 13.1514 c 0
 297.86 13.1514 358.57 58.001 404.57 141.861 c 1
 454.86 480.861 l 1
 422.141 502.291 381.291 516.001 331.861 516.001 c 0
EndSplineSet
Substitution2: "'smcp' Lowercase to Small Capitals lookup 24 subtable" gdotaccent.sc
Substitution2: "'aalt' Access All Alternates lookup 0 subtable" gdotaccent.sc
EndChar
StartChar: Gcommaaccent
Encoding: 290 290 102
Width: 603
GlyphClass: 2
Flags: MW
HStem: -9 13<250 350> 336 13<377 524 377 377> 677 14<300.5 435.5>
VStem: 86 15<173.5 352 173.5 357> 269 34<-119.5 -113>
AnchorPoint: "Anchor-14" 0 0 basechar 0
AnchorPoint: "Anchor-13" 0 0 basechar 0
AnchorPoint: "Anchor-12" 401 681 basechar 0
AnchorPoint: "Anchor-11" 0 0 basechar 0
AnchorPoint: "Anchor-10" 301 0 basechar 0
LayerCount: 2
Back
Fore
SplineSet
405 691 m 0
 469 691 517 671 563 633 c 1
 553 623 l 1
 510 660 466 677 405 677 c 0
 196 677 101 447 101 257 c 0
 101 90 183 4 317 4 c 0
 385 4 437 24 483 48 c 1
 524 336 l 1
 377 336 l 1
 376 349 l 1
 540 349 l 1
 497 40 l 1
 445 12 383 -9 317 -9 c 0
 174 -9 86 82 86 258 c 0
 86 456 189 691 405 691 c 0
287 -100 m 0
 297 -100 303 -106 303 -115 c 0
 303 -124 300 -129 290 -147 c 2
 245 -250 l 1
 235 -250 l 1
 280 -132 l 1
 273 -129 269 -123 269 -118 c 0
 269 -108 276 -100 287 -100 c 0
EndSplineSet
Substitution2: "'c2sc' Capitals to Small Capitals lookup 27 subtable" gcommaaccent.sc
Substitution2: "'aalt' Access All Alternates lookup 0 subtable" gcommaaccent.sc
Position2: "'cpsp' Capital Spacing lookup 0 subtable" dx=5 dy=0 dh=10 dv=0
EndChar
StartChar: gcommaaccent
Encoding: 291 291 456
Width: 552
GlyphClass: 2
Flags: MW
HStem: -194 12<176 251.5 176 255> 0 13<182.5 261.5> 516 12<239.5 356.5>
VStem: 71 15<143.5 266.5> 313 34<608 614.5>
AnchorPoint: "Anchor-14" 0 0 basechar 0
AnchorPoint: "Anchor-13" 0 0 basechar 0
AnchorPoint: "Anchor-12" 316 518 basechar 0
AnchorPoint: "Anchor-11" 0 0 basechar 0
AnchorPoint: "Anchor-10" 210 -190 basechar 0
LayerCount: 2
Back
Fore
SplineSet
329 595 m 0
 319 595 313 601 313 610 c 0
 313 619 316 624 326 642 c 2
 371 745 l 1
 381 745 l 1
 336 627 l 1
 343 624 347 618 347 613 c 0
 347 603 340 595 329 595 c 0
331 528 m 0
 391 528 432 511 469 487 c 1
 397 -7 l 2
 376 -151 300 -194 210 -194 c 0
 141 -194 84 -171 48 -148 c 1
 54 -137 l 1
 91 -160 142 -182 210 -182 c 0
 293 -182 363 -141 383 -9 c 2
 401 118 l 1
 358 41 295 0 228 0 c 0
 129 0 72 81 71 198 c 0
 71 335 137 528 331 528 c 0
332 516 m 0
 147 516 85 330 86 198 c 0
 86 89 137 13 228 13 c 0
 298 13 359 58 405 142 c 1
 454 481 l 1
 421 502 381 516 332 516 c 0
EndSplineSet
Substitution2: "'smcp' Lowercase to Small Capitals lookup 28 subtable" gcommaaccent.sc
Substitution2: "'aalt' Access All Alternates lookup 0 subtable" gcommaaccent.sc
EndChar
StartChar: Hcircumflex
Encoding: 292 292 110
Width: 657
GlyphClass: 2
Flags: MW
HStem: 0 21G<89 104 89 89 481 495 481 481> 356 14<156 531 154 533> 661 20G<185 199 199 199 576 591 591 591> 846 16<406 406>
VStem: 89 502
AnchorPoint: "Anchor-14" 339 340 basechar 0
AnchorPoint: "Anchor-13" 470 713 basechar 0
AnchorPoint: "Anchor-12" 407 862 basechar 0
AnchorPoint: "Anchor-11" 0 0 basechar 0
AnchorPoint: "Anchor-10" 298 0 basechar 0
LayerCount: 2
Back
Fore
SplineSet
507 768 m 1
 406 846 l 1
 284 768 l 1
 277 776 l 1
 403 862 l 1
 411 862 l 1
 515 776 l 1
 507 768 l 1
481 0 m 1
 531 356 l 1
 154 356 l 1
 104 0 l 1
 89 0 l 1
 185 681 l 1
 199 681 l 1
 156 370 l 1
 533 370 l 1
 576 681 l 1
 591 681 l 1
 495 0 l 1
 481 0 l 1
EndSplineSet
Substitution2: "'c2sc' Capitals to Small Capitals lookup 27 subtable" hcircumflex.sc
Substitution2: "'aalt' Access All Alternates lookup 0 subtable" hcircumflex.sc
Position2: "'cpsp' Capital Spacing lookup 0 subtable" dx=5 dy=0 dh=10 dv=0
EndChar

StartChar: hcircumflex
Encoding: 293 293 175
Width: 581
GlyphClass: 2
Flags: MW
HStem: -0.00999451 21G 0 21G 515.99 12.29 713.85 20G 895.43 15.28
VStem: 469.55 14.07
AnchorPoint: "Anchor-11" 250 0 basechar 0
AnchorPoint: "Anchor-10" 0 0 basechar 0
AnchorPoint: "Anchor-9" 339 730 basechar 0
AnchorPoint: "Anchor-8" 0 0 basechar 0
LayerCount: 2
Fore
SplineSet
367.43 895.43 m 1x7c
 245.72 817 l 1
 238.569 825.28 l 1
 365.14 910.71 l 1
 373.14 910.71 l 1
 476.71 825.28 l 1
 468.71 817 l 1
 367.43 895.43 l 1x7c
367.149 528.28 m 0
 460.149 528.28 494.569 468.711 480.72 368.431 c 2
 428.72 0.000976562 l 1
 414.72 0.000976562 l 1x7c
 466.72 367.571 l 2
 479.72 463.421 449.72 515.991 365.859 515.991 c 0
 279.859 515.991 209.72 450.852 143.43 320.852 c 1
 98.29 -0.00878906 l 1
 84.29 -0.00878906 l 1xbc
 187.14 731.711 l 1
 201.14 733.851 l 1
 147.43 349.141 l 1
 209.569 472.141 283.72 528.28 367.149 528.28 c 0
EndSplineSet
Substitution2: "'smcp' Lowercase to Small Capitals lookup 24 subtable" hcircumflex.sc
Substitution2: "'aalt' Access All Alternates lookup 0 subtable" hcircumflex.sc
EndChar
StartChar: Hbar
Encoding: 294 294 108
Width: 661
GlyphClass: 2
Flags: MW
HStem: 0 21G<93 108 93 93 485 499 485 485> 356 14<160 535 158 537> 523 11<112 167 110 168 183 558 574 627> 523 158<110 203 110 203 181 203 189 203 189 558 580 595>
VStem: 93 536<0 534>
AnchorPoint: "Anchor-14" 343 340 basechar 0
AnchorPoint: "Anchor-13" 0 0 basechar 0
AnchorPoint: "Anchor-12" 390 681 basechar 0
AnchorPoint: "Anchor-11" 0 0 basechar 0
AnchorPoint: "Anchor-10" 302 0 basechar 0
LayerCount: 2
Back
Fore
SplineSet
629 534 m 1xe8
 627 523 l 1
 573 523 l 1
 499 0 l 1
 485 0 l 1
 535 356 l 1
 158 356 l 1
 108 0 l 1
 93 0 l 1
 167 523 l 1
 110 523 l 1
 112 534 l 1
 168 534 l 1xe8
 189 681 l 1
 203 681 l 1xd8
 183 534 l 1
 560 534 l 1xe8
 580 681 l 1
 595 681 l 1xd8
 574 534 l 1
 629 534 l 1xe8
537 370 m 1
 558 523 l 1
 181 523 l 1
 160 370 l 1
 537 370 l 1
EndSplineSet
Substitution2: "'c2sc' Capitals to Small Capitals lookup 27 subtable" hbar.sc
Substitution2: "'aalt' Access All Alternates lookup 0 subtable" hbar.sc
Position2: "'cpsp' Capital Spacing lookup 0 subtable" dx=5 dy=0 dh=10 dv=0
EndChar
StartChar: hbar
Encoding: 295 295 469
Width: 583
GlyphClass: 2
Flags: MW
HStem: 0 21G<86 100 86 86 417 431 417 417> 516 12<327.5 410> 632 13<104 175 102 177 104 189 191 376> 632 102<102 203 102 203 189 203 203 203 203 376>
VStem: 471.83 14.09
AnchorPoint: "Anchor-14" 290 259 basechar 0
AnchorPoint: "Anchor-13" 0 0 basechar 0
AnchorPoint: "Anchor-12" 341 730 basechar 0
AnchorPoint: "Anchor-11" 0 0 basechar 0
AnchorPoint: "Anchor-10" 259 0 basechar 0
LayerCount: 2
Back
Fore
SplineSet
369 528 m 0xe8
 462 528 497 469 483 368 c 2
 431 0 l 1
 417 0 l 1
 469 368 l 2
 482 463 452 516 368 516 c 0
 282 516 212 451 146 321 c 1
 100 0 l 1
 86 0 l 1
 175 632 l 1
 102 632 l 1
 104 645 l 1
 177 645 l 1xe8
 189 732 l 1
 203 734 l 1xd8
 191 645 l 1
 380 645 l 1
 376 632 l 1
 189 632 l 1
 150 349 l 1
 212 472 286 528 369 528 c 0xe8
EndSplineSet
Substitution2: "'smcp' Lowercase to Small Capitals lookup 28 subtable" hbar.sc
Substitution2: "'aalt' Access All Alternates lookup 0 subtable" hbar.sc
EndChar
